<svg width="131" height="157" viewBox="0 0 131 157" fill="none" xmlns="http://www.w3.org/2000/svg">
<g clip-path="url(#clip0_2303_21)">
<path d="M59.1642 129.566C58.8337 128.74 58.6684 127.914 58.5032 127.087C58.0074 123.947 58.0074 120.807 58.6684 117.502C53.7105 105.603 45.9432 84.78 45.9432 69.2453V60.9821H53.8758C56.8505 60.9821 59.3295 58.5032 59.3295 55.5284C59.3295 52.5537 56.8505 50.0747 53.8758 50.0747H47.5958L53.7105 30.2432C54.041 29.2516 53.5453 28.26 52.5537 27.9295L39.4979 23.9632V14.2126H45.9432C46.4389 14.2126 46.7695 13.8821 46.7695 13.3863V8.09789C46.7695 7.60211 46.4389 7.27158 45.9432 7.27158H39.4979V0.826316C39.4979 0.330526 39.1674 0 38.6716 0H33.3832C32.8874 0 32.5568 0.330526 32.5568 0.826316V7.10632H26.1116C25.6158 7.10632 25.2853 7.43684 25.2853 7.93263V13.2211C25.2853 13.7168 25.6158 14.0474 26.1116 14.0474H32.5568V23.9632L19.5011 27.9295C18.5095 28.26 18.0137 29.2516 18.3442 30.2432L24.4589 50.0747H18.1789C15.2042 50.0747 12.7253 52.5537 12.7253 55.5284C12.7253 58.5032 15.2042 60.9821 18.1789 60.9821H26.1116V69.2453C26.1116 87.5895 15.3695 113.371 11.0726 123.121C9.91579 125.6 9.91579 128.409 11.0726 130.888L13.0558 135.351H12.7253C5.61895 135.351 0 141.135 0 148.076V154.852C0 156.008 0.991579 157 2.14842 157H48.9179C48.7526 156.339 48.7526 155.678 48.7526 154.852V148.076C48.7526 140.308 52.8842 133.367 59.1642 129.566Z" fill="url(#paint0_linear_2303_21)"/>
<path d="M118.047 135.005H112.924C124.658 130.047 122.674 119.14 118.212 107.902C113.915 96.9947 126.145 89.0621 127.302 69.2305C128.954 39.8137 101.355 37.6653 93.7533 37.5C92.7618 37.5 92.1007 38.4916 92.4312 39.3179L94.7449 47.4158C89.2912 47.5811 84.3333 52.3737 81.8544 57.3316C77.3923 66.4211 64.8323 70.2221 62.6839 75.6758C60.5354 81.2947 65.1628 89.0621 68.3028 90.0537C72.9302 91.3758 85.4902 82.9474 88.7954 81.46C92.1007 79.9726 92.927 83.1126 75.5744 105.093C60.5354 124.263 72.2691 132.857 75.7397 134.84H71.6081C64.5018 134.84 58.8828 140.624 58.8828 147.565V154.341C58.8828 155.498 59.8744 156.489 61.0312 156.489H128.789C129.946 156.489 130.938 155.498 130.938 154.341V147.565C130.938 140.624 125.153 135.005 118.047 135.005ZM94.9102 65.5947C92.1007 65.5947 89.9523 63.4463 89.9523 60.6368C89.9523 57.8274 92.1007 55.6789 94.9102 55.6789C97.7197 55.6789 99.8681 57.9926 99.8681 60.6368C100.033 63.2811 97.7197 65.5947 94.9102 65.5947Z" fill="url(#paint1_linear_2303_21)"/>
</g>
<defs>
<linearGradient id="paint0_linear_2303_21" x1="29.6646" y1="0" x2="29.6646" y2="157" gradientUnits="userSpaceOnUse">
<stop stop-color="#E98FFF"/>
<stop offset="1" stop-color="#8508C3"/>
</linearGradient>
<linearGradient id="paint1_linear_2303_21" x1="94.9102" y1="37.5" x2="94.9102" y2="156.489" gradientUnits="userSpaceOnUse">
<stop stop-color="#E98FFF"/>
<stop offset="1" stop-color="#8508C3"/>
</linearGradient>
<clipPath id="clip0_2303_21">
<rect width="131" height="157" fill="white"/>
</clipPath>
</defs>
</svg>
