<svg width="131" height="131" viewBox="0 0 131 131" fill="none" xmlns="http://www.w3.org/2000/svg">
<path d="M65.5 14.0356C60.5367 14.0356 55.7766 16.0073 52.267 19.5169C48.7574 23.0265 46.7857 27.7866 46.7857 32.7499C46.7857 37.7133 48.7574 42.4733 52.267 45.9829C55.7766 49.4925 60.5367 51.4642 65.5 51.4642C70.4634 51.4642 75.2234 49.4925 78.733 45.9829C82.2426 42.4733 84.2143 37.7133 84.2143 32.7499C84.2143 27.7866 82.2426 23.0265 78.733 19.5169C75.2234 16.0073 70.4634 14.0356 65.5 14.0356ZM9.35718 44.4464C9.35718 42.296 9.78073 40.1666 10.6036 38.1799C11.4266 36.1932 12.6327 34.388 14.1533 32.8675C15.6739 31.3469 17.479 30.1408 19.4657 29.3178C21.4524 28.4949 23.5818 28.0714 25.7322 28.0714C27.8826 28.0714 30.0119 28.4949 31.9986 29.3178C33.9853 30.1408 35.7905 31.3469 37.311 32.8675C38.8316 34.388 40.0378 36.1932 40.8607 38.1799C41.6836 40.1666 42.1072 42.296 42.1072 44.4464C42.1072 48.7893 40.382 52.9543 37.311 56.0252C34.2401 59.0961 30.0751 60.8214 25.7322 60.8214C21.3893 60.8214 17.2242 59.0961 14.1533 56.0252C11.0824 52.9543 9.35718 48.7893 9.35718 44.4464ZM105.268 28.0714C103.117 28.0714 100.988 28.4949 99.0014 29.3178C97.0147 30.1408 95.2096 31.3469 93.689 32.8675C92.1685 34.388 90.9623 36.1932 90.1394 38.1799C89.3164 40.1666 88.8929 42.296 88.8929 44.4464C88.8929 46.5968 89.3164 48.7261 90.1394 50.7128C90.9623 52.6995 92.1685 54.5047 93.689 56.0252C95.2096 57.5458 97.0147 58.752 99.0014 59.5749C100.988 60.3978 103.117 60.8214 105.268 60.8214C109.611 60.8214 113.776 59.0961 116.847 56.0252C119.918 52.9543 121.643 48.7893 121.643 44.4464C121.643 40.1034 119.918 35.9384 116.847 32.8675C113.776 29.7966 109.611 28.0714 105.268 28.0714ZM50.2947 60.8214C48.1232 60.8214 46.0407 61.684 44.5052 63.2194C42.9698 64.7549 42.1072 66.8374 42.1072 69.0089V93.5714C42.1072 99.7755 44.5718 105.726 48.9588 110.113C53.3458 114.5 59.2959 116.964 65.5 116.964C71.7042 116.964 77.6543 114.5 82.0413 110.113C86.4283 105.726 88.8929 99.7755 88.8929 93.5714V69.0089C88.8929 66.8374 88.0303 64.7549 86.4948 63.2194C84.9594 61.684 82.8768 60.8214 80.7054 60.8214H50.2947ZM37.4286 69.0182L15.4253 74.9132C14.3866 75.1917 13.4129 75.6721 12.5598 76.3269C11.7068 76.9818 10.9911 77.7983 10.4537 78.7298C9.91624 79.6613 9.56758 80.6895 9.42761 81.7558C9.28763 82.822 9.35909 83.9054 9.63789 84.9441L13.5726 99.6301C14.4725 102.992 16.1111 106.11 18.369 108.758C20.6269 111.406 23.4471 113.517 26.6242 114.937C29.8013 116.357 33.2551 117.05 36.7341 116.967C40.213 116.883 43.6294 116.023 46.7343 114.452C43.8052 111.819 41.4629 108.599 39.8597 105.002C38.2564 101.404 37.4281 97.5099 37.4286 93.5714V69.0182ZM84.2705 114.447C85.6896 115.165 87.1961 115.74 88.79 116.174C91.7575 116.969 94.8526 117.172 97.8986 116.771C100.945 116.37 103.882 115.373 106.542 113.836C109.203 112.3 111.535 110.255 113.405 107.817C115.275 105.38 116.647 102.598 117.442 99.6301L121.376 84.9394C121.938 82.8424 121.644 80.6082 120.558 78.728C119.473 76.8479 117.686 75.4757 115.589 74.9132L93.5715 69.0182V93.5714C93.5719 97.5087 92.744 101.402 91.1416 104.999C89.5392 108.595 87.1981 111.814 84.2705 114.447Z" fill="black"/>
<path d="M65.5 14.0356C60.5367 14.0356 55.7766 16.0073 52.267 19.5169C48.7574 23.0265 46.7857 27.7866 46.7857 32.7499C46.7857 37.7133 48.7574 42.4733 52.267 45.9829C55.7766 49.4925 60.5367 51.4642 65.5 51.4642C70.4634 51.4642 75.2234 49.4925 78.733 45.9829C82.2426 42.4733 84.2143 37.7133 84.2143 32.7499C84.2143 27.7866 82.2426 23.0265 78.733 19.5169C75.2234 16.0073 70.4634 14.0356 65.5 14.0356ZM9.35718 44.4464C9.35718 42.296 9.78073 40.1666 10.6036 38.1799C11.4266 36.1932 12.6327 34.388 14.1533 32.8675C15.6739 31.3469 17.479 30.1408 19.4657 29.3178C21.4524 28.4949 23.5818 28.0714 25.7322 28.0714C27.8826 28.0714 30.0119 28.4949 31.9986 29.3178C33.9853 30.1408 35.7905 31.3469 37.311 32.8675C38.8316 34.388 40.0378 36.1932 40.8607 38.1799C41.6836 40.1666 42.1072 42.296 42.1072 44.4464C42.1072 48.7893 40.382 52.9543 37.311 56.0252C34.2401 59.0961 30.0751 60.8214 25.7322 60.8214C21.3893 60.8214 17.2242 59.0961 14.1533 56.0252C11.0824 52.9543 9.35718 48.7893 9.35718 44.4464ZM105.268 28.0714C103.117 28.0714 100.988 28.4949 99.0014 29.3178C97.0147 30.1408 95.2096 31.3469 93.689 32.8675C92.1685 34.388 90.9623 36.1932 90.1394 38.1799C89.3164 40.1666 88.8929 42.296 88.8929 44.4464C88.8929 46.5968 89.3164 48.7261 90.1394 50.7128C90.9623 52.6995 92.1685 54.5047 93.689 56.0252C95.2096 57.5458 97.0147 58.752 99.0014 59.5749C100.988 60.3978 103.117 60.8214 105.268 60.8214C109.611 60.8214 113.776 59.0961 116.847 56.0252C119.918 52.9543 121.643 48.7893 121.643 44.4464C121.643 40.1034 119.918 35.9384 116.847 32.8675C113.776 29.7966 109.611 28.0714 105.268 28.0714ZM50.2947 60.8214C48.1232 60.8214 46.0407 61.684 44.5052 63.2194C42.9698 64.7549 42.1072 66.8374 42.1072 69.0089V93.5714C42.1072 99.7755 44.5718 105.726 48.9588 110.113C53.3458 114.5 59.2959 116.964 65.5 116.964C71.7042 116.964 77.6543 114.5 82.0413 110.113C86.4283 105.726 88.8929 99.7755 88.8929 93.5714V69.0089C88.8929 66.8374 88.0303 64.7549 86.4948 63.2194C84.9594 61.684 82.8768 60.8214 80.7054 60.8214H50.2947ZM37.4286 69.0182L15.4253 74.9132C14.3866 75.1917 13.4129 75.6721 12.5598 76.3269C11.7068 76.9818 10.9911 77.7983 10.4537 78.7298C9.91624 79.6613 9.56758 80.6895 9.42761 81.7558C9.28763 82.822 9.35909 83.9054 9.63789 84.9441L13.5726 99.6301C14.4725 102.992 16.1111 106.11 18.369 108.758C20.6269 111.406 23.4471 113.517 26.6242 114.937C29.8013 116.357 33.2551 117.05 36.7341 116.967C40.213 116.883 43.6294 116.023 46.7343 114.452C43.8052 111.819 41.4629 108.599 39.8597 105.002C38.2564 101.404 37.4281 97.5099 37.4286 93.5714V69.0182ZM84.2705 114.447C85.6896 115.165 87.1961 115.74 88.79 116.174C91.7575 116.969 94.8526 117.172 97.8986 116.771C100.945 116.37 103.882 115.373 106.542 113.836C109.203 112.3 111.535 110.255 113.405 107.817C115.275 105.38 116.647 102.598 117.442 99.6301L121.376 84.9394C121.938 82.8424 121.644 80.6082 120.558 78.728C119.473 76.8479 117.686 75.4757 115.589 74.9132L93.5715 69.0182V93.5714C93.5719 97.5087 92.744 101.402 91.1416 104.999C89.5392 108.595 87.1981 111.814 84.2705 114.447Z" fill="url(#paint0_linear_109_1459)"/>
<path d="M65.5 14.0356C60.5367 14.0356 55.7766 16.0073 52.267 19.5169C48.7574 23.0265 46.7857 27.7866 46.7857 32.7499C46.7857 37.7133 48.7574 42.4733 52.267 45.9829C55.7766 49.4925 60.5367 51.4642 65.5 51.4642C70.4634 51.4642 75.2234 49.4925 78.733 45.9829C82.2426 42.4733 84.2143 37.7133 84.2143 32.7499C84.2143 27.7866 82.2426 23.0265 78.733 19.5169C75.2234 16.0073 70.4634 14.0356 65.5 14.0356ZM9.35718 44.4464C9.35718 42.296 9.78073 40.1666 10.6036 38.1799C11.4266 36.1932 12.6327 34.388 14.1533 32.8675C15.6739 31.3469 17.479 30.1408 19.4657 29.3178C21.4524 28.4949 23.5818 28.0714 25.7322 28.0714C27.8826 28.0714 30.0119 28.4949 31.9986 29.3178C33.9853 30.1408 35.7905 31.3469 37.311 32.8675C38.8316 34.388 40.0378 36.1932 40.8607 38.1799C41.6836 40.1666 42.1072 42.296 42.1072 44.4464C42.1072 48.7893 40.382 52.9543 37.311 56.0252C34.2401 59.0961 30.0751 60.8214 25.7322 60.8214C21.3893 60.8214 17.2242 59.0961 14.1533 56.0252C11.0824 52.9543 9.35718 48.7893 9.35718 44.4464ZM105.268 28.0714C103.117 28.0714 100.988 28.4949 99.0014 29.3178C97.0147 30.1408 95.2096 31.3469 93.689 32.8675C92.1685 34.388 90.9623 36.1932 90.1394 38.1799C89.3164 40.1666 88.8929 42.296 88.8929 44.4464C88.8929 46.5968 89.3164 48.7261 90.1394 50.7128C90.9623 52.6995 92.1685 54.5047 93.689 56.0252C95.2096 57.5458 97.0147 58.752 99.0014 59.5749C100.988 60.3978 103.117 60.8214 105.268 60.8214C109.611 60.8214 113.776 59.0961 116.847 56.0252C119.918 52.9543 121.643 48.7893 121.643 44.4464C121.643 40.1034 119.918 35.9384 116.847 32.8675C113.776 29.7966 109.611 28.0714 105.268 28.0714ZM50.2947 60.8214C48.1232 60.8214 46.0407 61.684 44.5052 63.2194C42.9698 64.7549 42.1072 66.8374 42.1072 69.0089V93.5714C42.1072 99.7755 44.5718 105.726 48.9588 110.113C53.3458 114.5 59.2959 116.964 65.5 116.964C71.7042 116.964 77.6543 114.5 82.0413 110.113C86.4283 105.726 88.8929 99.7755 88.8929 93.5714V69.0089C88.8929 66.8374 88.0303 64.7549 86.4948 63.2194C84.9594 61.684 82.8768 60.8214 80.7054 60.8214H50.2947ZM37.4286 69.0182L15.4253 74.9132C14.3866 75.1917 13.4129 75.6721 12.5598 76.3269C11.7068 76.9818 10.9911 77.7983 10.4537 78.7298C9.91624 79.6613 9.56758 80.6895 9.42761 81.7558C9.28763 82.822 9.35909 83.9054 9.63789 84.9441L13.5726 99.6301C14.4725 102.992 16.1111 106.11 18.369 108.758C20.6269 111.406 23.4471 113.517 26.6242 114.937C29.8013 116.357 33.2551 117.05 36.7341 116.967C40.213 116.883 43.6294 116.023 46.7343 114.452C43.8052 111.819 41.4629 108.599 39.8597 105.002C38.2564 101.404 37.4281 97.5099 37.4286 93.5714V69.0182ZM84.2705 114.447C85.6896 115.165 87.1961 115.74 88.79 116.174C91.7575 116.969 94.8526 117.172 97.8986 116.771C100.945 116.37 103.882 115.373 106.542 113.836C109.203 112.3 111.535 110.255 113.405 107.817C115.275 105.38 116.647 102.598 117.442 99.6301L121.376 84.9394C121.938 82.8424 121.644 80.6082 120.558 78.728C119.473 76.8479 117.686 75.4757 115.589 74.9132L93.5715 69.0182V93.5714C93.5719 97.5087 92.744 101.402 91.1416 104.999C89.5392 108.595 87.1981 111.814 84.2705 114.447Z" fill="url(#paint1_linear_109_1459)"/>
<defs>
<linearGradient id="paint0_linear_109_1459" x1="65.5061" y1="14.0356" x2="65.5061" y2="116.973" gradientUnits="userSpaceOnUse">
<stop stop-color="#FBCAAD"/>
<stop offset="1" stop-color="#C64E07"/>
</linearGradient>
<linearGradient id="paint1_linear_109_1459" x1="65.5058" y1="14.0356" x2="65.5058" y2="116.973" gradientUnits="userSpaceOnUse">
<stop stop-color="#E98FFF"/>
<stop offset="1" stop-color="#8508C3"/>
</linearGradient>
</defs>
</svg>
