<svg width="89" height="114" viewBox="0 0 89 114" fill="none" xmlns="http://www.w3.org/2000/svg">
<path d="M34.7237 0.148777C44.2524 0.148777 53.8433 -0.191027 63.3335 0.811572C67.6493 1.26747 72.0021 1.73269 76.2772 2.47697C79.448 3.02895 85.7831 3.06024 88.0523 5.81733C95.0979 14.3781 60.7265 28.9465 55.25 31.9361C47.4031 36.2199 39.3568 40.2147 31.5365 44.5926C30.2399 45.3185 21.6118 49.0102 21.3884 50.5596C21.2017 51.8548 26.9234 52.4446 28.2426 52.7184C37.1299 54.5627 67.5713 56.5349 66.0384 70.8034C65.1005 79.5341 51.9397 86.1107 45.482 90.3206C41.6783 92.8004 37.8252 95.2011 33.9307 97.5381C30.8791 99.3694 25.5073 101.169 23.7594 104.454C29.2784 106.572 46.544 95.3552 48.7874 104.316C50.4067 110.785 39.3813 110.223 35.6587 110.902C30.6266 111.82 25.3531 112.667 20.1588 113.33C15.3985 113.938 6.77652 115.716 5.84485 108.959C5.14004 103.847 7.64121 96.5742 8.67982 91.4683C9.2348 88.7399 11.2496 75.5311 16.2615 80.5871C20.4297 84.7917 14.9717 94.3816 16.5802 99.2622C24.4658 92.436 33.7316 87.4047 42.4107 81.6818C46.4473 79.0201 50.7354 76.3473 54.2827 73.058C58.801 68.8683 55.3509 67.6203 50.5583 65.9759C42.2961 63.141 33.4618 62.3049 24.9955 60.4879C21.0168 59.6341 14.4365 58.7217 11.7435 55.3203C8.47384 51.1909 12.2421 47.0945 15.5655 44.5854C23.6989 38.4452 33.7756 34.2621 42.8509 29.6929C53.0557 24.5551 63.3006 19.5229 73.2258 13.8622C73.7752 13.5489 78.9278 11.1435 78.9858 10.272C79.0706 8.99547 75.5565 9.18051 74.6849 9.07129C70.1871 8.50815 65.703 7.62913 61.2201 7.14047C50.9777 6.02423 40.3805 5.72529 30.0519 5.6227C23.7524 5.56012 17.4919 5.04839 11.1859 4.98642C9.30441 4.96789 -1.43702 6.42441 0.161632 2.95864C1.36617 0.34746 12.6136 0.315556 14.9702 0.177745C21.5066 -0.204519 28.1763 0.148777 34.7237 0.148777Z" fill="#222221"/>
</svg>
