<svg width="32" height="32" viewBox="0 0 32 32" fill="none" xmlns="http://www.w3.org/2000/svg">
<g clip-path="url(#clip0_1_232)">
<g clip-path="url(#clip1_1_232)">
<path d="M15.69 3.20605C13.199 3.20605 10.764 3.94505 8.693 5.32905C6.622 6.71205 5.008 8.67905 4.055 10.9811C3.102 13.2821 2.852 15.8141 3.338 18.2571C3.824 20.7001 5.024 22.9441 6.785 24.7051C8.546 26.4661 10.79 27.6661 13.233 28.1521C15.676 28.6381 18.208 28.3881 20.509 27.4351C22.811 26.4821 24.777 24.8681 26.161 22.7971C27.545 20.7261 28.284 18.2911 28.284 15.8001C28.28 12.4611 26.952 9.26005 24.591 6.89905C22.23 4.53805 19.029 3.21005 15.69 3.20605ZM22.853 13.7841L17.264 16.1781L21.276 20.9921C21.44 21.1901 21.52 21.4451 21.496 21.7011C21.473 21.9571 21.349 22.1931 21.151 22.3571C20.954 22.5221 20.699 22.6011 20.443 22.5771C20.187 22.5541 19.951 22.4301 19.787 22.2321L15.69 17.3141L11.591 22.2321C11.427 22.4301 11.19 22.5541 10.934 22.5771C10.679 22.6011 10.424 22.5221 10.226 22.3571C10.029 22.1931 9.905 21.9571 9.881 21.7011C9.858 21.4451 9.937 21.1901 10.102 20.9921L14.116 16.1781L8.527 13.7841C8.407 13.7361 8.297 13.6651 8.204 13.5741C8.112 13.4841 8.038 13.3751 7.989 13.2561C7.939 13.1361 7.913 13.0081 7.914 12.8781C7.915 12.7481 7.941 12.6201 7.992 12.5011C8.043 12.3821 8.118 12.2741 8.211 12.1841C8.305 12.0941 8.415 12.0241 8.536 11.9781C8.657 11.9321 8.786 11.9101 8.916 11.9141C9.045 11.9191 9.173 11.9491 9.29 12.0041L14.721 14.3311V8.77705C14.721 8.52005 14.823 8.27305 15.005 8.09205C15.187 7.91005 15.433 7.80805 15.69 7.80805C15.947 7.80805 16.193 7.91005 16.375 8.09205C16.557 8.27305 16.659 8.52005 16.659 8.77705V14.3311L22.09 12.0041C22.207 11.9491 22.335 11.9191 22.464 11.9141C22.594 11.9101 22.723 11.9321 22.844 11.9781C22.965 12.0241 23.075 12.0941 23.169 12.1841C23.262 12.2741 23.337 12.3821 23.388 12.5011C23.439 12.6201 23.465 12.7481 23.466 12.8781C23.467 13.0081 23.441 13.1361 23.391 13.2561C23.342 13.3751 23.268 13.4841 23.176 13.5741C23.083 13.6651 22.973 13.7361 22.853 13.7841Z" fill="#BC53F0"/>
</g>
</g>
<defs>
<clipPath id="clip0_1_232">
<rect width="31" height="31" fill="white" transform="translate(0.190002 0.300049)"/>
</clipPath>
<clipPath id="clip1_1_232">
<rect width="31" height="31" fill="white" transform="translate(0.190002 0.300049)"/>
</clipPath>
</defs>
</svg>
