<svg width="24" height="24" viewBox="0 0 24 24" fill="none" xmlns="http://www.w3.org/2000/svg">
<path d="M12.0001 15.5C11.9016 15.5005 11.8039 15.4813 11.7129 15.4435C11.6219 15.4057 11.5393 15.3501 11.4701 15.28L6.00009 9.78003C5.9087 9.63907 5.86728 9.47151 5.88247 9.30421C5.89765 9.1369 5.96857 8.97954 6.08385 8.85735C6.19913 8.73515 6.3521 8.65519 6.51823 8.63029C6.68437 8.6054 6.85405 8.63699 7.00009 8.72003L12.0001 13.72L17.0001 8.72003C17.1461 8.63699 17.3158 8.6054 17.4819 8.63029C17.6481 8.65519 17.8011 8.73515 17.9163 8.85735C18.0316 8.97954 18.1025 9.1369 18.1177 9.30421C18.1329 9.47151 18.0915 9.63907 18.0001 9.78003L12.5001 15.28C12.3676 15.4144 12.1887 15.4931 12.0001 15.5Z" fill="#FFFFFF"/>
</svg>
