<svg width="324" height="124" viewBox="0 0 324 124" fill="none" xmlns="http://www.w3.org/2000/svg">
<g clip-path="url(#clip0_1_410)">
<rect x="29.48" y="-0.310547" width="247" height="76" rx="24" fill="#131313"/>
<rect x="29.98" y="0.189453" width="246" height="75" rx="23.5" stroke="#292929"/>
<g clip-path="url(#clip1_1_410)">
<path d="M97.713 12.5H60.3953C50.5516 12.5 42.5718 20.4799 42.5718 30.3235V45.3619C42.5718 55.2055 50.5516 63.1854 60.3953 63.1854H97.713C107.557 63.1854 115.536 55.2055 115.536 45.3619V30.3235C115.536 20.4799 107.557 12.5 97.713 12.5Z" fill="black" fill-opacity="0.89"/>
<mask id="mask0_1_410" style="mask-type:luminance" maskUnits="userSpaceOnUse" x="66" y="24" width="27" height="27">
<path d="M92.1726 24.9365H66.1109V50.9982H92.1726V24.9365Z" fill="white"/>
</mask>
<g mask="url(#mask0_1_410)">
<g opacity="0.4">
<path d="M88.915 29.8231V34.7097C88.915 34.9257 88.8292 35.1329 88.6764 35.2856C88.5237 35.4383 88.3166 35.5241 88.1006 35.5241H83.214C83.0528 35.5243 82.8952 35.4766 82.7612 35.3871C82.6271 35.2976 82.5226 35.1704 82.4609 35.0215C82.3992 34.8726 82.3831 34.7087 82.4146 34.5507C82.4461 34.3926 82.5237 34.2474 82.6378 34.1335L84.7329 32.0384C83.4094 30.9277 81.5006 29.8231 79.1418 29.8231C75.4494 29.8231 73.224 32.0058 73.2026 32.0282C73.0498 32.181 72.8425 32.2669 72.6264 32.2669C72.4103 32.2669 72.203 32.181 72.0502 32.0282C71.8974 31.8754 71.8115 31.6681 71.8115 31.452C71.8115 31.2359 71.8974 31.0286 72.0502 30.8758C72.1601 30.7669 74.7826 28.1943 79.1418 28.1943C81.52 28.1943 83.838 29.1207 85.8894 30.8829L87.5243 29.2469C87.6382 29.1329 87.7834 29.0552 87.9415 29.0238C88.0996 28.9923 88.2634 29.0084 88.4123 29.0701C88.5612 29.1318 88.6884 29.2363 88.7779 29.3703C88.8674 29.5044 88.9151 29.662 88.915 29.8231ZM85.0811 43.9067C85.0597 43.9291 82.8342 46.1117 79.1418 46.1117C76.783 46.1117 74.8742 45.0072 73.5508 43.8965L75.6459 41.8014C75.7599 41.6875 75.8376 41.5423 75.8691 41.3842C75.9005 41.2262 75.8844 41.0623 75.8227 40.9134C75.761 40.7645 75.6565 40.6373 75.5225 40.5478C75.3884 40.4583 75.2309 40.4106 75.0697 40.4107H70.1831C69.9671 40.4107 69.7599 40.4965 69.6072 40.6493C69.4545 40.802 69.3687 41.0092 69.3687 41.2252V46.1117C69.3685 46.2729 69.4162 46.4305 69.5057 46.5645C69.5952 46.6986 69.7224 46.8031 69.8713 46.8648C70.0202 46.9265 70.1841 46.9426 70.3422 46.9111C70.5002 46.8796 70.6454 46.802 70.7593 46.6879L72.3943 45.052C74.4456 46.8142 76.7637 47.7406 79.1418 47.7406C83.5011 47.7406 86.1235 45.168 86.2335 45.0591C86.3863 44.9063 86.4721 44.699 86.4721 44.4829C86.4721 44.2668 86.3863 44.0595 86.2335 43.9067C86.0807 43.7538 85.8734 43.668 85.6573 43.668C85.4411 43.668 85.2339 43.7538 85.0811 43.9067Z" fill="white"/>
</g>
</g>
</g>
<rect x="130.48" y="15.2495" width="7" height="7" rx="3.5" fill="white" fill-opacity="0.4"/>
<path d="M144.012 20.6895L142.716 18.4377H142.011V20.6895H141.087V15.06H143.031C143.463 15.06 143.828 15.1356 144.125 15.2868C144.427 15.438 144.651 15.6405 144.797 15.8943C144.948 16.1481 145.024 16.4316 145.024 16.7448C145.024 17.112 144.916 17.4468 144.7 17.7492C144.489 18.0462 144.163 18.2487 143.72 18.3567L145.113 20.6895H144.012ZM142.011 17.7006H143.031C143.377 17.7006 143.636 17.6142 143.809 17.4414C143.987 17.2686 144.076 17.0364 144.076 16.7448C144.076 16.4532 143.99 16.2264 143.817 16.0644C143.644 15.897 143.382 15.8133 143.031 15.8133H142.011V17.7006ZM147.617 15.8052V17.4576H149.561V18.2109H147.617V19.9362H149.804V20.6895H146.693V15.0519H149.804V15.8052H147.617ZM156.281 15.06L154.167 20.6895H153.098L150.976 15.06H151.964L153.632 19.7418L155.309 15.06H156.281ZM158.465 15.06V20.6895H157.541V15.06H158.465ZM161.088 15.8052V17.4576H163.032V18.2109H161.088V19.9362H163.275V20.6895H160.165V15.0519H163.275V15.8052H161.088ZM172.231 15.06L170.563 20.6895H169.518L168.335 16.4289L167.08 20.6895L166.043 20.6976L164.447 15.06H165.427L166.594 19.6446L167.857 15.06H168.894L170.069 19.6203L171.243 15.06H172.231ZM174.404 15.8052V17.4576H176.348V18.2109H174.404V19.9362H176.591V20.6895H173.481V15.0519H176.591V15.8052H174.404ZM180.055 15.06C180.655 15.06 181.178 15.1761 181.627 15.4083C182.08 15.6351 182.429 15.9645 182.672 16.3965C182.92 16.8231 183.044 17.3226 183.044 17.895C183.044 18.4674 182.92 18.9642 182.672 19.3854C182.429 19.8066 182.08 20.1306 181.627 20.3574C181.178 20.5788 180.655 20.6895 180.055 20.6895H178.217V15.06H180.055ZM180.055 19.9362C180.714 19.9362 181.219 19.758 181.57 19.4016C181.921 19.0452 182.096 18.543 182.096 17.895C182.096 17.2416 181.921 16.7313 181.57 16.3641C181.219 15.9969 180.714 15.8133 180.055 15.8133H179.14V19.9362H180.055Z" fill="white" fill-opacity="0.4"/>
<rect x="128.48" y="30.6895" width="100" height="10" rx="5" fill="#D9D9D9" fill-opacity="0.09"/>
<rect x="128.48" y="48.6895" width="51" height="10" rx="5" fill="#D9D9D9" fill-opacity="0.09"/>
<rect x="0.659988" y="27.6895" width="304" height="94" rx="30" fill="#131313"/>
<rect x="1.15999" y="28.1895" width="303" height="93" rx="29.5" stroke="#292929"/>
<path d="M124.754 76.3265H129.248V77.6895H123.078V64.8521H124.754V76.3265ZM130.197 72.6061C130.197 71.5747 130.406 70.6722 130.823 69.8987C131.241 69.1128 131.812 68.505 132.536 68.0753C133.273 67.6455 134.089 67.4306 134.986 67.4306C135.87 67.4306 136.637 67.621 137.288 68.0016C137.939 68.3822 138.424 68.8611 138.743 69.4382V67.5964H140.437V77.6895H138.743V75.8108C138.411 76.4002 137.914 76.8913 137.251 77.2843C136.6 77.6649 135.839 77.8552 134.967 77.8552C134.071 77.8552 133.26 77.6342 132.536 77.1922C131.812 76.7501 131.241 76.1301 130.823 75.332C130.406 74.5338 130.197 73.6252 130.197 72.6061ZM138.743 72.6245C138.743 71.8632 138.589 71.2002 138.282 70.6354C137.975 70.0706 137.558 69.6408 137.03 69.3461C136.514 69.0391 135.943 68.8857 135.317 68.8857C134.691 68.8857 134.12 69.033 133.604 69.3277C133.089 69.6224 132.677 70.0521 132.37 70.617C132.063 71.1818 131.91 71.8448 131.91 72.6061C131.91 73.3796 132.063 74.055 132.37 74.6321C132.677 75.1969 133.089 75.6328 133.604 75.9397C134.12 76.2344 134.691 76.3818 135.317 76.3818C135.943 76.3818 136.514 76.2344 137.03 75.9397C137.558 75.6328 137.975 75.1969 138.282 74.6321C138.589 74.055 138.743 73.3858 138.743 72.6245ZM145.109 68.9778V74.9268C145.109 75.4179 145.213 75.7678 145.422 75.9766C145.631 76.173 145.993 76.2713 146.509 76.2713H147.743V77.6895H146.233C145.299 77.6895 144.599 77.4746 144.133 77.0448C143.666 76.6151 143.433 75.909 143.433 74.9268V68.9778H142.125V67.5964H143.433V65.0547H145.109V67.5964H147.743V68.9778H145.109ZM158.778 72.2562C158.778 72.5754 158.759 72.9131 158.722 73.2691H150.655C150.717 74.2637 151.054 75.0434 151.668 75.6082C152.294 76.1608 153.05 76.437 153.934 76.437C154.658 76.437 155.26 76.2713 155.739 75.9397C156.23 75.5959 156.573 75.1416 156.77 74.5768H158.575C158.305 75.5468 157.765 76.3388 156.954 76.9527C156.144 77.5544 155.137 77.8552 153.934 77.8552C152.976 77.8552 152.116 77.6403 151.355 77.2106C150.606 76.7808 150.017 76.173 149.587 75.3872C149.157 74.5891 148.942 73.6682 148.942 72.6245C148.942 71.5808 149.151 70.6661 149.569 69.8802C149.986 69.0944 150.569 68.4927 151.318 68.0753C152.08 67.6455 152.951 67.4306 153.934 67.4306C154.891 67.4306 155.739 67.6394 156.475 68.0569C157.212 68.4743 157.777 69.0514 158.17 69.7881C158.575 70.5126 158.778 71.3353 158.778 72.2562ZM157.046 71.9062C157.046 71.2677 156.905 70.7213 156.623 70.267C156.34 69.8004 155.953 69.4505 155.462 69.2172C154.983 68.9716 154.449 68.8488 153.86 68.8488C153.013 68.8488 152.288 69.119 151.687 69.6592C151.097 70.1995 150.76 70.9485 150.674 71.9062H157.046ZM164.358 77.8552C163.584 77.8552 162.891 77.7263 162.277 77.4684C161.663 77.1983 161.178 76.8299 160.822 76.3634C160.466 75.8845 160.269 75.3381 160.232 74.7242H161.964C162.013 75.2276 162.246 75.6389 162.663 75.9582C163.093 76.2774 163.652 76.437 164.339 76.437C164.978 76.437 165.481 76.2958 165.85 76.0134C166.218 75.731 166.402 75.3749 166.402 74.9452C166.402 74.5031 166.206 74.1778 165.813 73.969C165.42 73.748 164.812 73.5331 163.99 73.3244C163.241 73.1279 162.627 72.9315 162.148 72.735C161.681 72.5263 161.276 72.2255 160.932 71.8325C160.601 71.4273 160.435 70.8994 160.435 70.2486C160.435 69.7329 160.588 69.2602 160.895 68.8304C161.202 68.4007 161.638 68.063 162.203 67.8174C162.768 67.5596 163.412 67.4306 164.137 67.4306C165.254 67.4306 166.157 67.7131 166.844 68.2779C167.532 68.8427 167.9 69.6162 167.949 70.5985H166.273C166.237 70.0706 166.022 69.6469 165.629 69.3277C165.248 69.0085 164.732 68.8488 164.082 68.8488C163.48 68.8488 163.001 68.9778 162.645 69.2356C162.289 69.4935 162.111 69.8311 162.111 70.2486C162.111 70.5801 162.215 70.8564 162.424 71.0774C162.645 71.2861 162.915 71.458 163.234 71.5931C163.566 71.7159 164.02 71.8571 164.597 72.0167C165.322 72.2132 165.911 72.4096 166.365 72.6061C166.82 72.7903 167.207 73.0727 167.526 73.4533C167.857 73.834 168.029 74.3312 168.042 74.9452C168.042 75.4977 167.888 75.995 167.581 76.437C167.274 76.8791 166.838 77.229 166.273 77.4869C165.721 77.7324 165.082 77.8552 164.358 77.8552ZM172.247 68.9778V74.9268C172.247 75.4179 172.351 75.7678 172.56 75.9766C172.769 76.173 173.131 76.2713 173.647 76.2713H174.881V77.6895H173.37C172.437 77.6895 171.737 77.4746 171.271 77.0448C170.804 76.6151 170.571 75.909 170.571 74.9268V68.9778H169.263V67.5964H170.571V65.0547H172.247V67.5964H174.881V68.9778H172.247ZM180.785 72.6061C180.785 71.5747 180.994 70.6722 181.412 69.8987C181.829 69.1128 182.4 68.505 183.125 68.0753C183.861 67.6455 184.684 67.4306 185.593 67.4306C186.378 67.4306 187.109 67.6148 187.784 67.9832C188.46 68.3393 188.975 68.812 189.331 69.4014V64.0602H191.026V77.6895H189.331V75.7924C189 76.3941 188.509 76.8913 187.858 77.2843C187.207 77.6649 186.446 77.8552 185.574 77.8552C184.678 77.8552 183.861 77.6342 183.125 77.1922C182.4 76.7501 181.829 76.1301 181.412 75.332C180.994 74.5338 180.785 73.6252 180.785 72.6061ZM189.331 72.6245C189.331 71.8632 189.178 71.2002 188.871 70.6354C188.564 70.0706 188.146 69.6408 187.618 69.3461C187.103 69.0391 186.532 68.8857 185.906 68.8857C185.279 68.8857 184.708 69.033 184.193 69.3277C183.677 69.6224 183.266 70.0521 182.959 70.617C182.652 71.1818 182.498 71.8448 182.498 72.6061C182.498 73.3796 182.652 74.055 182.959 74.6321C183.266 75.1969 183.677 75.6328 184.193 75.9397C184.708 76.2344 185.279 76.3818 185.906 76.3818C186.532 76.3818 187.103 76.2344 187.618 75.9397C188.146 75.6328 188.564 75.1969 188.871 74.6321C189.178 74.055 189.331 73.3858 189.331 72.6245ZM202.862 72.2562C202.862 72.5754 202.844 72.9131 202.807 73.2691H194.74C194.801 74.2637 195.139 75.0434 195.753 75.6082C196.379 76.1608 197.134 76.437 198.018 76.437C198.743 76.437 199.344 76.2713 199.823 75.9397C200.314 75.5959 200.658 75.1416 200.855 74.5768H202.66C202.389 75.5468 201.849 76.3388 201.039 76.9527C200.228 77.5544 199.222 77.8552 198.018 77.8552C197.06 77.8552 196.201 77.6403 195.44 77.2106C194.691 76.7808 194.101 76.173 193.672 75.3872C193.242 74.5891 193.027 73.6682 193.027 72.6245C193.027 71.5808 193.236 70.6661 193.653 69.8802C194.071 69.0944 194.654 68.4927 195.403 68.0753C196.164 67.6455 197.036 67.4306 198.018 67.4306C198.976 67.4306 199.823 67.6394 200.56 68.0569C201.297 68.4743 201.861 69.0514 202.254 69.7881C202.66 70.5126 202.862 71.3353 202.862 72.2562ZM201.131 71.9062C201.131 71.2677 200.99 70.7213 200.707 70.267C200.425 69.8004 200.038 69.4505 199.547 69.2172C199.068 68.9716 198.534 68.8488 197.945 68.8488C197.097 68.8488 196.373 69.119 195.771 69.6592C195.182 70.1995 194.844 70.9485 194.758 71.9062H201.131ZM208.443 77.8552C207.669 77.8552 206.975 77.7263 206.361 77.4684C205.747 77.1983 205.262 76.8299 204.906 76.3634C204.55 75.8845 204.354 75.3381 204.317 74.7242H206.048C206.097 75.2276 206.331 75.6389 206.748 75.9582C207.178 76.2774 207.737 76.437 208.424 76.437C209.063 76.437 209.566 76.2958 209.934 76.0134C210.303 75.731 210.487 75.3749 210.487 74.9452C210.487 74.5031 210.29 74.1778 209.898 73.969C209.505 73.748 208.897 73.5331 208.074 73.3244C207.325 73.1279 206.711 72.9315 206.232 72.735C205.766 72.5263 205.361 72.2255 205.017 71.8325C204.685 71.4273 204.52 70.8994 204.52 70.2486C204.52 69.7329 204.673 69.2602 204.98 68.8304C205.287 68.4007 205.723 68.063 206.288 67.8174C206.852 67.5596 207.497 67.4306 208.222 67.4306C209.339 67.4306 210.241 67.7131 210.929 68.2779C211.617 68.8427 211.985 69.6162 212.034 70.5985H210.358C210.321 70.0706 210.106 69.6469 209.713 69.3277C209.333 69.0085 208.817 68.8488 208.166 68.8488C207.565 68.8488 207.086 68.9778 206.73 69.2356C206.374 69.4935 206.196 69.8311 206.196 70.2486C206.196 70.5801 206.3 70.8564 206.509 71.0774C206.73 71.2861 207 71.458 207.319 71.5931C207.651 71.7159 208.105 71.8571 208.682 72.0167C209.406 72.2132 209.996 72.4096 210.45 72.6061C210.904 72.7903 211.291 73.0727 211.61 73.4533C211.942 73.834 212.114 74.3312 212.126 74.9452C212.126 75.4977 211.973 75.995 211.666 76.437C211.359 76.8791 210.923 77.229 210.358 77.4869C209.805 77.7324 209.167 77.8552 208.443 77.8552ZM215.153 65.9572C214.834 65.9572 214.563 65.8467 214.342 65.6257C214.121 65.4047 214.011 65.1345 214.011 64.8153C214.011 64.496 214.121 64.2259 214.342 64.0049C214.563 63.7839 214.834 63.6734 215.153 63.6734C215.46 63.6734 215.718 63.7839 215.926 64.0049C216.147 64.2259 216.258 64.496 216.258 64.8153C216.258 65.1345 216.147 65.4047 215.926 65.6257C215.718 65.8467 215.46 65.9572 215.153 65.9572ZM215.963 67.5964V77.6895H214.287V67.5964H215.963ZM222.777 67.4306C223.649 67.4306 224.41 67.621 225.061 68.0016C225.724 68.3822 226.215 68.8611 226.534 69.4382V67.5964H228.229V77.9105C228.229 78.8314 228.032 79.6479 227.639 80.3601C227.247 81.0845 226.682 81.6493 225.945 82.0545C225.221 82.4597 224.373 82.6623 223.403 82.6623C222.077 82.6623 220.972 82.3492 220.088 81.723C219.204 81.0968 218.682 80.2434 218.523 79.1629H220.18C220.364 79.7768 220.745 80.268 221.322 80.6363C221.899 81.017 222.593 81.2073 223.403 81.2073C224.324 81.2073 225.073 80.9187 225.65 80.3416C226.24 79.7645 226.534 78.9542 226.534 77.9105V75.7924C226.203 76.3818 225.712 76.8729 225.061 77.2658C224.41 77.6588 223.649 77.8552 222.777 77.8552C221.881 77.8552 221.064 77.6342 220.328 77.1922C219.603 76.7501 219.032 76.1301 218.615 75.332C218.197 74.5338 217.988 73.6252 217.988 72.6061C217.988 71.5747 218.197 70.6722 218.615 69.8987C219.032 69.1128 219.603 68.505 220.328 68.0753C221.064 67.6455 221.881 67.4306 222.777 67.4306ZM226.534 72.6245C226.534 71.8632 226.381 71.2002 226.074 70.6354C225.767 70.0706 225.35 69.6408 224.822 69.3461C224.306 69.0391 223.735 68.8857 223.109 68.8857C222.482 68.8857 221.911 69.033 221.396 69.3277C220.88 69.6224 220.469 70.0521 220.162 70.617C219.855 71.1818 219.701 71.8448 219.701 72.6061C219.701 73.3796 219.855 74.055 220.162 74.6321C220.469 75.1969 220.88 75.6328 221.396 75.9397C221.911 76.2344 222.482 76.3818 223.109 76.3818C223.735 76.3818 224.306 76.2344 224.822 75.9397C225.35 75.6328 225.767 75.1969 226.074 74.6321C226.381 74.055 226.534 73.3858 226.534 72.6245ZM235.774 67.4122C237.002 67.4122 237.996 67.7867 238.757 68.5357C239.519 69.2724 239.899 70.3407 239.899 71.7404V77.6895H238.242V71.9799C238.242 70.973 237.99 70.2056 237.487 69.6776C236.983 69.1374 236.296 68.8672 235.424 68.8672C234.54 68.8672 233.834 69.1435 233.306 69.6961C232.79 70.2486 232.532 71.0528 232.532 72.1088V77.6895H230.856V67.5964H232.532V69.033C232.864 68.5173 233.312 68.1182 233.877 67.8358C234.454 67.5534 235.086 67.4122 235.774 67.4122Z" fill="white"/>
<path d="M128.709 91.3395V92.5907H126.221V100.689H124.687V92.5907H122.185V91.3395H128.709ZM133.058 100.811C132.358 100.811 131.726 100.654 131.161 100.34C130.596 100.017 130.152 99.5684 129.829 98.9944C129.506 98.4114 129.345 97.7387 129.345 96.9764C129.345 96.223 129.511 95.5548 129.843 94.9719C130.174 94.3889 130.627 93.9405 131.201 93.6266C131.775 93.3127 132.417 93.1557 133.125 93.1557C133.834 93.1557 134.475 93.3127 135.049 93.6266C135.623 93.9405 136.076 94.3889 136.408 94.9719C136.74 95.5548 136.906 96.223 136.906 96.9764C136.906 97.7298 136.735 98.3979 136.394 98.9809C136.053 99.5639 135.587 100.017 134.995 100.34C134.412 100.654 133.766 100.811 133.058 100.811ZM133.058 99.4787C133.453 99.4787 133.82 99.3845 134.161 99.1962C134.511 99.0078 134.793 98.7253 135.009 98.3486C135.224 97.9719 135.332 97.5145 135.332 96.9764C135.332 96.4383 135.228 95.9853 135.022 95.6176C134.816 95.2409 134.542 94.9584 134.201 94.7701C133.861 94.5817 133.493 94.4876 133.098 94.4876C132.704 94.4876 132.336 94.5817 131.995 94.7701C131.663 94.9584 131.399 95.2409 131.201 95.6176C131.004 95.9853 130.905 96.4383 130.905 96.9764C130.905 97.7746 131.107 98.3935 131.511 98.8329C131.923 99.2634 132.439 99.4787 133.058 99.4787ZM137.49 96.9495C137.49 96.2051 137.643 95.5459 137.948 94.9719C138.262 94.3979 138.683 93.9539 139.212 93.64C139.751 93.3171 140.347 93.1557 141.002 93.1557C141.486 93.1557 141.961 93.2633 142.428 93.4786C142.903 93.6849 143.28 93.9629 143.558 94.3127V90.7341H145.105V100.689H143.558V99.5728C143.307 99.9316 142.957 100.228 142.508 100.461C142.069 100.694 141.562 100.811 140.988 100.811C140.342 100.811 139.751 100.649 139.212 100.326C138.683 99.9944 138.262 99.537 137.948 98.954C137.643 98.3621 137.49 97.6939 137.49 96.9495ZM143.558 96.9764C143.558 96.4652 143.45 96.0212 143.235 95.6445C143.029 95.2678 142.755 94.9808 142.414 94.7835C142.073 94.5862 141.706 94.4876 141.311 94.4876C140.916 94.4876 140.549 94.5862 140.208 94.7835C139.867 94.9719 139.589 95.2544 139.374 95.6311C139.168 95.9988 139.064 96.4383 139.064 96.9495C139.064 97.4607 139.168 97.9091 139.374 98.2948C139.589 98.6805 139.867 98.9764 140.208 99.1827C140.558 99.38 140.925 99.4787 141.311 99.4787C141.706 99.4787 142.073 99.38 142.414 99.1827C142.755 98.9854 143.029 98.6984 143.235 98.3217C143.45 97.936 143.558 97.4876 143.558 96.9764ZM146.188 96.9495C146.188 96.2051 146.341 95.5459 146.645 94.9719C146.959 94.3979 147.381 93.9539 147.91 93.64C148.448 93.3171 149.04 93.1557 149.686 93.1557C150.269 93.1557 150.776 93.2723 151.206 93.5055C151.646 93.7297 151.995 94.0122 152.255 94.353V93.2768H153.803V100.689H152.255V99.5863C151.995 99.9361 151.641 100.228 151.193 100.461C150.744 100.694 150.233 100.811 149.659 100.811C149.022 100.811 148.439 100.649 147.91 100.326C147.381 99.9944 146.959 99.537 146.645 98.954C146.341 98.3621 146.188 97.6939 146.188 96.9495ZM152.255 96.9764C152.255 96.4652 152.148 96.0212 151.933 95.6445C151.726 95.2678 151.453 94.9808 151.112 94.7835C150.771 94.5862 150.403 94.4876 150.009 94.4876C149.614 94.4876 149.246 94.5862 148.906 94.7835C148.565 94.9719 148.287 95.2544 148.071 95.6311C147.865 95.9988 147.762 96.4383 147.762 96.9495C147.762 97.4607 147.865 97.9091 148.071 98.2948C148.287 98.6805 148.565 98.9764 148.906 99.1827C149.255 99.38 149.623 99.4787 150.009 99.4787C150.403 99.4787 150.771 99.38 151.112 99.1827C151.453 98.9854 151.726 98.6984 151.933 98.3217C152.148 97.936 152.255 97.4876 152.255 96.9764ZM162.07 93.2768L157.523 104.174H155.935L157.442 100.568L154.522 93.2768H156.231L158.316 98.9271L160.482 93.2768H162.07ZM164.489 98.8464L162.861 102.559H161.865L162.821 98.8464H164.489ZM168.08 92.2812V90.8821H170.878V100.689H169.331V92.2812H168.08ZM172.363 92.2812V90.8821H175.161V100.689H173.614V92.2812H172.363ZM177.669 100.784C177.391 100.784 177.158 100.689 176.969 100.501C176.781 100.313 176.687 100.08 176.687 99.8015C176.687 99.5235 176.781 99.2903 176.969 99.102C177.158 98.9136 177.391 98.8195 177.669 98.8195C177.938 98.8195 178.167 98.9136 178.355 99.102C178.543 99.2903 178.638 99.5235 178.638 99.8015C178.638 100.08 178.543 100.313 178.355 100.501C178.167 100.689 177.938 100.784 177.669 100.784ZM177.669 95.1333C177.391 95.1333 177.158 95.0391 176.969 94.8508C176.781 94.6625 176.687 94.4293 176.687 94.1512C176.687 93.8732 176.781 93.64 176.969 93.4517C177.158 93.2633 177.391 93.1692 177.669 93.1692C177.938 93.1692 178.167 93.2633 178.355 93.4517C178.543 93.64 178.638 93.8732 178.638 94.1512C178.638 94.4293 178.543 94.6625 178.355 94.8508C178.167 95.0391 177.938 95.1333 177.669 95.1333ZM186.049 92.2005H181.542V94.8777C181.73 94.6266 182.008 94.4158 182.376 94.2454C182.753 94.075 183.152 93.9898 183.573 93.9898C184.327 93.9898 184.937 94.1512 185.403 94.4741C185.878 94.797 186.215 95.2051 186.412 95.6983C186.618 96.1916 186.722 96.7118 186.722 97.2589C186.722 97.9226 186.591 98.5145 186.331 99.0347C186.08 99.5459 185.699 99.9495 185.188 100.246C184.686 100.541 184.067 100.689 183.331 100.689C182.354 100.689 181.569 100.447 180.977 99.963C180.385 99.4787 180.031 98.8374 179.914 98.0392H181.408C181.506 98.4607 181.726 98.797 182.067 99.0482C182.408 99.2903 182.834 99.4114 183.345 99.4114C183.982 99.4114 184.457 99.2186 184.771 98.8329C185.094 98.4473 185.255 97.936 185.255 97.2993C185.255 96.6535 185.094 96.1602 184.771 95.8194C184.448 95.4696 183.973 95.2947 183.345 95.2947C182.905 95.2947 182.533 95.4069 182.228 95.6311C181.932 95.8463 181.717 96.1423 181.582 96.519H180.129V90.8552H186.049V92.2005ZM187.898 95.658C187.898 94.1064 188.158 92.8956 188.678 92.0256C189.207 91.1467 190.113 90.7072 191.396 90.7072C192.678 90.7072 193.58 91.1467 194.1 92.0256C194.629 92.8956 194.894 94.1064 194.894 95.658C194.894 97.2275 194.629 98.4562 194.1 99.3441C193.58 100.223 192.678 100.663 191.396 100.663C190.113 100.663 189.207 100.223 188.678 99.3441C188.158 98.4562 187.898 97.2275 187.898 95.658ZM193.387 95.658C193.387 94.9315 193.338 94.3172 193.239 93.8149C193.149 93.3127 192.961 92.9046 192.674 92.5907C192.387 92.2678 191.961 92.1064 191.396 92.1064C190.831 92.1064 190.405 92.2678 190.118 92.5907C189.831 92.9046 189.638 93.3127 189.539 93.8149C189.45 94.3172 189.405 94.9315 189.405 95.658C189.405 96.4114 189.45 97.0437 189.539 97.5549C189.629 98.0661 189.817 98.4787 190.104 98.7926C190.4 99.1065 190.831 99.2634 191.396 99.2634C191.961 99.2634 192.387 99.1065 192.674 98.7926C192.97 98.4787 193.163 98.0661 193.252 97.5549C193.342 97.0437 193.387 96.4114 193.387 95.658Z" fill="white" fill-opacity="0.25"/>
<g clip-path="url(#clip2_1_410)">
<g clip-path="url(#clip3_1_410)">
<g clip-path="url(#clip4_1_410)">
<path d="M39.808 105.653C27.722 105.653 17.924 105.653 17.924 105.653V43.4185C17.924 43.4185 27.722 43.4185 39.808 43.4185H85.629C97.716 43.4185 107.514 43.4185 107.514 43.4185V105.653C107.514 105.653 97.716 105.653 85.629 105.653H39.808Z" fill="black" fill-opacity="0.89"/>
<path d="M72.821 73.7657L60.255 87.2297C60.122 87.3717 59.946 87.4667 59.754 87.5007C59.562 87.5337 59.365 87.5047 59.191 87.4157C59.018 87.3267 58.878 87.1847 58.793 87.0087C58.707 86.8337 58.682 86.6357 58.719 86.4447L60.364 78.2167L53.897 75.7887C53.759 75.7367 53.635 75.6517 53.537 75.5397C53.439 75.4287 53.371 75.2947 53.337 75.1497C53.304 75.0057 53.307 74.8547 53.346 74.7117C53.385 74.5687 53.459 74.4377 53.561 74.3307L66.127 60.8657C66.26 60.7237 66.436 60.6287 66.628 60.5957C66.82 60.5617 67.018 60.5917 67.191 60.6807C67.364 60.7697 67.504 60.9117 67.59 61.0877C67.675 61.2627 67.701 61.4607 67.663 61.6517L66.014 69.8877L72.48 72.3127C72.618 72.3647 72.741 72.4507 72.838 72.5617C72.935 72.6727 73.003 72.8057 73.036 72.9497C73.07 73.0937 73.067 73.2427 73.029 73.3847C72.99 73.5277 72.918 73.6587 72.817 73.7657H72.821Z" fill="#C858FF"/>
</g>
</g>
</g>
<rect x="124.66" y="46.6895" width="8" height="8" rx="4" fill="#C858FF"/>
<path d="M142.91 54.6895H142L138.34 49.1395V54.6895H137.43V47.7095H138.34L142 53.2495V47.7095H142.91V54.6895ZM145.971 48.4595V50.7895H148.511V51.5395H145.971V53.9395H148.811V54.6895H145.061V47.7095H148.811V48.4595H145.971ZM159.548 47.7195L157.528 54.6895H156.508L154.888 49.0795L153.208 54.6895L152.198 54.6995L150.248 47.7195H151.218L152.738 53.6295L154.418 47.7195H155.438L157.038 53.6095L158.568 47.7195H159.548Z" fill="#C858FF"/>
</g>
<defs>
<clipPath id="clip0_1_410">
<rect width="324" height="124" fill="white"/>
</clipPath>
<clipPath id="clip1_1_410">
<rect width="74" height="52" fill="white" transform="translate(42.48 11.6895)"/>
</clipPath>
<clipPath id="clip2_1_410">
<rect x="17.66" y="42.6895" width="90" height="63" rx="27" fill="white"/>
</clipPath>
<clipPath id="clip3_1_410">
<rect width="90" height="63" fill="white" transform="translate(17.66 42.6895)"/>
</clipPath>
<clipPath id="clip4_1_410">
<rect width="90" height="63" fill="white" transform="translate(17.66 42.6895)"/>
</clipPath>
</defs>
</svg>
