<svg width="331" height="259" viewBox="0 0 331 259" fill="none" xmlns="http://www.w3.org/2000/svg">
<path d="M4.84396 254.501C15.1122 241.66 44.6332 217.263 60.0355 213.411C75.4378 209.559 89.5566 213.411 101.108 204.423C112.66 195.434 112.66 185.162 125.495 182.594C138.33 180.026 152.449 198.002 167.852 192.866C183.254 187.73 192.238 167.186 197.373 141.505C202.507 115.824 201.344 42.5008 251.344 42.5008C301.344 42.5008 311.844 -38.5 311.844 -56" stroke="#292929" stroke-width="4.66666"/>
<g clip-path="url(#clip0_18_6)">
<path d="M3.83401 255.5C14.102 242.66 43.623 218.263 59.026 214.411C74.428 210.559 88.547 214.411 100.098 205.422C111.65 196.434 111.65 186.162 124.485 183.594C137.32 181.025 151.439 199.002 166.842 193.866C182.244 188.73 197.112 162.945 198.667 116.667" stroke="#C859FF" stroke-opacity="0.37" stroke-width="4.66666" stroke-miterlimit="10"/>
</g>
<rect x="191" y="109" width="16" height="16" rx="8" fill="#C858FF"/>
<rect x="175" y="92" width="49" height="49" rx="24.5" fill="#C858FF" fill-opacity="0.15"/>
<g filter="url(#filter0_f_18_6)">
<rect x="116" y="26" width="166" height="174" rx="83" fill="#C858FF" fill-opacity="0.06"/>
</g>
<path d="M20.6486 194.389V193.27L26.3406 185.389L28.1082 185.389V193.108L29.7298 193.108V194.389L28.1082 194.389V197L26.6487 197V194.389L20.6486 194.389ZM26.7136 186.93L22.3513 193.108L26.7136 193.108V186.93ZM38.1197 186.557L32.4278 186.557V190.254C32.6764 189.908 33.044 189.627 33.5305 189.411C34.017 189.184 34.5413 189.07 35.1035 189.07C36.0008 189.07 36.7305 189.259 37.2927 189.638C37.8549 190.005 38.2549 190.486 38.4927 191.081C38.7414 191.665 38.8657 192.286 38.8657 192.946C38.8657 193.724 38.7198 194.422 38.4279 195.038C38.136 195.654 37.6873 196.141 37.0819 196.497C36.4873 196.854 35.7467 197.032 34.8603 197.032C33.7251 197.032 32.8062 196.741 32.1035 196.157C31.4008 195.573 30.9737 194.795 30.8224 193.822L32.2656 193.822C32.4062 194.438 32.7035 194.919 33.1575 195.265C33.6116 195.611 34.1846 195.784 34.8765 195.784C35.7305 195.784 36.3738 195.53 36.8062 195.022C37.2387 194.503 37.4549 193.822 37.4549 192.978C37.4549 192.135 37.2387 191.486 36.8062 191.032C36.3738 190.567 35.7359 190.335 34.8927 190.335C34.3197 190.335 33.817 190.476 33.3846 190.757C32.9629 191.027 32.6548 191.4 32.4602 191.876L31.0656 191.876V185.259L38.1197 185.259V186.557Z" fill="white" fill-opacity="0.08"/>
<path d="M70.9993 187.52C71.077 186.498 71.4711 185.699 72.1817 185.121C72.8923 184.544 73.8139 184.255 74.9464 184.255C75.7014 184.255 76.351 184.394 76.895 184.672C77.4502 184.938 77.8665 185.305 78.1441 185.771C78.4328 186.237 78.5771 186.765 78.5771 187.353C78.5771 188.041 78.3773 188.635 77.9776 189.135C77.589 189.635 77.0782 189.957 76.4453 190.101V190.184C77.167 190.362 77.7388 190.712 78.1608 191.234C78.5827 191.755 78.7936 192.438 78.7936 193.282C78.7936 193.915 78.6493 194.487 78.3606 194.998C78.0719 195.497 77.6389 195.891 77.0616 196.18C76.4842 196.469 75.7902 196.613 74.9797 196.613C73.8028 196.613 72.8368 196.308 72.0818 195.697C71.3268 195.075 70.9049 194.198 70.816 193.066L72.2817 193.066C72.3594 193.732 72.6314 194.276 73.0977 194.698C73.5641 195.12 74.1858 195.331 74.9631 195.331C75.7403 195.331 76.3288 195.131 76.7285 194.731C77.1393 194.32 77.3447 193.793 77.3447 193.149C77.3447 192.316 77.0671 191.717 76.512 191.35C75.9568 190.984 75.1185 190.801 73.9971 190.801L73.614 190.801V189.535L74.0137 189.535C75.0352 189.524 75.8069 189.357 76.3288 189.035C76.8506 188.702 77.1115 188.191 77.1115 187.503C77.1115 186.914 76.9172 186.443 76.5286 186.087C76.1511 185.732 75.607 185.554 74.8964 185.554C74.2081 185.554 73.6529 185.732 73.231 186.087C72.8091 186.443 72.5592 186.92 72.4815 187.52L70.9993 187.52ZM87.9578 185.804L82.112 185.804V189.601C82.3673 189.246 82.7449 188.957 83.2445 188.735C83.7441 188.502 84.2826 188.386 84.86 188.386C85.7816 188.386 86.531 188.58 87.1084 188.969C87.6857 189.346 88.0966 189.84 88.3408 190.451C88.5962 191.05 88.7239 191.689 88.7239 192.366C88.7239 193.166 88.574 193.882 88.2742 194.515C87.9744 195.147 87.5136 195.647 86.8919 196.013C86.2812 196.38 85.5206 196.563 84.6102 196.563C83.4443 196.563 82.5006 196.263 81.7789 195.664C81.0572 195.064 80.6186 194.265 80.4632 193.265L81.9454 193.265C82.0898 193.898 82.3951 194.392 82.8614 194.748C83.3278 195.103 83.9162 195.281 84.6268 195.281C85.504 195.281 86.1646 195.02 86.6087 194.498C87.0529 193.965 87.2749 193.265 87.2749 192.399C87.2749 191.533 87.0529 190.867 86.6087 190.401C86.1646 189.923 85.5095 189.685 84.6435 189.685C84.055 189.685 83.5387 189.829 83.0946 190.118C82.6616 190.395 82.3451 190.778 82.1453 191.267L80.713 191.267V184.472L87.9578 184.472V185.804Z" fill="white" fill-opacity="0.08"/>
<path d="M120.874 195.293C122.309 194.14 123.433 193.197 124.247 192.463C125.06 191.717 125.744 190.943 126.297 190.141C126.862 189.327 127.145 188.531 127.145 187.751C127.145 187.017 126.964 186.441 126.602 186.023C126.252 185.593 125.682 185.379 124.891 185.379C124.122 185.379 123.524 185.622 123.094 186.107C122.676 186.582 122.45 187.22 122.416 188.022L120.925 188.022C120.97 186.757 121.354 185.78 122.078 185.091C122.801 184.401 123.733 184.057 124.874 184.057C126.037 184.057 126.958 184.379 127.636 185.023C128.325 185.667 128.67 186.554 128.67 187.684C128.67 188.621 128.387 189.536 127.823 190.429C127.269 191.31 126.636 192.09 125.924 192.768C125.213 193.434 124.303 194.214 123.196 195.106L129.026 195.106V196.394L120.874 196.394V195.293ZM138.061 185.616L132.113 185.616V189.48C132.372 189.118 132.757 188.825 133.265 188.599C133.773 188.361 134.321 188.243 134.909 188.243C135.847 188.243 136.609 188.44 137.197 188.836C137.784 189.22 138.202 189.723 138.451 190.344C138.711 190.954 138.841 191.604 138.841 192.293C138.841 193.107 138.688 193.835 138.383 194.479C138.078 195.123 137.609 195.632 136.976 196.004C136.355 196.377 135.581 196.564 134.655 196.564C133.468 196.564 132.508 196.259 131.774 195.649C131.039 195.038 130.593 194.225 130.435 193.208L131.943 193.208C132.09 193.852 132.401 194.355 132.875 194.716C133.35 195.078 133.949 195.259 134.672 195.259C135.564 195.259 136.236 194.993 136.688 194.462C137.14 193.92 137.366 193.208 137.366 192.327C137.366 191.446 137.14 190.768 136.688 190.293C136.236 189.808 135.57 189.565 134.689 189.565C134.09 189.565 133.564 189.711 133.113 190.005C132.672 190.288 132.35 190.677 132.147 191.175L130.689 191.175V184.26L138.061 184.26V185.616Z" fill="white" fill-opacity="0.08"/>
<path d="M172.971 185.562V184.01L176.486 184.01V197.53L174.766 197.53V185.562L172.971 185.562ZM187.47 185.487L180.906 185.487V189.751C181.193 189.352 181.617 189.028 182.178 188.778C182.739 188.516 183.343 188.385 183.992 188.385C185.026 188.385 185.868 188.604 186.516 189.04C187.165 189.464 187.626 190.019 187.9 190.704C188.187 191.377 188.33 192.094 188.33 192.855C188.33 193.752 188.162 194.556 187.825 195.267C187.489 195.978 186.971 196.539 186.273 196.95C185.587 197.361 184.734 197.567 183.711 197.567C182.402 197.567 181.343 197.231 180.532 196.557C179.722 195.884 179.229 194.987 179.055 193.865L180.719 193.865C180.881 194.575 181.224 195.13 181.748 195.529C182.271 195.928 182.932 196.127 183.73 196.127C184.715 196.127 185.457 195.834 185.955 195.248C186.454 194.65 186.703 193.865 186.703 192.892C186.703 191.92 186.454 191.172 185.955 190.648C185.457 190.112 184.721 189.844 183.749 189.844C183.088 189.844 182.508 190.006 182.01 190.33C181.523 190.642 181.168 191.072 180.944 191.621L179.335 191.621V183.991L187.47 183.991V185.487Z" fill="white" fill-opacity="0.08"/>
<path d="M237.79 185.487L231.226 185.487V189.751C231.513 189.352 231.937 189.028 232.498 188.778C233.059 188.516 233.664 188.385 234.312 188.385C235.347 188.385 236.188 188.604 236.836 189.04C237.485 189.464 237.946 190.019 238.22 190.704C238.507 191.377 238.65 192.094 238.65 192.855C238.65 193.752 238.482 194.556 238.145 195.267C237.809 195.978 237.291 196.539 236.593 196.95C235.908 197.361 235.054 197.567 234.031 197.567C232.722 197.567 231.663 197.231 230.852 196.557C230.042 195.884 229.55 194.987 229.375 193.865L231.039 193.865C231.201 194.575 231.544 195.13 232.068 195.529C232.592 195.928 233.252 196.127 234.05 196.127C235.035 196.127 235.777 195.834 236.275 195.248C236.774 194.65 237.023 193.865 237.023 192.892C237.023 191.92 236.774 191.172 236.275 190.648C235.777 190.112 235.041 189.844 234.069 189.844C233.408 189.844 232.828 190.006 232.33 190.33C231.844 190.642 231.488 191.072 231.264 191.621L229.656 191.621V183.991L237.79 183.991V185.487Z" fill="white" fill-opacity="0.08"/>
<path d="M281.169 190.629C281.169 188.485 281.518 186.815 282.217 185.618C282.915 184.409 284.136 183.804 285.882 183.804C287.615 183.804 288.83 184.409 289.528 185.618C290.226 186.815 290.576 188.485 290.576 190.629C290.576 192.811 290.226 194.507 289.528 195.716C288.83 196.925 287.615 197.53 285.882 197.53C284.136 197.53 282.915 196.925 282.217 195.716C281.518 194.507 281.169 192.811 281.169 190.629ZM288.893 190.629C288.893 189.545 288.818 188.629 288.668 187.881C288.531 187.12 288.238 186.509 287.789 186.048C287.353 185.587 286.717 185.356 285.882 185.356C285.034 185.356 284.386 185.587 283.937 186.048C283.501 186.509 283.208 187.12 283.058 187.881C282.921 188.629 282.852 189.545 282.852 190.629C282.852 191.751 282.921 192.693 283.058 193.453C283.208 194.214 283.501 194.825 283.937 195.286C284.386 195.747 285.034 195.978 285.882 195.978C286.717 195.978 287.353 195.747 287.789 195.286C288.238 194.825 288.531 194.214 288.668 193.453C288.818 192.693 288.893 191.751 288.893 190.629Z" fill="white" fill-opacity="0.08"/>
<defs>
<filter id="filter0_f_18_6" x="84.8889" y="-5.1111" width="228.222" height="236.222" filterUnits="userSpaceOnUse" color-interpolation-filters="sRGB">
<feFlood flood-opacity="0" result="BackgroundImageFix"/>
<feBlend mode="normal" in="SourceGraphic" in2="BackgroundImageFix" result="shape"/>
<feGaussianBlur stdDeviation="15.5555" result="effect1_foregroundBlur_18_6"/>
</filter>
<clipPath id="clip0_18_6">
<rect width="202" height="146" fill="white" transform="translate(0 113)"/>
</clipPath>
</defs>
</svg>
