<svg width="1513" height="989" viewBox="0 0 1513 989" fill="none" xmlns="http://www.w3.org/2000/svg">
<g clip-path="url(#clip0_1_129)">
<path opacity="0.7" d="M-250.269 14.8157H-298.211V62.7575H-250.269M-250.269 14.8157V62.7575M-250.269 14.8157H-202.328M-250.269 62.7575L-250.268 110.699M-250.268 110.699H-298.21M-250.268 110.699V158.64M-250.268 110.699H-202.327M-250.268 62.7567H-202.327H-154.386M-298.21 62.7567V110.699M-298.21 110.699V158.64M-250.268 158.64H-298.21M-250.268 158.64V206.581M-250.268 158.64H-202.327M-202.327 110.699V62.7575V14.8157H-154.386M-202.327 110.699V158.64M-202.327 110.699H-154.386M-298.21 158.64V206.581M-250.268 206.581H-298.21M-250.268 206.581V254.523M-250.268 206.581H-202.327M-202.327 158.64V206.581M-202.327 158.64H-154.386M-298.21 206.581V254.523M-250.268 254.523H-298.21M-250.268 254.523V302.464M-250.268 254.523H-202.327M-202.327 206.581V254.523M-202.327 206.581H-154.386M-298.21 254.523V302.464M-250.268 302.464H-298.21M-250.268 302.464V350.406M-250.268 302.464H-202.327M-202.327 254.523V302.464M-202.327 254.523H-154.386M-298.21 302.464V350.406M-250.268 350.406H-298.21M-250.268 350.406V398.347M-250.268 350.406H-202.327M-202.327 302.464V350.406M-202.327 302.464H-154.386M-298.21 350.406V398.347M-250.268 398.347H-298.21M-250.268 398.347V446.289M-250.268 398.347H-202.327M-202.327 350.406V398.347M-202.327 350.406H-154.386M-298.21 398.347V446.289M-250.268 446.289H-298.21M-250.268 446.289V494.23M-250.268 446.289H-202.327M-202.327 398.347V446.289M-202.327 398.347H-154.386M-298.21 446.289V494.23M-250.268 494.23H-298.21M-250.268 494.23V542.172M-250.268 494.23H-202.327V446.289M-202.327 446.289H-154.386M-298.21 494.23V542.172M-250.268 542.172H-298.21M-250.268 542.172V590.113M-250.268 542.172H-202.327M-298.21 542.172V590.113M-250.268 590.113H-298.21M-250.268 590.113V638.054M-250.268 590.113H-202.327M-298.21 590.113V638.054M-250.268 638.054H-298.21M-250.268 638.054V685.996M-250.268 638.054H-202.327M-298.21 638.054V685.996M-250.268 685.996H-298.21M-250.268 685.996V733.937M-250.268 685.996H-202.327M-298.21 685.996V733.937M-250.268 733.937H-298.21M-250.268 733.937V781.881M-250.268 733.937H-202.327M-298.21 733.937V781.881M-250.268 781.881H-298.21M-250.268 781.881V829.823M-250.268 781.881H-202.327M-298.21 781.881V829.823M-250.268 829.823H-298.21M-250.268 829.823V877.764M-250.268 829.823H-202.327M-298.21 829.823V877.764M-250.268 877.764H-298.21M-250.268 877.764V925.706M-250.268 877.764H-202.327M-298.21 877.764V925.706M-250.268 925.706H-298.21M-250.268 925.706V973.641M-250.268 925.706H-202.327M-298.21 925.706V973.641H-250.268M-250.268 973.641H-202.327M-202.328 542.172V494.23H-154.387M-202.328 542.172V590.113M-202.328 542.172H-154.387M-154.387 494.23V446.289M-154.387 494.23V542.172M-154.387 494.23H-106.445M-202.328 590.113V638.054M-202.328 590.113H-154.387M-154.387 542.172V590.113M-154.387 542.172H-106.445M-202.328 638.054V685.996M-202.328 638.054H-154.387M-154.387 590.113V638.054M-154.387 590.113H-106.445M-202.328 685.996V733.937M-202.328 685.996H-154.387M-154.387 638.054V685.996M-154.387 638.054H-106.445M-202.328 733.937V781.881M-202.328 733.937H-154.387M-154.387 685.996V733.937M-154.387 685.996H-106.445M-202.328 781.881V829.823M-202.328 781.881H-154.387M-154.387 733.937V781.881M-154.387 733.937H-106.445M-202.328 829.823V877.764M-202.328 829.823H-154.387M-154.387 781.881V829.823M-154.387 781.881H-106.445M-202.328 877.764V925.706M-202.328 877.764H-154.387M-154.387 829.823V877.764M-154.387 829.823H-106.445M-202.328 925.706V973.641H-154.387M-202.328 925.706H-154.387M-154.387 877.764V925.706M-154.387 877.764H-106.445M-154.387 925.706V973.641M-154.387 925.706H-106.445M-154.387 973.641H-106.445M-106.445 14.8157H-154.387V62.7575V110.699M-106.445 14.8157V62.7575V110.699M-106.445 14.8157H-58.504M-154.387 110.699V158.64M-154.387 110.699H-106.445M-154.387 62.7567H-106.445H-58.504H-10.5622H37.3789H85.3207H133.262H181.204H229.145H277.086H325.028H372.969H420.91H468.849H516.791H564.733H612.675H660.616H708.558H756.5H804.442H852.384H900.325H948.267H996.209H1044.15H1092.09H1140.03H1187.98H1235.92H1283.85H1331.79H1379.74H1427.68H1475.62H1523.56H1571.5H1619.45H1667.39H1715.33H1763.27H1811.21M-154.387 158.64V206.581M-154.387 158.64H-106.445M-106.445 110.699V158.64M-106.445 110.699H-58.504M-154.387 206.581V254.523M-154.387 206.581H-106.445M-106.445 158.64V206.581M-106.445 158.64H-58.504M-154.387 254.523V302.464M-154.387 254.523H-106.445M-106.445 206.581V254.523M-106.445 206.581H-58.504M-154.387 302.464V350.406M-154.387 302.464H-106.445M-106.445 254.523V302.464M-106.445 254.523H-58.504M-154.387 350.406V398.347M-154.387 350.406H-106.445M-106.445 302.464V350.406M-106.445 302.464H-58.504M-154.387 398.347V446.289M-154.387 398.347H-106.445M-106.445 350.406V398.347M-106.445 350.406H-58.504M-154.387 446.289H-106.445M-106.445 398.347V446.289M-106.445 398.347H-58.504M-106.445 446.289V494.23M-106.445 446.289H-58.504M-106.445 494.23V542.172M-106.445 494.23H-58.504M-106.445 542.172V590.113M-106.445 542.172H-58.504M-106.445 590.113V638.054M-106.445 590.113H-58.504M-106.445 638.054V685.996M-106.445 638.054H-58.504M-106.445 685.996V733.937M-106.445 685.996H-58.504M-106.445 733.937V781.881M-106.445 733.937H-58.504M-106.445 781.881V829.823M-106.445 781.881H-58.504M-106.445 829.823V877.764M-106.445 829.823H-58.504M-106.445 877.764V925.706M-106.445 877.764H-58.504M-106.445 925.706V973.641M-106.445 925.706H-58.504M-106.445 973.641H-58.504M-58.504 14.8157V62.7575V110.699M-58.504 14.8157H-10.5622M-58.504 110.699V158.64M-58.504 110.699H-10.5622M-58.504 158.64V206.581M-58.504 158.64H-10.5622M-58.504 206.581V254.523M-58.504 206.581H-10.5622M-58.504 254.523V302.464M-58.504 254.523H-10.5622M-58.504 302.464V350.406M-58.504 302.464H-10.5622M-58.504 350.406V398.347M-58.504 350.406H-10.5622M-58.504 398.347V446.289M-58.504 398.347H-10.5622M-58.504 446.289V494.23M-58.504 446.289H-10.5622M-58.504 494.23V542.172M-58.504 494.23H-10.5622M-58.504 542.172V590.113M-58.504 542.172H-10.5622M-58.504 590.113V638.054M-58.504 590.113H-10.5622M-58.504 638.054V685.996M-58.504 638.054H-10.5622M-58.504 685.996V733.937M-58.504 685.996H-10.5622M-58.504 733.937V781.881M-58.504 733.937H-10.5622M-58.504 781.881V829.823M-58.504 781.881H-10.5622M-58.504 829.823V877.764M-58.504 829.823H-10.5622M-58.504 877.764V925.706M-58.504 877.764H-10.5622M-58.504 925.706V973.641M-58.504 925.706H-10.5622M-58.504 973.641H-10.5622M-10.5622 14.8157V62.7575V110.699M-10.5622 14.8157H37.3789M-10.5622 110.699V158.64M-10.5622 110.699H37.3789M-10.5622 158.64V206.581M-10.5622 158.64H37.3789M-10.5622 206.581V254.523M-10.5622 206.581H37.3789M-10.5622 254.523V302.464M-10.5622 254.523H37.3789M-10.5622 302.464V350.406M-10.5622 302.464H37.3789M-10.5622 350.406V398.347M-10.5622 350.406H37.3789M-10.5622 398.347V446.289M-10.5622 398.347H37.3789M-10.5622 446.289V494.23M-10.5622 446.289H37.3789M-10.5622 494.23V542.172M-10.5622 494.23H37.3789M-10.5622 542.172V590.113M-10.5622 542.172H37.3789M-10.5622 590.113V638.054M-10.5622 590.113H37.3789M-10.5622 638.054V685.996M-10.5622 638.054H37.3789M-10.5622 685.996V733.937M-10.5622 685.996H37.3789M-10.5622 733.937V781.881M-10.5622 733.937H37.3789M-10.5622 781.881V829.823M-10.5622 781.881H37.3789M-10.5622 829.823V877.764M-10.5622 829.823H37.3789M-10.5622 877.764V925.706M-10.5622 877.764H37.3789M-10.5622 925.706V973.641M-10.5622 925.706H37.3789M-10.5622 973.641H37.3789M37.3789 14.8157V62.7575V110.699M37.3789 14.8157H85.3207M37.3789 110.699V158.64M37.3789 110.699H85.3207M37.3789 158.64V206.581M37.3789 158.64H85.3207M37.3789 206.581V254.523M37.3789 206.581H85.3207M37.3789 254.523V302.464M37.3789 254.523H85.3207M37.3789 302.464V350.406M37.3789 302.464H85.3207M37.3789 350.406V398.347M37.3789 350.406H85.3207M37.3789 398.347V446.289M37.3789 398.347H85.3207M37.3789 446.289V494.23M37.3789 446.289H85.3207M37.3789 494.23V542.172M37.3789 494.23H85.3207M37.3789 542.172V590.113M37.3789 542.172H85.3207M37.3789 590.113V638.054M37.3789 590.113H85.3207M37.3789 638.054V685.996M37.3789 638.054H85.3207M37.3789 685.996V733.937M37.3789 685.996H85.3207M37.3789 733.937V781.881M37.3789 733.937H85.3207M37.3789 781.881V829.823M37.3789 781.881H85.3207M37.3789 829.823V877.764M37.3789 829.823H85.3207M37.3789 877.764V925.706M37.3789 877.764H85.3207M37.3789 925.706V973.641M37.3789 925.706H85.3207M37.3789 973.641H85.3207M85.3207 14.8157V62.7575V110.699M85.3207 14.8157H133.262M85.3207 110.699V158.64M85.3207 110.699H133.262M85.3207 158.64V206.581M85.3207 158.64H133.262M85.3207 206.581V254.523M85.3207 206.581H133.262M85.3207 254.523V302.464M85.3207 254.523H133.262M85.3207 302.464V350.406M85.3207 302.464H133.262M85.3207 350.406V398.347M85.3207 350.406H133.262M85.3207 398.347V446.289M85.3207 398.347H133.262M85.3207 446.289V494.23M85.3207 446.289H133.262M85.3207 494.23V542.172M85.3207 494.23H133.262M85.3207 542.172V590.113M85.3207 542.172H133.262M85.3207 590.113V638.054M85.3207 590.113H133.262M85.3207 638.054V685.996M85.3207 638.054H133.262M85.3207 685.996V733.937M85.3207 685.996H133.262M85.3207 733.937V781.881M85.3207 733.937H133.262M85.3207 781.881V829.823M85.3207 781.881H133.262M85.3207 829.823V877.764M85.3207 829.823H133.262M85.3207 877.764V925.706M85.3207 877.764H133.262M85.3207 925.706V973.641M85.3207 925.706H133.262M85.3207 973.641H133.262M133.262 14.8157V62.7575V110.699M133.262 14.8157H181.204M133.262 110.699V158.64M133.262 110.699H181.204M133.262 158.64V206.581M133.262 158.64H181.204M133.262 206.581V254.523M133.262 206.581H181.204M133.262 254.523V302.464M133.262 254.523H181.204M133.262 302.464V350.406M133.262 302.464H181.204M133.262 350.406V398.347M133.262 350.406H181.204M133.262 398.347V446.289M133.262 398.347H181.204M133.262 446.289V494.23M133.262 446.289H181.204M133.262 494.23V542.172M133.262 494.23H181.204M133.262 542.172V590.113M133.262 542.172H181.204M133.262 590.113V638.054M133.262 590.113H181.204M133.262 638.054V685.996M133.262 638.054H181.204M133.262 685.996V733.937M133.262 685.996H181.204M133.262 733.937V781.881M133.262 733.937H181.204M133.262 781.881V829.823M133.262 781.881H181.204M133.262 829.823V877.764M133.262 829.823H181.204M133.262 877.764V925.706M133.262 877.764H181.204M133.262 925.706V973.641M133.262 925.706H181.204M133.262 973.641H181.204M181.204 14.8157V62.7575V110.699M181.204 14.8157H229.145M181.204 110.699V158.64M181.204 110.699H229.145M181.204 158.64V206.581M181.204 158.64H229.145M181.204 206.581V254.523M181.204 206.581H229.145M181.204 254.523V302.464M181.204 254.523H229.145M181.204 302.464V350.406M181.204 302.464H229.145M181.204 350.406V398.347M181.204 350.406H229.145M181.204 398.347V446.289M181.204 398.347H229.145M181.204 446.289V494.23M181.204 446.289H229.145M181.204 494.23V542.172M181.204 494.23H229.145M181.204 542.172V590.113M181.204 542.172H229.145M181.204 590.113V638.054M181.204 590.113H229.145M181.204 638.054V685.996M181.204 638.054H229.145M181.204 685.996V733.937M181.204 685.996H229.145M181.204 733.937V781.881M181.204 733.937H229.145M181.204 781.881V829.823M181.204 781.881H229.145M181.204 829.823V877.764M181.204 829.823H229.145M181.204 877.764V925.706M181.204 877.764H229.145M181.204 925.706V973.641M181.204 925.706H229.145M181.204 973.641H229.145M229.145 14.8157V62.7575V110.699M229.145 14.8157H277.086M229.145 110.699V158.64M229.145 110.699H277.086M229.145 158.64V206.581M229.145 158.64H277.086M229.145 206.581V254.523M229.145 206.581H277.086M229.145 254.523V302.464M229.145 254.523H277.086M229.145 302.464V350.406M229.145 302.464H277.086M229.145 350.406V398.347M229.145 350.406H277.086M229.145 398.347V446.289M229.145 398.347H277.086M229.145 446.289V494.23M229.145 446.289H277.086M229.145 494.23V542.172M229.145 494.23H277.086M229.145 542.172V590.113M229.145 542.172H277.086M229.145 590.113V638.054M229.145 590.113H277.086M229.145 638.054V685.996M229.145 638.054H277.086M229.145 685.996V733.937M229.145 685.996H277.086M229.145 733.937V781.881M229.145 733.937H277.086M229.145 781.881V829.823M229.145 781.881H277.086M229.145 829.823V877.764M229.145 829.823H277.086M229.145 877.764V925.706M229.145 877.764H277.086M229.145 925.706V973.641M229.145 925.706H277.086M229.145 973.641H277.086M277.086 14.8157V62.7575V110.699M277.086 14.8157H325.028M277.086 110.699V158.64M277.086 110.699H325.028M277.086 158.64V206.581M277.086 158.64H325.028M277.086 206.581V254.523M277.086 206.581H325.028M277.086 254.523V302.464M277.086 254.523H325.028M277.086 302.464V350.406M277.086 302.464H325.028M277.086 350.406V398.347M277.086 350.406H325.028M277.086 398.347V446.289M277.086 398.347H325.028M277.086 446.289V494.23M277.086 446.289H325.028M277.086 494.23V542.172M277.086 494.23H325.028M277.086 542.172V590.113M277.086 542.172H325.028M277.086 590.113V638.054M277.086 590.113H325.028M277.086 638.054V685.996M277.086 638.054H325.028M277.086 685.996V733.937M277.086 685.996H325.028M277.086 733.937V781.881M277.086 733.937H325.028M277.086 781.881V829.823M277.086 781.881H325.028M277.086 829.823V877.764M277.086 829.823H325.028M277.086 877.764V925.706M277.086 877.764H325.028M277.086 925.706V973.641M277.086 925.706H325.028M277.086 973.641H325.028M325.028 14.8157V62.7575V110.699M325.028 14.8157H372.969M325.028 110.699V158.64M325.028 110.699H372.969M325.028 158.64V206.581M325.028 158.64H372.969M325.028 206.581V254.523M325.028 206.581H372.969M325.028 254.523V302.464M325.028 254.523H372.969M325.028 302.464V350.406M325.028 302.464H372.969M325.028 350.406V398.347M325.028 350.406H372.969M325.028 398.347V446.289M325.028 398.347H372.969M325.028 446.289V494.23M325.028 446.289H372.969M325.028 494.23V542.172M325.028 494.23H372.969M325.028 542.172V590.113M325.028 542.172H372.969M325.028 590.113V638.054M325.028 590.113H372.969M325.028 638.054V685.996M325.028 638.054H372.969M325.028 685.996V733.937M325.028 685.996H372.969M325.028 733.937V781.881M325.028 733.937H372.969M325.028 781.881V829.823M325.028 781.881H372.969M325.028 829.823V877.764M325.028 829.823H372.969M325.028 877.764V925.706M325.028 877.764H372.969M325.028 925.706V973.641M325.028 925.706H372.969M325.028 973.641H372.969M372.969 14.8157V62.7575V110.699M372.969 14.8157H420.91M372.969 110.699V158.64M372.969 110.699H420.91M372.969 158.64V206.581M372.969 158.64H420.91M372.969 206.581V254.523M372.969 206.581H420.91M372.969 254.523V302.464M372.969 254.523H420.91M372.969 302.464V350.406M372.969 302.464H420.91M372.969 350.406V398.347M372.969 350.406H420.91M372.969 398.347V446.289M372.969 398.347H420.91M372.969 446.289V494.23M372.969 446.289H420.91M372.969 494.23V542.172M372.969 494.23H420.91M372.969 542.172V590.113M372.969 542.172H420.91M372.969 590.113V638.054M372.969 590.113H420.91M372.969 638.054V685.996M372.969 638.054H420.91M372.969 685.996V733.937M372.969 685.996H420.91M372.969 733.937V781.881M372.969 733.937H420.91M372.969 781.881V829.823M372.969 781.881H420.91M372.969 829.823V877.764M372.969 829.823H420.91M372.969 877.764V925.706M372.969 877.764H420.91M372.969 925.706V973.641M372.969 925.706H420.91M372.969 973.641H420.91M420.91 14.8157V62.7575V110.699M420.91 14.8157H468.849M420.91 110.699V158.64M420.91 110.699H468.849M420.91 158.64V206.581M420.91 158.64H468.849M420.91 206.581V254.523M420.91 206.581H468.849M420.91 254.523V302.464M420.91 254.523H468.849M420.91 302.464V350.406M420.91 302.464H468.849M420.91 350.406V398.347M420.91 350.406H468.849M420.91 398.347V446.289M420.91 398.347H468.849M420.91 446.289V494.23M420.91 446.289H468.849M420.91 494.23V542.172M420.91 494.23H468.849M420.91 542.172V590.113M420.91 542.172H468.849M420.91 590.113V638.054M420.91 590.113H468.849M420.91 638.054V685.996M420.91 638.054H468.849M420.91 685.996V733.937M420.91 685.996H468.849M420.91 733.937V781.881M420.91 733.937H468.849M420.91 781.881V829.823M420.91 781.881H468.849M420.91 829.823V877.764M420.91 829.823H468.849M420.91 877.764V925.706M420.91 877.764H468.849M420.91 925.706V973.641M420.91 925.706H468.849M420.91 973.641H468.849M468.849 14.8157V62.7575V110.699M468.849 14.8157H516.791M468.849 110.699V158.64M468.849 110.699H516.791M468.849 158.64V206.581M468.849 158.64H516.791M468.849 206.581V254.523M468.849 206.581H516.791M468.849 254.523V302.464M468.849 254.523H516.791M468.849 302.464V350.406M468.849 302.464H516.791M468.849 350.406V398.347M468.849 350.406H516.791M468.849 398.347V446.289M468.849 398.347H516.791M468.849 446.289V494.23M468.849 446.289H516.791M468.849 494.23V542.172M468.849 494.23H516.791M468.849 542.172V590.113M468.849 542.172H516.791M468.849 590.113V638.054M468.849 590.113H516.791M468.849 638.054V685.996M468.849 638.054H516.791M468.849 685.996V733.937M468.849 685.996H516.791M468.849 733.937V781.881M468.849 733.937H516.791M468.849 781.881V829.823M468.849 781.881H516.791M468.849 829.823V877.764M468.849 829.823H516.791M468.849 877.764V925.706M468.849 877.764H516.791M468.849 925.706V973.641M468.849 925.706H516.791M468.849 973.641H516.791M516.791 14.8157V62.7575V110.699M516.791 14.8157H564.733M516.791 110.699V158.64M516.791 110.699H564.733M516.791 158.64V206.581M516.791 158.64H564.733M516.791 206.581V254.523M516.791 206.581H564.733M516.791 254.523V302.464M516.791 254.523H564.733M516.791 302.464V350.406M516.791 302.464H564.733M516.791 350.406V398.347M516.791 350.406H564.733M516.791 398.347V446.289M516.791 398.347H564.733M516.791 446.289V494.23M516.791 446.289H564.733M516.791 494.23V542.172M516.791 494.23H564.733M516.791 542.172V590.113M516.791 542.172H564.733M516.791 590.113V638.054M516.791 590.113H564.733M516.791 638.054V685.996M516.791 638.054H564.733M516.791 685.996V733.937M516.791 685.996H564.733M516.791 733.937V781.881M516.791 733.937H564.733M516.791 781.881V829.823M516.791 781.881H564.733M516.791 829.823V877.764M516.791 829.823H564.733M516.791 877.764V925.706M516.791 877.764H564.733M516.791 925.706V973.641M516.791 925.706H564.733M516.791 973.641H564.733M564.733 14.8157V62.7575V110.699M564.733 14.8157H612.675M564.733 110.699V158.64M564.733 110.699H612.675M564.733 158.64V206.581M564.733 158.64H612.675M564.733 206.581V254.523M564.733 206.581H612.675M564.733 254.523V302.464M564.733 254.523H612.675M564.733 302.464V350.406M564.733 302.464H612.675M564.733 350.406V398.347M564.733 350.406H612.675M564.733 398.347V446.289M564.733 398.347H612.675M564.733 446.289V494.23M564.733 446.289H612.675M564.733 494.23V542.172M564.733 494.23H612.675M564.733 542.172V590.113M564.733 542.172H612.675M564.733 590.113V638.054M564.733 590.113H612.675M564.733 638.054V685.996M564.733 638.054H612.675M564.733 685.996V733.937M564.733 685.996H612.675M564.733 733.937V781.881M564.733 733.937H612.675M564.733 781.881V829.823M564.733 781.881H612.675M564.733 829.823V877.764M564.733 829.823H612.675M564.733 877.764V925.706M564.733 877.764H612.675M564.733 925.706V973.641M564.733 925.706H612.675M564.733 973.641H612.675M612.675 14.8157V62.7575V110.699M612.675 14.8157H660.616M612.675 110.699V158.64M612.675 110.699H660.616M612.675 158.64V206.581M612.675 158.64H660.616M612.675 206.581V254.523M612.675 206.581H660.616M612.675 254.523V302.464M612.675 254.523H660.616M612.675 302.464V350.406M612.675 302.464H660.616M612.675 350.406V398.347M612.675 350.406H660.616M612.675 398.347V446.289M612.675 398.347H660.616M612.675 446.289V494.23M612.675 446.289H660.616M612.675 494.23V542.172M612.675 494.23H660.616M612.675 542.172V590.113M612.675 542.172H660.616M612.675 590.113V638.054M612.675 590.113H660.616M612.675 638.054V685.996M612.675 638.054H660.616M612.675 685.996V733.937M612.675 685.996H660.616M612.675 733.937V781.881M612.675 733.937H660.616M612.675 781.881V829.823M612.675 781.881H660.616M612.675 829.823V877.764M612.675 829.823H660.616M612.675 877.764V925.706M612.675 877.764H660.616M612.675 925.706V973.641M612.675 925.706H660.616M612.675 973.641H660.616M660.616 14.8157V62.7575V110.699M660.616 14.8157H708.558M660.616 110.699V158.64M660.616 110.699H708.558M660.616 158.64V206.581M660.616 158.64H708.558M660.616 206.581V254.523M660.616 206.581H708.558M660.616 254.523V302.464M660.616 254.523H708.558M660.616 302.464V350.406M660.616 302.464H708.558M660.616 350.406V398.347M660.616 350.406H708.558M660.616 398.347V446.289M660.616 398.347H708.558M660.616 446.289V494.23M660.616 446.289H708.558M660.616 494.23V542.172M660.616 494.23H708.558M660.616 542.172V590.113M660.616 542.172H708.558M660.616 590.113V638.054M660.616 590.113H708.558M660.616 638.054V685.996M660.616 638.054H708.558M660.616 685.996V733.937M660.616 685.996H708.558M660.616 733.937V781.881M660.616 733.937H708.558M660.616 781.881V829.823M660.616 781.881H708.558M660.616 829.823V877.764M660.616 829.823H708.558M660.616 877.764V925.706M660.616 877.764H708.558M660.616 925.706V973.641M660.616 925.706H708.558M660.616 973.641H708.558M708.558 14.8157V62.7575V110.699M708.558 14.8157H756.5M708.558 110.699V158.64M708.558 110.699H756.5M708.558 158.64V206.581M708.558 158.64H756.5M708.558 206.581V254.523M708.558 206.581H756.5M708.558 254.523V302.464M708.558 254.523H756.5M708.558 302.464V350.406M708.558 302.464H756.5M708.558 350.406V398.347M708.558 350.406H756.5M708.558 398.347V446.289M708.558 398.347H756.5M708.558 446.289V494.23M708.558 446.289H756.5M708.558 494.23V542.172M708.558 494.23H756.5M708.558 542.172V590.113M708.558 542.172H756.5M708.558 590.113V638.054M708.558 590.113H756.5M708.558 638.054V685.996M708.558 638.054H756.5M708.558 685.996V733.937M708.558 685.996H756.5M708.558 733.937V781.881M708.558 733.937H756.5M708.558 781.881V829.823M708.558 781.881H756.5M708.558 829.823V877.764M708.558 829.823H756.5M708.558 877.764V925.706M708.558 877.764H756.5M708.558 925.706V973.641M708.558 925.706H756.5M708.558 973.641H756.5M756.5 14.8157V62.7575V110.699M756.5 14.8157H804.442M756.5 110.699V158.64M756.5 110.699H804.442M756.5 158.64V206.581M756.5 158.64H804.442M756.5 206.581V254.523M756.5 206.581H804.442M756.5 254.523V302.464M756.5 254.523H804.442M756.5 302.464V350.406M756.5 302.464H804.442M756.5 350.406V398.347M756.5 350.406H804.442M756.5 398.347V446.289M756.5 398.347H804.442M756.5 446.289V494.23M756.5 446.289H804.442M756.5 494.23V542.172M756.5 494.23H804.442M756.5 542.172V590.113M756.5 542.172H804.442M756.5 590.113V638.054M756.5 590.113H804.442M756.5 638.054V685.996M756.5 638.054H804.442M756.5 685.996V733.937M756.5 685.996H804.442M756.5 733.937V781.881M756.5 733.937H804.442M756.5 781.881V829.823M756.5 781.881H804.442M756.5 829.823V877.764M756.5 829.823H804.442M756.5 877.764V925.706M756.5 877.764H804.442M756.5 925.706V973.641M756.5 925.706H804.442M756.5 973.641H804.442M804.442 14.8157V62.7575V110.699M804.442 14.8157H852.384M804.442 110.699V158.64M804.442 110.699H852.384M804.442 158.64V206.581M804.442 158.64H852.384M804.442 206.581V254.523M804.442 206.581H852.384M804.442 254.523V302.464M804.442 254.523H852.384M804.442 302.464V350.406M804.442 302.464H852.384M804.442 350.406V398.347M804.442 350.406H852.384M804.442 398.347V446.289M804.442 398.347H852.384M804.442 446.289V494.23M804.442 446.289H852.384M804.442 494.23V542.172M804.442 494.23H852.384M804.442 542.172V590.113M804.442 542.172H852.384M804.442 590.113V638.054M804.442 590.113H852.384M804.442 638.054V685.996M804.442 638.054H852.384M804.442 685.996V733.937M804.442 685.996H852.384M804.442 733.937V781.881M804.442 733.937H852.384M804.442 781.881V829.823M804.442 781.881H852.384M804.442 829.823V877.764M804.442 829.823H852.384M804.442 877.764V925.706M804.442 877.764H852.384M804.442 925.706V973.641M804.442 925.706H852.384M804.442 973.641H852.384M852.384 14.8157V62.7575V110.699M852.384 14.8157H900.325M852.384 110.699V158.64M852.384 110.699H900.325M852.384 158.64V206.581M852.384 158.64H900.325M852.384 206.581V254.523M852.384 206.581H900.325M852.384 254.523V302.464M852.384 254.523H900.325M852.384 302.464V350.406M852.384 302.464H900.325M852.384 350.406V398.347M852.384 350.406H900.325M852.384 398.347V446.289M852.384 398.347H900.325M852.384 446.289V494.23M852.384 446.289H900.325M852.384 494.23V542.172M852.384 494.23H900.325M852.384 542.172V590.113M852.384 542.172H900.325M852.384 590.113V638.054M852.384 590.113H900.325M852.384 638.054V685.996M852.384 638.054H900.325M852.384 685.996V733.937M852.384 685.996H900.325M852.384 733.937V781.881M852.384 733.937H900.325M852.384 781.881V829.823M852.384 781.881H900.325M852.384 829.823V877.764M852.384 829.823H900.325M852.384 877.764V925.706M852.384 877.764H900.325M852.384 925.706V973.641M852.384 925.706H900.325M852.384 973.641H900.325M900.325 14.8157V62.7575V110.699M900.325 14.8157H948.267M900.325 110.699V158.64M900.325 110.699H948.267M900.325 158.64V206.581M900.325 158.64H948.267M900.325 206.581V254.523M900.325 206.581H948.267M900.325 254.523V302.464M900.325 254.523H948.267M900.325 302.464V350.406M900.325 302.464H948.267M900.325 350.406V398.347M900.325 350.406H948.267M900.325 398.347V446.289M900.325 398.347H948.267M900.325 446.289V494.23M900.325 446.289H948.267M900.325 494.23V542.172M900.325 494.23H948.267M900.325 542.172V590.113M900.325 542.172H948.267M900.325 590.113V638.054M900.325 590.113H948.267M900.325 638.054V685.996M900.325 638.054H948.267M900.325 685.996V733.937M900.325 685.996H948.267M900.325 733.937V781.881M900.325 733.937H948.267M900.325 781.881V829.823M900.325 781.881H948.267M900.325 829.823V877.764M900.325 829.823H948.267M900.325 877.764V925.706M900.325 877.764H948.267M900.325 925.706V973.641M900.325 925.706H948.267M900.325 973.641H948.267M948.267 14.8157V62.7575V110.699M948.267 14.8157H996.209M948.267 110.699V158.64M948.267 110.699H996.209M948.267 158.64V206.581M948.267 158.64H996.209M948.267 206.581V254.523M948.267 206.581H996.209M948.267 254.523V302.464M948.267 254.523H996.209M948.267 302.464V350.406M948.267 302.464H996.209M948.267 350.406V398.347M948.267 350.406H996.209M948.267 398.347V446.289M948.267 398.347H996.209M948.267 446.289V494.23M948.267 446.289H996.209M948.267 494.23V542.172M948.267 494.23H996.209M948.267 542.172V590.113M948.267 542.172H996.209M948.267 590.113V638.054M948.267 590.113H996.209M948.267 638.054V685.996M948.267 638.054H996.209M948.267 685.996V733.937M948.267 685.996H996.209M948.267 733.937V781.881M948.267 733.937H996.209M948.267 781.881V829.823M948.267 781.881H996.209M948.267 829.823V877.764M948.267 829.823H996.209M948.267 877.764V925.706M948.267 877.764H996.209M948.267 925.706V973.641M948.267 925.706H996.209M948.267 973.641H996.209M996.209 14.8157V62.7575V110.699M996.209 14.8157H1044.15M996.209 110.699V158.64M996.209 110.699H1044.15M996.209 158.64V206.581M996.209 158.64H1044.15M996.209 206.581V254.523M996.209 206.581H1044.15M996.209 254.523V302.464M996.209 254.523H1044.15M996.209 302.464V350.406M996.209 302.464H1044.15M996.209 350.406V398.347M996.209 350.406H1044.15M996.209 398.347V446.289M996.209 398.347H1044.15M996.209 446.289V494.23M996.209 446.289H1044.15M996.209 494.23V542.172M996.209 494.23H1044.15M996.209 542.172V590.113M996.209 542.172H1044.15M996.209 590.113V638.054M996.209 590.113H1044.15M996.209 638.054V685.996M996.209 638.054H1044.15M996.209 685.996V733.937M996.209 685.996H1044.15M996.209 733.937V781.881M996.209 733.937H1044.15M996.209 781.881V829.823M996.209 781.881H1044.15M996.209 829.823V877.764M996.209 829.823H1044.15M996.209 877.764V925.706M996.209 877.764H1044.15M996.209 925.706V973.641M996.209 925.706H1044.15M996.209 973.641H1044.15M1044.15 14.8157V62.7575V110.699M1044.15 14.8157H1092.09M1044.15 110.699V158.64M1044.15 110.699H1092.09M1044.15 158.64V206.581M1044.15 158.64H1092.09M1044.15 206.581V254.523M1044.15 206.581H1092.09M1044.15 254.523V302.464M1044.15 254.523H1092.09M1044.15 302.464V350.406M1044.15 302.464H1092.09M1044.15 350.406V398.347M1044.15 350.406H1092.09M1044.15 398.347V446.289M1044.15 398.347H1092.09M1044.15 446.289V494.23M1044.15 446.289H1092.09M1044.15 494.23V542.172M1044.15 494.23H1092.09M1044.15 542.172V590.113M1044.15 542.172H1092.09M1044.15 590.113V638.054M1044.15 590.113H1092.09M1044.15 638.054V685.996M1044.15 638.054H1092.09M1044.15 685.996V733.937M1044.15 685.996H1092.09M1044.15 733.937V781.881M1044.15 733.937H1092.09M1044.15 781.881V829.823M1044.15 781.881H1092.09M1044.15 829.823V877.764M1044.15 829.823H1092.09M1044.15 877.764V925.706M1044.15 877.764H1092.09M1044.15 925.706V973.641M1044.15 925.706H1092.09M1044.15 973.641H1092.09M1092.09 14.8157V62.7575V110.699M1092.09 14.8157H1140.03M1092.09 110.699V158.64M1092.09 110.699H1140.03M1092.09 158.64V206.581M1092.09 158.64H1140.03M1092.09 206.581V254.523M1092.09 206.581H1140.03M1092.09 254.523V302.464M1092.09 254.523H1140.03M1092.09 302.464V350.406M1092.09 302.464H1140.03M1092.09 350.406V398.347M1092.09 350.406H1140.03M1092.09 398.347V446.289M1092.09 398.347H1140.03M1092.09 446.289V494.23M1092.09 446.289H1140.03M1092.09 494.23V542.172M1092.09 494.23H1140.03M1092.09 542.172V590.113M1092.09 542.172H1140.03M1092.09 590.113V638.054M1092.09 590.113H1140.03M1092.09 638.054V685.996M1092.09 638.054H1140.03M1092.09 685.996V733.937M1092.09 685.996H1140.03M1092.09 733.937V781.881M1092.09 733.937H1140.03M1092.09 781.881V829.823M1092.09 781.881H1140.03M1092.09 829.823V877.764M1092.09 829.823H1140.03M1092.09 877.764V925.706M1092.09 877.764H1140.03M1092.09 925.706V973.641M1092.09 925.706H1140.03M1092.09 973.641H1140.03M1140.03 14.8157V62.7575V110.699M1140.03 14.8157H1187.98M1140.03 110.699V158.64M1140.03 110.699H1187.98M1140.03 158.64V206.581M1140.03 158.64H1187.98M1140.03 206.581V254.523M1140.03 206.581H1187.98M1140.03 254.523V302.464M1140.03 254.523H1187.98M1140.03 302.464V350.406M1140.03 302.464H1187.98M1140.03 350.406V398.347M1140.03 350.406H1187.98M1140.03 398.347V446.289M1140.03 398.347H1187.98M1140.03 446.289V494.23M1140.03 446.289H1187.98M1140.03 494.23V542.172M1140.03 494.23H1187.98M1140.03 542.172V590.113M1140.03 542.172H1187.98M1140.03 590.113V638.054M1140.03 590.113H1187.98M1140.03 638.054V685.996M1140.03 638.054H1187.98M1140.03 685.996V733.937M1140.03 685.996H1187.98M1140.03 733.937V781.881M1140.03 733.937H1187.98M1140.03 781.881V829.823M1140.03 781.881H1187.98M1140.03 829.823V877.764M1140.03 829.823H1187.98M1140.03 877.764V925.706M1140.03 877.764H1187.98M1140.03 925.706V973.641M1140.03 925.706H1187.98M1140.03 973.641H1187.98M1187.98 14.8157V62.7575V110.699M1187.98 14.8157H1235.92M1187.98 110.699V158.64M1187.98 110.699H1235.92M1187.98 158.64V206.581M1187.98 158.64H1235.92M1187.98 206.581V254.523M1187.98 206.581H1235.92M1187.98 254.523V302.464M1187.98 254.523H1235.92M1187.98 302.464V350.406M1187.98 302.464H1235.92M1187.98 350.406V398.347M1187.98 350.406H1235.92M1187.98 398.347V446.289M1187.98 398.347H1235.92M1187.98 446.289V494.23M1187.98 446.289H1235.92M1187.98 494.23V542.172M1187.98 494.23H1235.92M1187.98 542.172V590.113M1187.98 542.172H1235.92M1187.98 590.113V638.054M1187.98 590.113H1235.92M1187.98 638.054V685.996M1187.98 638.054H1235.92M1187.98 685.996V733.937M1187.98 685.996H1235.92M1187.98 733.937V781.881M1187.98 733.937H1235.92M1187.98 781.881V829.823M1187.98 781.881H1235.92M1187.98 829.823V877.764M1187.98 829.823H1235.92M1187.98 877.764V925.706M1187.98 877.764H1235.92M1187.98 925.706V973.641M1187.98 925.706H1235.92M1187.98 973.641H1235.92M1235.92 14.8157V62.7575V110.699M1235.92 14.8157H1283.85M1235.92 110.699V158.64M1235.92 110.699H1283.85M1235.92 158.64V206.581M1235.92 158.64H1283.85M1235.92 206.581V254.523M1235.92 206.581H1283.85M1235.92 254.523V302.464M1235.92 254.523H1283.85M1235.92 302.464V350.406M1235.92 302.464H1283.85M1235.92 350.406V398.347M1235.92 350.406H1283.85M1235.92 398.347V446.289M1235.92 398.347H1283.85M1235.92 446.289V494.23M1235.92 446.289H1283.85M1235.92 494.23V542.172M1235.92 494.23H1283.85M1235.92 542.172V590.113M1235.92 542.172H1283.85M1235.92 590.113V638.054M1235.92 590.113H1283.85M1235.92 638.054V685.996M1235.92 638.054H1283.85M1235.92 685.996V733.937M1235.92 685.996H1283.85M1235.92 733.937V781.881M1235.92 733.937H1283.85M1235.92 781.881V829.823M1235.92 781.881H1283.85M1235.92 829.823V877.764M1235.92 829.823H1283.85M1235.92 877.764V925.706M1235.92 877.764H1283.85M1235.92 925.706V973.641M1235.92 925.706H1283.85M1235.92 973.641H1283.85M1283.85 14.8157V62.7575V110.699M1283.85 14.8157H1331.79M1283.85 110.699V158.64M1283.85 110.699H1331.79M1283.85 158.64V206.581M1283.85 158.64H1331.79M1283.85 206.581V254.523M1283.85 206.581H1331.79M1283.85 254.523V302.464M1283.85 254.523H1331.79M1283.85 302.464V350.406M1283.85 302.464H1331.79M1283.85 350.406V398.347M1283.85 350.406H1331.79M1283.85 398.347V446.289M1283.85 398.347H1331.79M1283.85 446.289V494.23M1283.85 446.289H1331.79M1283.85 494.23V542.172M1283.85 494.23H1331.79M1283.85 542.172V590.113M1283.85 542.172H1331.79M1283.85 590.113V638.054M1283.85 590.113H1331.79M1283.85 638.054V685.996M1283.85 638.054H1331.79M1283.85 685.996V733.937M1283.85 685.996H1331.79M1283.85 733.937V781.881M1283.85 733.937H1331.79M1283.85 781.881V829.823M1283.85 781.881H1331.79M1283.85 829.823V877.764M1283.85 829.823H1331.79M1283.85 877.764V925.706M1283.85 877.764H1331.79M1283.85 925.706V973.641M1283.85 925.706H1331.79M1283.85 973.641H1331.79M1331.79 14.8157V62.7575V110.699M1331.79 14.8157H1379.74M1331.79 110.699V158.64M1331.79 110.699H1379.74M1331.79 158.64V206.581M1331.79 158.64H1379.74M1331.79 206.581V254.523M1331.79 206.581H1379.74M1331.79 254.523V302.464M1331.79 254.523H1379.74M1331.79 302.464V350.406M1331.79 302.464H1379.74M1331.79 350.406V398.347M1331.79 350.406H1379.74M1331.79 398.347V446.289M1331.79 398.347H1379.74M1331.79 446.289V494.23M1331.79 446.289H1379.74M1331.79 494.23V542.172M1331.79 494.23H1379.74M1331.79 542.172V590.113M1331.79 542.172H1379.74M1331.79 590.113V638.054M1331.79 590.113H1379.74M1331.79 638.054V685.996M1331.79 638.054H1379.74M1331.79 685.996V733.937M1331.79 685.996H1379.74M1331.79 733.937V781.881M1331.79 733.937H1379.74M1331.79 781.881V829.823M1331.79 781.881H1379.74M1331.79 829.823V877.764M1331.79 829.823H1379.74M1331.79 877.764V925.706M1331.79 877.764H1379.74M1331.79 925.706V973.641M1331.79 925.706H1379.74M1331.79 973.641H1379.74M1379.74 14.8157V62.7575V110.699M1379.74 14.8157H1427.68M1379.74 110.699V158.64M1379.74 110.699H1427.68M1379.74 158.64V206.581M1379.74 158.64H1427.68M1379.74 206.581V254.523M1379.74 206.581H1427.68M1379.74 254.523V302.464M1379.74 254.523H1427.68M1379.74 302.464V350.406M1379.74 302.464H1427.68M1379.74 350.406V398.347M1379.74 350.406H1427.68M1379.74 398.347V446.289M1379.74 398.347H1427.68M1379.74 446.289V494.23M1379.74 446.289H1427.68M1379.74 494.23V542.172M1379.74 494.23H1427.68M1379.74 542.172V590.113M1379.74 542.172H1427.68M1379.74 590.113V638.054M1379.74 590.113H1427.68M1379.74 638.054V685.996M1379.74 638.054H1427.68M1379.74 685.996V733.937M1379.74 685.996H1427.68M1379.74 733.937V781.881M1379.74 733.937H1427.68M1379.74 781.881V829.823M1379.74 781.881H1427.68M1379.74 829.823V877.764M1379.74 829.823H1427.68M1379.74 877.764V925.706M1379.74 877.764H1427.68M1379.74 925.706V973.641M1379.74 925.706H1427.68M1379.74 973.641H1427.68M1427.68 14.8157V62.7575V110.699M1427.68 14.8157H1475.62M1427.68 110.699V158.64M1427.68 110.699H1475.62M1427.68 158.64V206.581M1427.68 158.64H1475.62M1427.68 206.581V254.523M1427.68 206.581H1475.62M1427.68 254.523V302.464M1427.68 254.523H1475.62M1427.68 302.464V350.406M1427.68 302.464H1475.62M1427.68 350.406V398.347M1427.68 350.406H1475.62M1427.68 398.347V446.289M1427.68 398.347H1475.62M1427.68 446.289V494.23M1427.68 446.289H1475.62M1427.68 494.23V542.172M1427.68 494.23H1475.62M1427.68 542.172V590.113M1427.68 542.172H1475.62M1427.68 590.113V638.054M1427.68 590.113H1475.62M1427.68 638.054V685.996M1427.68 638.054H1475.62M1427.68 685.996V733.937M1427.68 685.996H1475.62M1427.68 733.937V781.881M1427.68 733.937H1475.62M1427.68 781.881V829.823M1427.68 781.881H1475.62M1427.68 829.823V877.764M1427.68 829.823H1475.62M1427.68 877.764V925.706M1427.68 877.764H1475.62M1427.68 925.706V973.641M1427.68 925.706H1475.62M1427.68 973.641H1475.62M1475.62 14.8157V62.7575V110.699M1475.62 14.8157H1523.56M1475.62 110.699V158.64M1475.62 110.699H1523.56M1475.62 158.64V206.581M1475.62 158.64H1523.56M1475.62 206.581V254.523M1475.62 206.581H1523.56M1475.62 254.523V302.464M1475.62 254.523H1523.56M1475.62 302.464V350.406M1475.62 302.464H1523.56M1475.62 350.406V398.347M1475.62 350.406H1523.56M1475.62 398.347V446.289M1475.62 398.347H1523.56M1475.62 446.289V494.23M1475.62 446.289H1523.56M1475.62 494.23V542.172M1475.62 494.23H1523.56M1475.62 542.172V590.113M1475.62 542.172H1523.56M1475.62 590.113V638.054M1475.62 590.113H1523.56M1475.62 638.054V685.996M1475.62 638.054H1523.56M1475.62 685.996V733.937M1475.62 685.996H1523.56M1475.62 733.937V781.881M1475.62 733.937H1523.56M1475.62 781.881V829.823M1475.62 781.881H1523.56M1475.62 829.823V877.764M1475.62 829.823H1523.56M1475.62 877.764V925.706M1475.62 877.764H1523.56M1475.62 925.706V973.641M1475.62 925.706H1523.56M1475.62 973.641H1523.56M1523.56 14.8157V62.7575V110.699M1523.56 14.8157H1571.5M1523.56 110.699V158.64M1523.56 110.699H1571.5M1523.56 158.64V206.581M1523.56 158.64H1571.5M1523.56 206.581V254.523M1523.56 206.581H1571.5M1523.56 254.523V302.464M1523.56 254.523H1571.5M1523.56 302.464V350.406M1523.56 302.464H1571.5M1523.56 350.406V398.347M1523.56 350.406H1571.5M1523.56 398.347V446.289M1523.56 398.347H1571.5M1523.56 446.289V494.23M1523.56 446.289H1571.5M1523.56 494.23V542.172M1523.56 494.23H1571.5M1523.56 542.172V590.113M1523.56 542.172H1571.5M1523.56 590.113V638.054M1523.56 590.113H1571.5M1523.56 638.054V685.996M1523.56 638.054H1571.5M1523.56 685.996V733.937M1523.56 685.996H1571.5M1523.56 733.937V781.881M1523.56 733.937H1571.5M1523.56 781.881V829.823M1523.56 781.881H1571.5M1523.56 829.823V877.764M1523.56 829.823H1571.5M1523.56 877.764V925.706M1523.56 877.764H1571.5M1523.56 925.706V973.641M1523.56 925.706H1571.5M1523.56 973.641H1571.5M1571.5 14.8157V62.7575V110.699M1571.5 14.8157H1619.45M1571.5 110.699V158.64M1571.5 110.699H1619.45M1571.5 158.64V206.581M1571.5 158.64H1619.45M1571.5 206.581V254.523M1571.5 206.581H1619.45M1571.5 254.523V302.464M1571.5 254.523H1619.45M1571.5 302.464V350.406M1571.5 302.464H1619.45M1571.5 350.406V398.347M1571.5 350.406H1619.45M1571.5 398.347V446.289M1571.5 398.347H1619.45M1571.5 446.289V494.23M1571.5 446.289H1619.45M1571.5 494.23V542.172M1571.5 494.23H1619.45M1571.5 542.172V590.113M1571.5 542.172H1619.45M1571.5 590.113V638.054M1571.5 590.113H1619.45M1571.5 638.054V685.996M1571.5 638.054H1619.45M1571.5 685.996V733.937M1571.5 685.996H1619.45M1571.5 733.937V781.881M1571.5 733.937H1619.45M1571.5 781.881V829.823M1571.5 781.881H1619.45M1571.5 829.823V877.764M1571.5 829.823H1619.45M1571.5 877.764V925.706M1571.5 877.764H1619.45M1571.5 925.706V973.641M1571.5 925.706H1619.45M1571.5 973.641H1619.45M1619.45 14.8157V62.7575V110.699M1619.45 14.8157H1667.39M1619.45 110.699V158.64M1619.45 110.699H1667.39M1619.45 158.64V206.581M1619.45 158.64H1667.39M1619.45 206.581V254.523M1619.45 206.581H1667.39M1619.45 254.523V302.464M1619.45 254.523H1667.39M1619.45 302.464V350.406M1619.45 302.464H1667.39M1619.45 350.406V398.347M1619.45 350.406H1667.39M1619.45 398.347V446.289M1619.45 398.347H1667.39M1619.45 446.289V494.23M1619.45 446.289H1667.39M1619.45 494.23V542.172M1619.45 494.23H1667.39M1619.45 542.172V590.113M1619.45 542.172H1667.39M1619.45 590.113V638.054M1619.45 590.113H1667.39M1619.45 638.054V685.996M1619.45 638.054H1667.39M1619.45 685.996V733.937M1619.45 685.996H1667.39M1619.45 733.937V781.881M1619.45 733.937H1667.39M1619.45 781.881V829.823M1619.45 781.881H1667.39M1619.45 829.823V877.764M1619.45 829.823H1667.39M1619.45 877.764V925.706M1619.45 877.764H1667.39M1619.45 925.706V973.641M1619.45 925.706H1667.39M1619.45 973.641H1667.39M1667.39 14.8157V62.7575V110.699M1667.39 14.8157H1715.33M1667.39 110.699V158.64M1667.39 110.699H1715.33M1667.39 158.64V206.581M1667.39 158.64H1715.33M1667.39 206.581V254.523M1667.39 206.581H1715.33M1667.39 254.523V302.464M1667.39 254.523H1715.33M1667.39 302.464V350.406M1667.39 302.464H1715.33M1667.39 350.406V398.347M1667.39 350.406H1715.33M1667.39 398.347V446.289M1667.39 398.347H1715.33M1667.39 446.289V494.23M1667.39 446.289H1715.33M1667.39 494.23V542.172M1667.39 494.23H1715.33M1667.39 542.172V590.113M1667.39 542.172H1715.33M1667.39 590.113V638.054M1667.39 590.113H1715.33M1667.39 638.054V685.996M1667.39 638.054H1715.33M1667.39 685.996V733.937M1667.39 685.996H1715.33M1667.39 733.937V781.881M1667.39 733.937H1715.33M1667.39 781.881V829.823M1667.39 781.881H1715.33M1667.39 829.823V877.764M1667.39 829.823H1715.33M1667.39 877.764V925.706M1667.39 877.764H1715.33M1667.39 925.706V973.641M1667.39 925.706H1715.33M1667.39 973.641H1715.33M1715.33 14.8157V62.7575V110.699M1715.33 14.8157H1763.27M1715.33 110.699V158.64M1715.33 110.699H1763.27M1715.33 158.64V206.581M1715.33 158.64H1763.27M1715.33 206.581V254.523M1715.33 206.581H1763.27M1715.33 254.523V302.464M1715.33 254.523H1763.27M1715.33 302.464V350.406M1715.33 302.464H1763.27M1715.33 350.406V398.347M1715.33 350.406H1763.27M1715.33 398.347V446.289M1715.33 398.347H1763.27M1715.33 446.289V494.23M1715.33 446.289H1763.27M1715.33 494.23V542.172M1715.33 494.23H1763.27M1715.33 542.172V590.113M1715.33 542.172H1763.27M1715.33 590.113V638.054M1715.33 590.113H1763.27M1715.33 638.054V685.996M1715.33 638.054H1763.27M1715.33 685.996V733.937M1715.33 685.996H1763.27M1715.33 733.937V781.881M1715.33 733.937H1763.27M1715.33 781.881V829.823M1715.33 781.881H1763.27M1715.33 829.823V877.764M1715.33 829.823H1763.27M1715.33 877.764V925.706M1715.33 877.764H1763.27M1715.33 925.706V973.641M1715.33 925.706H1763.27M1715.33 973.641H1763.27M1763.27 14.8157V62.7575V110.699M1763.27 14.8157H1811.21V62.7575V110.699M1763.27 110.699V158.64M1763.27 110.699H1811.21M1763.27 158.64V206.581M1763.27 158.64H1811.21M1763.27 206.581V254.523M1763.27 206.581H1811.21M1763.27 254.523V302.464M1763.27 254.523H1811.21M1763.27 302.464V350.406M1763.27 302.464H1811.21M1763.27 350.406V398.347M1763.27 350.406H1811.21M1763.27 398.347V446.289M1763.27 398.347H1811.21M1763.27 446.289V494.23M1763.27 446.289H1811.21M1763.27 494.23V542.172M1763.27 494.23H1811.21M1763.27 542.172V590.113M1763.27 542.172H1811.21M1763.27 590.113V638.054M1763.27 590.113H1811.21M1763.27 638.054V685.996M1763.27 638.054H1811.21M1763.27 685.996V733.937M1763.27 685.996H1811.21M1763.27 733.937V781.881M1763.27 733.937H1811.21M1763.27 781.881V829.823M1763.27 781.881H1811.21M1763.27 829.823V877.764M1763.27 829.823H1811.21M1763.27 877.764V925.706M1763.27 877.764H1811.21M1763.27 925.706V973.641M1763.27 925.706H1811.21M1763.27 973.641H1811.21V925.706M1811.21 110.699V158.64M1811.21 158.64V206.581M1811.21 206.581V254.523M1811.21 254.523V302.464M1811.21 302.464V350.406M1811.21 350.406V398.347M1811.21 398.347V446.289M1811.21 446.289V494.23M1811.21 494.23V542.172M1811.21 542.172V590.113M1811.21 590.113V638.054M1811.21 638.054V685.996M1811.21 685.996V733.937M1811.21 733.937V781.881M1811.21 781.881V829.823M1811.21 829.823V877.764M1811.21 877.764V925.706" stroke="url(#paint0_radial_1_129)" stroke-opacity="0.6" stroke-width="0.598901"/>
<path opacity="0.8" d="M-106.445 192.199V206.581M-106.445 206.581V220.964M-106.445 206.581H-120.828M-106.445 206.581H-92.0626M-106.445 575.73V590.113M-106.445 590.113V604.495M-106.445 590.113H-120.828M-106.445 590.113H-92.0626M-106.445 959.26V973.641M-106.445 973.641V988.029M-106.445 973.641H-120.828M-106.445 973.641H-92.0626M277.086 192.199V206.581M277.086 206.581V220.964M277.086 206.581H262.704M277.086 206.581H291.468M277.086 575.73V590.113M277.086 590.113V604.495M277.086 590.113H262.704M277.086 590.113H291.468M277.086 959.26V973.641M277.086 973.641V988.029M277.086 973.641H262.704M277.086 973.641H291.468M660.616 192.199V206.581M660.616 206.581V220.964M660.616 206.581H646.235M660.616 206.581H674.997M660.616 575.73V590.113M660.616 590.113V604.495M660.616 590.113H646.235M660.616 590.113H674.997M660.616 959.26V973.641M660.616 973.641V988.029M660.616 973.641H646.235M660.616 973.641H674.997M1044.15 192.199V206.581M1044.15 206.581V220.964M1044.15 206.581H1029.77M1044.15 206.581H1058.53M1044.15 575.73V590.113M1044.15 590.113V604.495M1044.15 590.113H1029.77M1044.15 590.113H1058.53M1044.15 959.26V973.641M1044.15 973.641V988.029M1044.15 973.641H1029.77M1044.15 973.641H1058.53M1427.68 192.199V206.581M1427.68 206.581V220.964M1427.68 206.581H1413.3M1427.68 206.581H1442.06M1427.68 575.73V590.113M1427.68 590.113V604.495M1427.68 590.113H1413.3M1427.68 590.113H1442.06M1427.68 959.26V973.641M1427.68 973.641V988.029M1427.68 973.641H1413.3M1427.68 973.641H1442.06M1811.21 192.199V206.581M1811.21 206.581V220.964M1811.21 206.581H1796.83M1811.21 206.581H1825.59M1811.21 575.73V590.113M1811.21 590.113V604.495M1811.21 590.113H1796.83M1811.21 590.113H1825.59M1811.21 959.26V973.641M1811.21 973.641V988.029M1811.21 973.641H1796.83M1811.21 973.641H1825.59M-106.445 0.433105V14.8156M-106.445 14.8156V29.1982M-106.445 14.8156H-120.828M-106.445 14.8156H-92.0626M-106.445 383.965V398.348M-106.445 398.348V412.73M-106.445 398.348H-120.828M-106.445 398.348H-92.0626M-106.445 767.492V781.881M-106.445 781.881V796.262M-106.445 781.881H-120.828M-106.445 781.881H-92.0626M277.086 0.433105V14.8156M277.086 14.8156V29.1982M277.086 14.8156H262.704M277.086 14.8156H291.468M277.086 383.965V398.348M277.086 398.348V412.73M277.086 398.348H262.704M277.086 398.348H291.468M277.086 767.492V781.881M277.086 781.881V796.262M277.086 781.881H262.704M277.086 781.881H291.468M660.616 0.433105V14.8156M660.616 14.8156V29.1982M660.616 14.8156H646.235M660.616 14.8156H674.997M660.616 383.965V398.347M660.616 398.347V412.73M660.616 398.347H646.235M660.616 398.347H674.997M660.616 767.492V781.881M660.616 781.881V796.262M660.616 781.881H646.235M660.616 781.881H674.997M1044.15 0.433105V14.8156M1044.15 14.8156V29.1982M1044.15 14.8156H1029.77M1044.15 14.8156H1058.53M1044.15 383.965V398.347M1044.15 398.347V412.73M1044.15 398.347H1029.77M1044.15 398.347H1058.53M1044.15 767.492V781.881M1044.15 781.881V796.262M1044.15 781.881H1029.77M1044.15 781.881H1058.53M1427.68 0.433105V14.8156M1427.68 14.8156V29.1982M1427.68 14.8156H1413.3M1427.68 14.8156H1442.06M1427.68 383.965V398.347M1427.68 398.347V412.73M1427.68 398.347H1413.3M1427.68 398.347H1442.06M1427.68 767.492V781.881M1427.68 781.881V796.262M1427.68 781.881H1413.3M1427.68 781.881H1442.06M1811.21 0.433105V14.8156M1811.21 14.8156V29.1982M1811.21 14.8156H1796.83M1811.21 14.8156H1825.59M1811.21 383.965V398.347M1811.21 398.347V412.73M1811.21 398.347H1796.83M1811.21 398.347H1825.59M1811.21 767.492V781.881M1811.21 781.881V796.262M1811.21 781.881H1796.83M1811.21 781.881H1825.59M-298.211 192.199V206.581M-298.211 206.581V220.964M-298.211 206.581H-312.593M-298.211 206.581H-283.828M-298.211 575.73V590.113M-298.211 590.113V604.495M-298.211 590.113H-312.593M-298.211 590.113H-283.828M-298.211 959.26V973.641M-298.211 973.641V988.029M-298.211 973.641H-312.593M-298.211 973.641H-283.828M85.3207 192.199V206.581M85.3207 206.581V220.964M85.3207 206.581H70.9381M85.3207 206.581H99.7032M85.3207 575.73V590.113M85.3207 590.113V604.495M85.3207 590.113H70.9381M85.3207 590.113H99.7032M85.3207 959.26V973.641M85.3207 973.641V988.029M85.3207 973.641H70.9381M85.3207 973.641H99.7032M468.849 192.199V206.581M468.849 206.581V220.964M468.849 206.581H454.468M468.849 206.581H483.238M468.849 575.73V590.113M468.849 590.113V604.495M468.849 590.113H454.468M468.849 590.113H483.238M468.849 959.26V973.641M468.849 973.641V988.029M468.849 973.641H454.468M468.849 973.641H483.238M852.384 192.199V206.581M852.384 206.581V220.964M852.384 206.581H838.003M852.384 206.581H866.765M852.384 575.73V590.113M852.384 590.113V604.495M852.384 590.113H838.003M852.384 590.113H866.765M852.384 959.26V973.641M852.384 973.641V988.029M852.384 973.641H838.003M852.384 973.641H866.765M1235.91 192.199V206.581M1235.91 206.581V220.964M1235.91 206.581H1221.53M1235.91 206.581H1250.3M1235.91 575.73V590.113M1235.91 590.113V604.495M1235.91 590.113H1221.53M1235.91 590.113H1250.3M1235.91 959.26V973.641M1235.91 973.641V988.029M1235.91 973.641H1221.53M1235.91 973.641H1250.3M1619.45 192.199V206.581M1619.45 206.581V220.964M1619.45 206.581H1605.06M1619.45 206.581H1633.83M1619.45 575.73V590.113M1619.45 590.113V604.495M1619.45 590.113H1605.06M1619.45 590.113H1633.83M1619.45 959.26V973.641M1619.45 973.641V988.029M1619.45 973.641H1605.06M1619.45 973.641H1633.83M-298.211 0.433849V14.8156M-298.211 14.8156V29.1982M-298.211 14.8156H-312.593M-298.211 14.8156H-283.828M-298.211 383.965V398.348M-298.211 398.348V412.73M-298.211 398.348H-312.593M-298.211 398.348H-283.828M-298.211 767.492V781.881M-298.211 781.881V796.262M-298.211 781.881H-312.593M-298.211 781.881H-283.828M85.3207 0.433105V14.8156M85.3207 14.8156V29.1982M85.3207 14.8156H70.9381M85.3207 14.8156H99.7032M85.3207 383.965V398.348M85.3207 398.348V412.73M85.3207 398.348H70.9381M85.3207 398.348H99.7032M85.3207 767.492V781.881M85.3207 781.881V796.262M85.3207 781.881H70.9381M85.3207 781.881H99.7032M468.849 0.433105V14.8156M468.849 14.8156V29.1982M468.849 14.8156H454.468M468.849 14.8156H483.238M468.849 383.965V398.347M468.849 398.347V412.73M468.849 398.347H454.468M468.849 398.347H483.238M468.849 767.492V781.881M468.849 781.881V796.262M468.849 781.881H454.468M468.849 781.881H483.238M852.384 0.433105V14.8156M852.384 14.8156V29.1982M852.384 14.8156H838.003M852.384 14.8156H866.765M852.384 383.965V398.347M852.384 398.347V412.73M852.384 398.347H838.003M852.384 398.347H866.765M852.384 767.492V781.881M852.384 781.881V796.262M852.384 781.881H838.003M852.384 781.881H866.765M1235.91 0.433105V14.8156M1235.91 14.8156V29.1982M1235.91 14.8156H1221.53M1235.91 14.8156H1250.3M1235.91 383.965V398.347M1235.91 398.347V412.73M1235.91 398.347H1221.53M1235.91 398.347H1250.3M1235.91 767.492V781.881M1235.91 781.881V796.262M1235.91 781.881H1221.53M1235.91 781.881H1250.3M1619.45 0.433105V14.8156M1619.45 14.8156V29.1982M1619.45 14.8156H1605.06M1619.45 14.8156H1633.83M1619.45 383.965V398.347M1619.45 398.347V412.73M1619.45 398.347H1605.06M1619.45 398.347H1633.83M1619.45 767.492V781.881M1619.45 781.881V796.262M1619.45 781.881H1605.06M1619.45 781.881H1633.83" stroke="url(#paint1_radial_1_129)" stroke-opacity="0.6" stroke-width="1.19855"/>
</g>
<defs>
<radialGradient id="paint0_radial_1_129" cx="0" cy="0" r="1" gradientUnits="userSpaceOnUse" gradientTransform="translate(756.5 494.23) rotate(90) scale(479.414 1054.71)">
<stop stop-color="white"/>
<stop offset="1" stop-color="white" stop-opacity="0"/>
</radialGradient>
<radialGradient id="paint1_radial_1_129" cx="0" cy="0" r="1" gradientUnits="userSpaceOnUse" gradientTransform="translate(756.5 494.026) rotate(90) scale(493.796 1069.09)">
<stop stop-color="white"/>
<stop offset="1" stop-color="white" stop-opacity="0"/>
</radialGradient>
<clipPath id="clip0_1_129">
<rect width="2138.19" height="988" fill="white" transform="translate(-312.593 0.22998)"/>
</clipPath>
</defs>
</svg>
