<svg width="213" height="207" viewBox="0 0 213 207" fill="none" xmlns="http://www.w3.org/2000/svg">
<rect x="0.719971" y="128.8" width="191.87" height="103.88" rx="9" transform="rotate(-41.7893 0.719971 128.8)" fill="#161616"/>
<rect x="25.78" y="131.95" width="10.9925" height="11.0065" rx="5.49627" transform="rotate(-54.7893 25.78 131.95)" fill="#BC53F0"/>
<path d="M40.0437 123.017L39.1752 122.046L44.2804 117.483L45.1488 118.454L43.1711 120.222L48.0215 125.649L46.8718 126.677L42.0214 121.25L40.0437 123.017ZM52.4145 121.891C51.9459 122.31 51.4476 122.57 50.9196 122.671C50.3916 122.772 49.8672 122.722 49.3463 122.52C48.8274 122.317 48.3465 121.968 47.9034 121.472C47.4604 120.976 47.166 120.458 47.0202 119.918C46.8765 119.376 46.8843 118.848 47.0437 118.334C47.2031 117.821 47.5171 117.355 47.9858 116.936C48.4544 116.517 48.9527 116.257 49.4807 116.156C50.0087 116.055 50.533 116.108 51.0537 116.313C51.5765 116.516 52.0594 116.866 52.5024 117.362C52.9455 117.857 53.2379 118.375 53.3798 118.915C53.5237 119.454 53.5159 119.98 53.3566 120.493C53.1972 121.006 52.8832 121.472 52.4145 121.891ZM51.611 120.98C51.8651 120.753 52.0152 120.493 52.0612 120.201C52.1054 119.906 52.0631 119.603 51.9342 119.291C51.8074 118.978 51.6136 118.675 51.353 118.383C51.0905 118.09 50.8105 117.862 50.5129 117.701C50.2155 117.536 49.9181 117.459 49.6207 117.47C49.3233 117.481 49.0475 117.6 48.7934 117.827C48.5331 118.06 48.3797 118.324 48.3335 118.62C48.2892 118.915 48.3315 119.22 48.4602 119.536C48.5891 119.848 48.7848 120.15 49.0473 120.444C49.3079 120.736 49.586 120.963 49.8815 121.126C50.1791 121.287 50.4766 121.362 50.774 121.351C51.0716 121.336 51.3506 121.212 51.611 120.98ZM53.6974 111.944L54.4793 112.818L51.7205 115.284L50.9386 114.409L53.6974 111.944ZM50.5921 112.651L51.7231 111.64L55.7498 116.145C55.8857 116.297 56.0128 116.393 56.1313 116.434C56.2499 116.47 56.3608 116.468 56.4639 116.429C56.5671 116.389 56.6655 116.327 56.7592 116.243C56.83 116.18 56.89 116.117 56.939 116.055C56.9901 115.99 57.0275 115.94 57.0513 115.904L58.0321 116.618C57.9904 116.692 57.9244 116.793 57.8343 116.918C57.7462 117.042 57.6239 117.177 57.4672 117.325C57.1914 117.586 56.8981 117.772 56.5872 117.881C56.2746 117.988 55.9622 118.001 55.6502 117.92C55.3403 117.838 55.0523 117.645 54.7863 117.344L50.5921 112.651ZM60.4 114.76C60.0959 115.032 59.7736 115.222 59.4331 115.332C59.0928 115.437 58.7559 115.446 58.4226 115.358C58.0913 115.268 57.7851 115.066 57.504 114.752C57.262 114.481 57.1118 114.212 57.0536 113.946C56.9953 113.679 57.0051 113.416 57.0831 113.155C57.161 112.894 57.2841 112.64 57.4523 112.392C57.6207 112.141 57.8104 111.898 58.0214 111.665C58.2765 111.384 58.4813 111.154 58.6358 110.975C58.7884 110.794 58.882 110.643 58.9164 110.522C58.9511 110.397 58.9201 110.281 58.8233 110.172L58.8065 110.154C58.5962 109.918 58.3635 109.798 58.1085 109.794C57.8535 109.79 57.5948 109.905 57.3324 110.139C57.0554 110.387 56.8896 110.644 56.8351 110.91C56.7827 111.174 56.8019 111.413 56.8928 111.628L55.7027 112.422C55.5254 112.056 55.445 111.689 55.4617 111.322C55.4765 110.953 55.5786 110.596 55.7681 110.25C55.9558 109.903 56.2173 109.579 56.5526 109.279C56.7838 109.073 57.0382 108.894 57.3157 108.743C57.5932 108.593 57.8826 108.495 58.1839 108.451C58.4832 108.404 58.7851 108.436 59.0896 108.546C59.3961 108.654 59.6918 108.868 59.9766 109.186L62.8472 112.398L61.76 113.37L61.1708 112.711L61.1333 112.744C61.1837 112.939 61.1985 113.151 61.1778 113.379C61.1573 113.603 61.085 113.835 60.9608 114.073C60.8368 114.307 60.6499 114.536 60.4 114.76ZM59.9509 113.666C60.1779 113.463 60.3347 113.243 60.4213 113.004C60.506 112.764 60.5261 112.528 60.4817 112.298C60.4393 112.066 60.339 111.862 60.1807 111.685L59.6753 111.119C59.6659 111.18 59.6297 111.261 59.5667 111.363C59.5057 111.462 59.4315 111.568 59.3441 111.679C59.2567 111.791 59.1685 111.9 59.0795 112.006C58.9905 112.112 58.9131 112.203 58.8474 112.281C58.6992 112.454 58.5817 112.627 58.4949 112.798C58.4082 112.969 58.3682 113.136 58.3749 113.299C58.3797 113.459 58.4473 113.613 58.5776 113.758C58.7638 113.967 58.9803 114.056 59.2273 114.026C59.4743 113.997 59.7155 113.877 59.9509 113.666ZM59.3966 103.972L65.1155 110.371L63.9845 111.382L58.2656 104.983L59.3966 103.972ZM63.873 99.9716L69.5918 106.37L68.4608 107.381L62.742 100.982L63.873 99.9716ZM70.7549 105.331L66.4657 100.532L67.5967 99.5209L71.8859 104.32L70.7549 105.331ZM66.4256 99.3424C66.2465 99.5025 66.0393 99.5809 65.804 99.5776C65.5669 99.5722 65.373 99.4852 65.2222 99.3164C65.0695 99.1457 65.0047 98.9432 65.0277 98.709C65.0489 98.4728 65.1491 98.2746 65.3282 98.1145C65.5094 97.9526 65.7175 97.8752 65.9525 97.8825C66.1878 97.8858 66.3817 97.9728 66.5344 98.1436C66.6852 98.3123 66.75 98.5148 66.7288 98.751C66.7079 98.9833 66.6068 99.1804 66.4256 99.3424ZM72.734 100.853L71.5106 99.4904L71.6918 99.3284L71.6935 95.8593L73.0151 94.6781L73.0047 98.9362L72.7704 99.1456L72.734 100.853ZM73.0489 103.28L67.33 96.8817L68.461 95.8709L74.1799 102.27L73.0489 103.28ZM76.0608 100.588L72.5467 99.8008L72.597 98.3227L77.4136 99.3794L76.0608 100.588ZM80.0687 97.1749C79.5875 97.605 79.0826 97.8764 78.554 97.9892C78.0256 98.098 77.5029 98.0519 76.9859 97.8508C76.4671 97.6475 75.9834 97.295 75.5347 96.793C75.0935 96.2993 74.8 95.7823 74.6543 95.2419C74.5087 94.6976 74.5126 94.1696 74.666 93.6579C74.8174 93.144 75.1223 92.6824 75.5805 92.2728C75.8763 92.0085 76.1982 91.8069 76.5463 91.6682C76.8946 91.5255 77.2582 91.4628 77.6371 91.4801C78.0181 91.4955 78.4037 91.6042 78.794 91.8061C79.1824 92.006 79.5647 92.3163 79.9407 92.737L80.2507 93.0838L76.3172 96.5995L75.6358 95.8371L78.4852 93.2904C78.2895 93.0757 78.0704 92.9249 77.828 92.8381C77.5837 92.7492 77.3355 92.7294 77.0835 92.7785C76.8335 92.8258 76.6002 92.9463 76.3836 93.1399C76.1524 93.3465 75.9996 93.5843 75.9252 93.8531C75.8489 94.1199 75.8428 94.3876 75.9068 94.6564C75.9711 94.9211 76.0981 95.1617 76.2877 95.3781L76.8825 96.0436C77.132 96.3227 77.3971 96.5166 77.6779 96.6253C77.9568 96.732 78.2354 96.7565 78.5136 96.6989C78.79 96.6393 79.0511 96.4996 79.2968 96.2799C79.4614 96.1328 79.5898 95.9768 79.6822 95.8119C79.7727 95.6448 79.8259 95.4717 79.8419 95.2926C79.8579 95.1134 79.8304 94.9338 79.7593 94.7538L80.9215 93.9286C81.1043 94.2673 81.195 94.6246 81.1937 95.0004C81.1927 95.3723 81.0985 95.7449 80.9114 96.1182C80.7224 96.4895 80.4415 96.8417 80.0687 97.1749ZM83.7131 87.3983L82.7826 88.4323C82.6604 88.3542 82.5219 88.3019 82.3671 88.2754C82.2143 88.2471 82.0524 88.2588 81.8814 88.3105C81.7103 88.3623 81.5373 88.4663 81.3623 88.6227C81.1269 88.833 80.9747 89.0609 80.9055 89.3063C80.8384 89.5499 80.8785 89.752 81.0258 89.9126C81.1485 90.054 81.301 90.1219 81.4833 90.1163C81.6677 90.1088 81.9069 90.0243 82.2009 89.8627L83.1758 89.3061C83.7174 88.9981 84.1935 88.8517 84.6042 88.8669C85.0169 88.8801 85.3779 89.0577 85.6872 89.3995C85.955 89.7034 86.1048 90.0491 86.1364 90.4367C86.1683 90.8203 86.0879 91.2144 85.895 91.6191C85.7022 92.0237 85.4058 92.4048 85.0059 92.7622C84.4185 93.2872 83.8359 93.5869 83.2579 93.6613C82.6781 93.7336 82.1566 93.5797 81.6932 93.1996L82.7011 92.1076C82.9447 92.2796 83.1971 92.3482 83.4582 92.3133C83.7193 92.2785 83.9801 92.1448 84.2404 91.9121C84.5091 91.6719 84.6754 91.424 84.7392 91.1684C84.805 90.911 84.7654 90.701 84.6202 90.5386C84.4973 90.4011 84.3427 90.335 84.1565 90.3404C83.9723 90.3439 83.7484 90.4204 83.4848 90.5698L82.5126 91.1296C81.9667 91.4452 81.4818 91.5882 81.0581 91.5585C80.6326 91.5267 80.2645 91.3349 79.9538 90.9831C79.6874 90.6892 79.5386 90.3613 79.5074 89.9995C79.4765 89.6337 79.5538 89.2612 79.7393 88.8818C79.925 88.4985 80.2095 88.1356 80.5927 87.7931C81.1551 87.2904 81.7048 87.0146 82.2417 86.9656C82.7807 86.9147 83.2712 87.059 83.7131 87.3983Z" fill="#BC53F0"/>
<path d="M62.4192 154.892C61.0279 153.844 59.6722 153.91 58.3521 155.09C57.3305 156.003 56.9211 157.081 57.1239 158.324C57.3165 159.556 58.2239 161.068 59.8461 162.86C59.5766 162.027 59.5973 161.173 59.9082 160.296C60.2202 159.398 60.7551 158.61 61.5127 157.933C62.695 156.876 63.9645 156.402 65.3213 156.511C66.6896 156.609 67.9534 157.307 69.1127 158.604C69.8103 159.385 70.2812 160.224 70.5253 161.12C70.7808 162.007 70.7628 162.911 70.4713 163.832C70.1912 164.743 69.615 165.589 68.7426 166.369C67.5603 167.425 66.4003 167.987 65.2626 168.054C64.1249 168.121 63.0085 167.808 61.9135 167.114C60.8185 166.42 59.6605 165.39 58.4397 164.024C54.6745 159.812 54.2612 156.392 57.1998 153.766C58.3247 152.76 59.4804 152.274 60.667 152.308C61.8535 152.342 62.9197 152.773 63.8655 153.6L62.4192 154.892ZM62.3705 159.551C61.8769 159.992 61.5043 160.511 61.2528 161.107C60.991 161.692 60.907 162.315 61.0009 162.974C61.096 163.612 61.4051 164.223 61.9283 164.809C62.708 165.681 63.5967 166.167 64.5942 166.267C65.5814 166.355 66.5457 165.978 67.4869 165.137C68.2904 164.419 68.7069 163.603 68.7364 162.688C68.7671 161.752 68.4029 160.86 67.6437 160.01C66.8435 159.115 65.9881 158.62 65.0775 158.525C64.1567 158.419 63.2543 158.761 62.3705 159.551ZM66.5292 151.529C65.6657 150.401 65.3345 149.21 65.5357 147.957C65.7368 146.703 66.4228 145.553 67.5937 144.507C68.3742 143.809 69.174 143.353 69.9929 143.137C70.8131 142.899 71.5821 142.893 72.2999 143.119C73.0293 143.334 73.6658 143.746 74.2096 144.355C74.8456 145.066 75.1879 145.865 75.2363 146.751C75.2962 147.627 75.0657 148.431 74.5448 149.165L74.6218 149.251C75.532 148.768 76.4464 148.602 77.3647 148.751C78.2831 148.901 79.1322 149.412 79.9119 150.284C80.4967 150.939 80.8758 151.663 81.0493 152.458C81.2125 153.241 81.129 154.049 80.7989 154.881C80.4687 155.713 79.8847 156.503 79.0467 157.252C77.83 158.339 76.5492 158.916 75.2044 158.983C73.8493 159.037 72.6026 158.52 71.4643 157.432L72.9795 156.077C73.6754 156.694 74.4594 157.005 75.3313 157.011C76.2033 157.016 77.041 156.66 77.8446 155.942C78.6481 155.223 79.0718 154.473 79.1157 153.69C79.1608 152.886 78.8858 152.151 78.2908 151.485C77.5213 150.624 76.6804 150.261 75.7679 150.395C74.8554 150.529 73.8195 151.115 72.6601 152.151L72.2641 152.505L71.0945 151.196L71.5078 150.827C72.5535 149.871 73.1974 148.986 73.4394 148.171C73.6711 147.345 73.4689 146.575 72.8329 145.864C72.2891 145.255 71.6522 144.947 70.9222 144.939C70.2036 144.92 69.477 145.239 68.7423 145.896C68.0307 146.532 67.6209 147.229 67.513 147.986C67.4051 148.743 67.588 149.468 68.0616 150.159L66.5292 151.529ZM84.966 147.904L87.1772 154.259L86.1269 155.198L83.2442 149.443L84.966 147.904ZM82.7631 142.347C80.9985 140.372 79.9452 138.547 79.6031 136.87C79.2507 135.183 79.8781 133.62 81.4851 132.184C83.0806 130.758 84.6974 130.314 86.3354 130.853C87.9631 131.381 89.6592 132.632 91.4238 134.606C93.2192 136.615 94.2931 138.463 94.6454 140.151C94.9978 141.839 94.3762 143.396 92.7806 144.822C91.1736 146.258 89.5511 146.707 87.9131 146.168C86.2752 145.629 84.5585 144.355 82.7631 142.347ZM89.8742 135.991C88.9816 134.992 88.1587 134.21 87.4054 133.645C86.6533 133.057 85.8808 132.736 85.088 132.681C84.3067 132.615 83.5315 132.926 82.7624 133.613C81.9818 134.311 81.5747 135.057 81.5411 135.851C81.5189 136.634 81.7519 137.438 82.2399 138.261C82.7292 139.063 83.4202 139.963 84.3127 140.962C85.2361 141.995 86.0738 142.805 86.8259 143.392C87.5894 143.969 88.3619 144.291 89.1432 144.356C89.9361 144.412 90.7228 144.091 91.5033 143.393C92.2724 142.706 92.668 141.97 92.6902 141.186C92.7238 140.392 92.4909 139.589 91.9913 138.776C91.5032 137.952 90.7975 137.024 89.8742 135.991ZM93.5749 132.684C91.8103 130.709 90.7569 128.884 90.4148 127.207C90.0625 125.519 90.6898 123.957 92.2969 122.521C93.8924 121.095 95.5092 120.651 97.1471 121.19C98.7748 121.718 100.471 122.968 102.236 124.943C104.031 126.952 105.105 128.8 105.457 130.488C105.81 132.176 105.188 133.733 103.592 135.159C101.985 136.595 100.363 137.044 98.7249 136.505C97.0869 135.966 95.3703 134.692 93.5749 132.684ZM100.686 126.328C99.7934 125.329 98.9705 124.547 98.2172 123.981C97.4651 123.394 96.6926 123.073 95.8998 123.017C95.1184 122.952 94.3432 123.263 93.5742 123.95C92.7936 124.648 92.3865 125.393 92.3529 126.187C92.3307 126.971 92.5637 127.775 93.0517 128.598C93.541 129.4 94.232 130.3 95.1245 131.298C96.0479 132.332 96.8856 133.142 97.6376 133.729C98.4012 134.306 99.1737 134.628 99.955 134.693C100.748 134.749 101.535 134.428 102.315 133.73C103.084 133.042 103.48 132.307 103.502 131.523C103.536 130.729 103.303 129.926 102.803 129.112C102.315 128.289 101.609 127.361 100.686 126.328ZM104.387 123.02C102.622 121.046 101.569 119.221 101.227 117.544C100.874 115.856 101.502 114.294 103.109 112.858C104.704 111.432 106.321 110.988 107.959 111.527C109.587 112.054 111.283 113.305 113.047 115.28C114.843 117.288 115.917 119.137 116.269 120.825C116.621 122.513 116 124.07 114.404 125.496C112.797 126.932 111.175 127.381 109.537 126.842C107.899 126.303 106.182 125.029 104.387 123.02ZM111.498 116.665C110.605 115.666 109.782 114.884 109.029 114.318C108.277 113.731 107.504 113.41 106.712 113.354C105.93 113.289 105.155 113.599 104.386 114.287C103.605 114.984 103.198 115.73 103.165 116.524C103.142 117.308 103.375 118.112 103.864 118.935C104.353 119.737 105.044 120.637 105.936 121.635C106.86 122.668 107.697 123.479 108.449 124.066C109.213 124.643 109.985 124.964 110.767 125.03C111.56 125.085 112.346 124.764 113.127 124.067C113.896 123.379 114.292 122.644 114.314 121.86C114.347 121.066 114.114 120.262 113.615 119.449C113.127 118.626 112.421 117.698 111.498 116.665Z" fill="#D1D1D1"/>
<mask id="mask0_1_112" style="mask-type:luminance" maskUnits="userSpaceOnUse" x="105" y="37" width="73" height="73">
<path d="M143.22 37.0834L105.406 71.2289L139.551 109.04L177.365 74.8941L143.22 37.0834Z" fill="white"/>
</mask>
<g mask="url(#mask0_1_112)">
<path d="M153.504 87.603L153.488 87.6083L153.436 87.6206C153.133 87.6922 152.828 87.7594 152.523 87.8221C148.838 88.5627 145.085 88.9127 141.326 88.866C134.646 88.7572 126.272 87.2064 120.689 81.0245C116.524 76.4115 117.103 69.2478 121.788 65.0166C123.085 63.834 124.632 62.9589 126.314 62.4565C127.995 61.954 129.769 61.8372 131.502 62.1146C131.402 60.3621 131.698 58.6095 132.37 56.9874C133.041 55.3654 134.069 53.9154 135.378 52.7455C140.062 48.5158 147.248 48.6684 151.413 53.2812C156.997 59.4649 157.689 67.9529 157.115 74.6058C156.78 78.3496 156.05 82.0474 154.938 85.638C154.845 85.9361 154.748 86.2328 154.646 86.528L154.629 86.5782L154.624 86.5944L154.62 86.6003C154.531 86.8451 154.383 87.0643 154.19 87.2389C153.997 87.4135 153.764 87.5381 153.511 87.6019L153.504 87.603Z" fill="#C859FF"/>
</g>
<rect x="1.42597" y="128.84" width="190.885" height="102.874" rx="8.5" transform="rotate(-41.7893 1.42597 128.84)" stroke="#333333"/>
</svg>
