<svg width="24" height="24" viewBox="0 0 24 24" fill="none" xmlns="http://www.w3.org/2000/svg">
<path d="M6.616 21C6.15533 21 5.771 20.846 5.463 20.538C5.155 20.23 5.00067 19.8457 5 19.385V4.615C5 4.155 5.15433 3.771 5.463 3.463C5.77167 3.155 6.156 3.00067 6.616 3H13.829C14.0443 3 14.2537 3.04333 14.457 3.13C14.6603 3.21667 14.8343 3.333 14.979 3.479L18.52 7.02C18.6647 7.16533 18.7807 7.33933 18.868 7.542C18.9553 7.74467 18.999 7.954 18.999 8.17V19.384C18.999 19.844 18.8447 20.2283 18.536 20.537C18.2273 20.8457 17.8437 21 17.385 21H6.616ZM14 7.192C14 7.42467 14.0767 7.61733 14.23 7.77C14.3833 7.92267 14.576 7.99933 14.808 8H18L14 4V7.192Z" fill="#C858FF"/>
</svg>
