<svg width="53" height="46" viewBox="0 0 53 46" fill="none" xmlns="http://www.w3.org/2000/svg">
<g clip-path="url(#clip0_1_34)">
<path d="M52.3127 22.9548C52.3127 27.2594 47.5268 30.3344 45.55 33.8191C43.4692 37.4066 43.053 43.044 39.4117 45.0939C35.8741 47.1437 30.7762 44.6838 26.4064 44.6838C22.0366 44.6838 16.9386 47.0413 13.4011 45.0939C9.75971 43.044 9.34353 37.4066 7.26271 33.8191C5.18188 30.3344 0.5 27.2594 0.5 22.9548C0.5 18.6499 5.28591 15.5751 7.26271 12.0902C9.34353 8.50287 9.75971 2.96812 13.4011 0.815709C16.9386 -1.2342 22.0366 1.22569 26.4064 1.22569C30.7762 1.22569 35.8741 -1.13171 39.4117 0.815709C43.053 2.86562 43.4692 8.50287 45.55 12.0902C47.6308 15.5751 52.3127 18.6499 52.3127 22.9548Z" fill="white" fill-opacity="0.13"/>
</g>
<defs>
<clipPath id="clip0_1_34">
<rect width="52" height="46" fill="white" transform="translate(0.5)"/>
</clipPath>
</defs>
</svg>
