<svg xmlns="http://www.w3.org/2000/svg" viewBox="0 0 100 100" id="svg2367347241"><path d="M 1 50 C 1 22.938 22.938 1 50 1 C 77.062 1 99 22.938 99 50 C 99 77.062 77.062 99 50 99 C 22.938 99 1 77.062 1 50 Z" fill="rgba(19,19,19,0.89)" stroke-width="2" stroke="rgb(NaN,NaN,NaN)" stroke-miterlimit="10" stroke-dasharray=""></path><g transform="translate(22 22)" id="ss2367347241_2"><path d="M 0 56 L 0 0 L 56 0 L 56 56 Z" fill="transparent"></path><path d="M 27.654 5.25 C 15.472 5.436 5.515 15.332 5.25 27.521 C 5.157 31.62 6.179 35.668 8.207 39.233 C 8.287 39.372 8.404 39.486 8.544 39.564 C 8.684 39.642 8.844 39.679 9.004 39.672 C 9.164 39.666 9.32 39.615 9.453 39.526 C 9.587 39.437 9.693 39.312 9.761 39.167 C 11.404 35.678 12.253 31.867 12.248 28.011 C 12.244 25.648 12.773 23.316 13.796 21.186 C 14.819 19.057 16.309 17.186 18.156 15.712 C 18.337 15.571 18.544 15.466 18.766 15.405 C 18.988 15.343 19.219 15.326 19.447 15.354 C 19.675 15.382 19.896 15.454 20.096 15.568 C 20.296 15.681 20.472 15.832 20.614 16.013 C 20.755 16.194 20.86 16.402 20.922 16.623 C 20.983 16.845 21 17.076 20.972 17.304 C 20.944 17.533 20.872 17.753 20.759 17.953 C 20.646 18.153 20.494 18.329 20.313 18.471 C 18.886 19.618 17.734 21.071 16.944 22.723 C 16.154 24.375 15.746 26.184 15.75 28.015 C 15.756 33.269 14.363 38.429 11.714 42.966 C 11.616 43.133 11.576 43.328 11.6 43.52 C 11.624 43.712 11.711 43.89 11.847 44.028 C 12.285 44.465 12.742 44.903 13.215 45.301 C 13.312 45.382 13.425 45.441 13.547 45.475 C 13.669 45.508 13.797 45.514 13.921 45.494 C 14.046 45.473 14.165 45.425 14.269 45.354 C 14.374 45.283 14.462 45.19 14.527 45.082 C 16.464 41.867 17.839 38.346 18.594 34.669 C 18.686 34.215 18.956 33.815 19.343 33.559 C 19.73 33.303 20.203 33.211 20.658 33.303 C 21.112 33.396 21.512 33.665 21.768 34.052 C 22.024 34.439 22.116 34.912 22.024 35.367 C 21.178 39.516 19.618 43.486 17.415 47.101 C 17.352 47.204 17.312 47.318 17.296 47.437 C 17.28 47.556 17.289 47.677 17.322 47.793 C 17.355 47.908 17.411 48.016 17.487 48.109 C 17.563 48.202 17.658 48.278 17.765 48.332 C 18.305 48.606 18.858 48.86 19.421 49.091 C 19.615 49.175 19.832 49.185 20.033 49.12 C 20.234 49.055 20.405 48.92 20.514 48.739 C 24.273 42.497 26.256 35.347 26.25 28.061 C 26.245 27.612 26.41 27.177 26.712 26.844 C 27.014 26.511 27.43 26.305 27.877 26.265 C 28.117 26.248 28.358 26.281 28.585 26.361 C 28.812 26.442 29.019 26.568 29.195 26.732 C 29.37 26.896 29.511 27.095 29.606 27.316 C 29.702 27.536 29.751 27.775 29.75 28.015 C 29.759 35.455 27.86 42.772 24.235 49.269 C 24.166 49.393 24.127 49.533 24.124 49.675 C 24.12 49.818 24.152 49.959 24.215 50.087 C 24.279 50.215 24.373 50.325 24.489 50.408 C 24.605 50.491 24.739 50.544 24.881 50.564 C 25.544 50.656 26.216 50.718 26.895 50.752 C 27.059 50.758 27.22 50.718 27.362 50.637 C 27.504 50.556 27.62 50.436 27.698 50.293 C 31.336 43.487 33.243 35.891 33.25 28.175 C 33.261 25.276 30.997 22.818 28.101 22.763 C 27.404 22.749 26.711 22.875 26.064 23.132 C 25.416 23.389 24.826 23.772 24.328 24.26 C 23.83 24.747 23.434 25.329 23.163 25.971 C 22.892 26.613 22.752 27.303 22.75 28 C 22.747 28.437 22.582 28.857 22.288 29.18 C 21.993 29.503 21.59 29.706 21.155 29.75 C 20.913 29.771 20.668 29.742 20.438 29.664 C 20.207 29.586 19.995 29.46 19.816 29.295 C 19.637 29.131 19.494 28.93 19.396 28.707 C 19.299 28.484 19.249 28.243 19.25 28 C 19.25 26.843 19.479 25.697 19.925 24.63 C 20.37 23.562 21.023 22.593 21.845 21.78 C 22.667 20.966 23.643 20.323 24.715 19.889 C 25.787 19.455 26.935 19.237 28.092 19.25 C 32.904 19.3 36.772 23.443 36.748 28.253 C 36.726 35.388 35.197 42.438 32.259 48.941 C 32.192 49.09 32.169 49.256 32.192 49.418 C 32.214 49.581 32.282 49.733 32.388 49.859 C 32.493 49.985 32.632 50.078 32.788 50.129 C 32.944 50.18 33.111 50.186 33.27 50.146 C 34.029 49.966 34.778 49.747 35.514 49.49 C 35.629 49.449 35.734 49.385 35.822 49.301 C 35.911 49.218 35.981 49.116 36.028 49.004 C 37.047 46.59 37.886 44.104 38.539 41.566 C 38.597 41.344 38.697 41.135 38.836 40.951 C 38.974 40.767 39.147 40.613 39.345 40.496 C 39.543 40.379 39.762 40.303 39.99 40.27 C 40.218 40.238 40.45 40.251 40.672 40.309 C 40.895 40.366 41.104 40.467 41.288 40.605 C 41.471 40.743 41.626 40.917 41.743 41.115 C 41.859 41.313 41.936 41.532 41.968 41.76 C 42 41.987 41.987 42.219 41.93 42.442 C 41.767 43.079 41.592 43.713 41.405 44.345 C 41.35 44.526 41.356 44.721 41.421 44.9 C 41.487 45.078 41.608 45.23 41.768 45.333 C 41.928 45.436 42.116 45.484 42.306 45.471 C 42.495 45.457 42.675 45.382 42.818 45.257 C 46.365 42.211 48.888 38.145 50.043 33.614 C 51.197 29.083 50.927 24.306 49.27 19.934 C 47.613 15.562 44.649 11.806 40.781 9.179 C 36.913 6.551 32.33 5.179 27.654 5.25 Z M 43.312 35.236 C 43.259 35.658 43.054 36.047 42.735 36.328 C 42.416 36.61 42.005 36.766 41.58 36.767 C 41.507 36.767 41.434 36.763 41.361 36.754 C 41.133 36.726 40.913 36.653 40.713 36.539 C 40.513 36.425 40.337 36.274 40.196 36.092 C 40.055 35.911 39.951 35.703 39.89 35.482 C 39.829 35.26 39.812 35.029 39.841 34.801 C 40.12 32.551 40.26 30.286 40.261 28.019 C 40.256 24.772 38.964 21.659 36.668 19.362 C 34.371 17.066 31.258 15.774 28.011 15.769 C 27.499 15.769 26.988 15.8 26.48 15.863 C 26.019 15.921 25.554 15.794 25.187 15.509 C 24.82 15.224 24.581 14.805 24.523 14.344 C 24.465 13.883 24.592 13.418 24.877 13.051 C 25.162 12.684 25.581 12.445 26.042 12.387 C 28.259 12.112 30.51 12.31 32.645 12.97 C 34.78 13.629 36.75 14.735 38.426 16.214 C 40.101 17.692 41.443 19.51 42.363 21.546 C 43.282 23.583 43.759 25.791 43.761 28.026 C 43.76 30.436 43.611 32.844 43.312 35.236 Z" fill="var(--token-c96b11c5-0be2-4868-8793-b31bec4696b1, rgb(200, 88, 255)) /* {&quot;name&quot;:&quot;brand&quot;} */"></path></g></svg>