<svg xmlns="http://www.w3.org/2000/svg" viewBox="0 0 100 100" id="svg2893580675"><path d="M 1 50 C 1 22.938 22.938 1 50 1 C 77.062 1 99 22.938 99 50 C 99 77.062 77.062 99 50 99 C 22.938 99 1 77.062 1 50 Z" fill="rgba(19,19,19,0.89)" stroke-width="2" stroke="rgb(NaN,NaN,NaN)" stroke-miterlimit="10" stroke-dasharray=""></path><g transform="translate(22 22)" id="ss2893580675_2"><path d="M 0 56 L 0 0 L 56 0 L 56 56 Z" fill="transparent"></path><path d="M 52.501 35.001 C 52.498 39.362 50.867 43.565 47.927 46.786 C 44.988 50.007 40.951 52.015 36.609 52.416 C 32.266 52.817 27.93 51.582 24.451 48.952 C 20.971 46.323 18.599 42.49 17.798 38.203 C 20.591 38.723 23.469 38.554 26.182 37.713 C 28.896 36.871 31.364 35.381 33.372 33.372 C 35.381 31.364 36.871 28.896 37.713 26.182 C 38.554 23.469 38.723 20.591 38.203 17.798 C 42.219 18.546 45.848 20.675 48.459 23.817 C 51.07 26.959 52.5 30.915 52.501 35.001 Z M 35.001 17.501 C 36.075 17.502 37.147 17.601 38.203 17.798 C 37.62 14.664 36.192 11.749 34.074 9.367 C 31.955 6.986 29.227 5.228 26.182 4.284 C 23.138 3.339 19.893 3.244 16.799 4.009 C 13.704 4.774 10.878 6.37 8.624 8.624 C 6.37 10.878 4.774 13.704 4.009 16.799 C 3.244 19.893 3.339 23.138 4.283 26.182 C 5.228 29.227 6.986 31.955 9.367 34.074 C 11.749 36.192 14.664 37.62 17.798 38.203 C 17.328 35.677 17.42 33.079 18.067 30.592 C 18.714 28.106 19.901 25.792 21.543 23.816 C 23.185 21.84 25.242 20.25 27.568 19.158 C 29.894 18.067 32.431 17.501 35.001 17.501 Z" fill="var(--token-c96b11c5-0be2-4868-8793-b31bec4696b1, rgb(200, 88, 255)) /* {&quot;name&quot;:&quot;brand&quot;} */"></path></g></svg>