<svg width="24" height="24" viewBox="0 0 24 24" fill="none" xmlns="http://www.w3.org/2000/svg">
<g clip-path="url(#clip0_894_1141)">
<path d="M23.2366 6.82497V18.822C23.2291 18.9673 23.1872 19.1089 23.1144 19.2349C23.0416 19.3609 22.9398 19.4679 22.8176 19.547L22.4246 19.782C20.4636 20.917 18.7376 21.916 16.9936 22.922V9.94797L5.76062 3.45397C7.70462 2.33797 9.64163 1.21097 11.5876 0.0999717C11.7174 0.0345608 11.8608 0.000488281 12.0061 0.000488281C12.1515 0.000488281 12.2948 0.0345608 12.4246 0.0999717L23.2346 6.34297V6.82497H23.2366ZM14.4956 11.387C11.9316 9.90446 9.36698 8.42312 6.80163 6.94297C6.67159 6.87832 6.52835 6.84467 6.38312 6.84467C6.2379 6.84467 6.09466 6.87832 5.96462 6.94297C4.23129 7.94297 2.49829 8.9443 0.765625 9.94697L8.87862 14.631V24C10.6106 23.001 12.3386 21.994 14.0756 21.005C14.1972 20.9254 14.2984 20.8185 14.3711 20.6927C14.4439 20.567 14.4862 20.426 14.4946 20.281L14.4956 11.387ZM0.766625 19.317L6.37962 22.558V16.07L0.766625 19.317Z" fill="#C858FF"/>
</g>
<defs>
<clipPath id="clip0_894_1141">
<rect width="24" height="24" fill="white"/>
</clipPath>
</defs>
</svg>
