<svg width="212" height="103" viewBox="0 0 212 103" fill="none" xmlns="http://www.w3.org/2000/svg">
<rect x="14.0416" y="0.949982" width="203.967" height="50.9345" rx="25.4673" transform="rotate(15 14.0416 0.949982)" fill="#272727"/>
<path d="M52.4038 36.042C51.7583 38.439 50.2585 40.5172 48.187 41.8852C46.1155 43.2532 43.6153 43.8164 41.1574 43.469C41.1028 43.4608 41.0505 43.4411 41.0041 43.4112C40.9576 43.3813 40.918 43.342 40.8879 43.2957C40.8578 43.2494 40.8379 43.1973 40.8294 43.1427C40.8209 43.0881 40.8241 43.0324 40.8387 42.9791L42.741 35.8795L45.0051 36.4861C45.1085 36.5141 45.2165 36.5205 45.3225 36.5049C45.4284 36.4893 45.5301 36.4522 45.6211 36.3957C45.7121 36.3392 45.7905 36.2646 45.8514 36.1765C45.9124 36.0884 45.9546 35.9887 45.9754 35.8837C46.0107 35.6851 45.9695 35.4806 45.8602 35.3112C45.7508 35.1418 45.5814 35.02 45.3859 34.9705L43.1455 34.3701L43.7521 32.1061C43.8594 31.7058 44.1213 31.3645 44.4802 31.1573C44.8391 30.9501 45.2656 30.8939 45.6659 31.0012L47.1753 31.4056C47.2787 31.4335 47.3867 31.4399 47.4927 31.4244C47.5986 31.4088 47.7003 31.3716 47.7913 31.3151C47.8823 31.2586 47.9607 31.184 48.0216 31.0959C48.0826 31.0079 48.1247 30.9082 48.1456 30.8031C48.1809 30.6043 48.1396 30.3994 48.0299 30.2298C47.9201 30.0602 47.7501 29.9386 47.5542 29.8894L46.0703 29.4918C45.2697 29.2773 44.4167 29.3896 43.6989 29.804C42.9811 30.2184 42.4573 30.901 42.2428 31.7017L41.6361 33.9657L39.3721 33.3591C39.2687 33.3311 39.1606 33.3247 39.0547 33.3403C38.9487 33.3558 38.847 33.393 38.7561 33.4495C38.6651 33.506 38.5867 33.5806 38.5257 33.6687C38.4648 33.7568 38.4226 33.8564 38.4018 33.9615C38.3664 34.1604 38.4077 34.3653 38.5175 34.5348C38.6272 34.7044 38.7972 34.8261 38.9931 34.8752L41.2317 35.4751L39.3288 42.5766C39.3149 42.6299 39.2898 42.6797 39.2552 42.7227C39.2207 42.7656 39.1774 42.8008 39.1283 42.8258C39.0792 42.8508 39.0254 42.8652 38.9703 42.8679C38.9152 42.8707 38.8602 42.8617 38.8089 42.8417C36.4447 41.8892 34.5243 40.0839 33.4278 37.7831C32.3312 35.4822 32.1384 32.8536 32.8876 30.4173C34.4412 25.3738 39.6771 22.3381 44.828 23.506C46.1616 23.8085 47.4204 24.3769 48.5292 25.1771C49.638 25.9773 50.574 26.993 51.2813 28.1633C51.9885 29.3336 52.4524 30.6345 52.6453 31.9883C52.8382 33.342 52.7561 34.7208 52.4038 36.042Z" fill="#BC53F0"/>
<path d="M96.6043 41.9729C96.6086 41.6013 96.5245 41.234 96.3589 40.9013C96.1933 40.5686 95.951 40.2801 95.6519 40.0595C92.7528 37.944 87.6029 36.5762 87.3199 36.5004C87.0368 36.4246 81.893 35.0341 78.3245 35.4166C77.9552 35.4581 77.6011 35.5869 77.2913 35.7922C76.9816 35.9975 76.7251 36.2735 76.543 36.5975C76.0464 37.4735 75.2948 39.1163 74.53 41.9709C73.7651 44.8254 73.5946 46.624 73.5866 47.6309C73.5822 48.0026 73.6662 48.3701 73.8317 48.7029C73.9973 49.0358 74.2396 49.3245 74.5388 49.5452C77.3165 51.5705 82.1542 52.9113 82.8088 53.0867L82.9334 53.12C83.588 53.2955 88.4508 54.5539 91.8662 54.1881C92.2356 54.1465 92.5899 54.0176 92.8997 53.8122C93.2095 53.6067 93.4659 53.3304 93.6479 53.0063C94.145 52.1284 94.8961 50.4875 95.661 47.6329C96.4259 44.7783 96.5964 42.9798 96.6043 41.9729ZM88.2394 45.981L82.9025 47.7864C82.8355 47.8091 82.7636 47.8132 82.6945 47.7982C82.6253 47.7832 82.5616 47.7497 82.51 47.7014C82.4584 47.653 82.4209 47.5915 82.4015 47.5234C82.3821 47.4554 82.3816 47.3834 82.3999 47.3151L84.0176 41.2776C84.0359 41.2093 84.0724 41.1472 84.1232 41.0979C84.174 41.0487 84.2372 41.0142 84.3061 40.9981C84.375 40.982 84.4469 40.9849 84.5143 41.0065C84.5817 41.0281 84.6419 41.0676 84.6886 41.1207L88.4078 45.3527C88.4503 45.401 88.4803 45.4591 88.4949 45.5218C88.5096 45.5844 88.5086 45.6498 88.4919 45.7119C88.4752 45.7741 88.4435 45.8312 88.3994 45.8781C88.3554 45.9251 88.3004 45.9604 88.2394 45.981Z" fill="#BC53F0"/>
<path d="M138.622 54.2909L137.611 58.0643C137.557 58.2645 137.426 58.4351 137.247 58.5387C137.067 58.6423 136.854 58.6704 136.654 58.6168C135.076 58.198 133.624 57.4026 132.422 56.2988L131.418 60.0449C130.909 61.9463 129.665 63.5675 127.96 64.5518C126.255 65.5361 124.229 65.8028 122.328 65.2933C120.426 64.7838 118.805 63.5398 117.821 61.835C116.836 60.1302 116.57 58.1042 117.079 56.2028C118.012 52.7218 121.375 50.3248 124.903 50.627C125.016 50.6368 125.127 50.6714 125.226 50.7284C125.324 50.7854 125.41 50.8634 125.475 50.957C125.541 51.0505 125.585 51.1572 125.605 51.2697C125.625 51.3822 125.62 51.4976 125.59 51.6079L124.511 55.6351C124.473 55.7779 124.395 55.907 124.286 56.0073C124.177 56.1076 124.043 56.175 123.897 56.2016C123.553 56.2646 123.233 56.4186 122.969 56.6477C122.705 56.8767 122.507 57.1724 122.396 57.5039C122.285 57.8354 122.266 58.1906 122.339 58.5323C122.412 58.8741 122.576 59.1899 122.813 59.4469C123.05 59.7039 123.351 59.8926 123.686 59.9933C124.021 60.0941 124.376 60.1032 124.715 60.0196C125.055 59.9361 125.366 59.7631 125.615 59.5185C125.865 59.274 126.045 58.9669 126.135 58.6294L129.472 46.1771C129.525 45.977 129.656 45.8063 129.836 45.7027C130.015 45.5991 130.229 45.5711 130.429 45.6247L134.202 46.6358C134.402 46.6894 134.573 46.8203 134.677 46.9998C134.78 47.1792 134.808 47.3925 134.755 47.5927C134.434 48.7935 134.603 50.0725 135.225 51.1489C135.846 52.2252 136.869 53.0111 138.069 53.334C138.27 53.3877 138.44 53.5186 138.544 53.6981C138.647 53.8775 138.675 54.0908 138.622 54.2909Z" fill="#BC53F0"/>
<path d="M177.257 58.9811L168.201 56.5545C166.8 56.1807 165.308 56.3779 164.052 57.103C162.796 57.828 161.879 59.0215 161.503 60.4217L159.076 69.4779C158.702 70.8789 158.899 72.371 159.624 73.6268C160.349 74.8825 161.543 75.7994 162.943 76.1762L171.999 78.6028C173.4 78.9765 174.892 78.7793 176.148 78.0543C177.404 77.3293 178.321 76.1357 178.698 74.7355L181.124 65.6793C181.498 64.2783 181.301 62.7862 180.576 61.5305C179.851 60.2747 178.657 59.3579 177.257 58.9811ZM168.887 72.1067C167.991 71.8667 167.187 71.3666 166.576 70.6695C165.964 69.9724 165.573 69.1097 165.452 68.1905C165.331 67.2713 165.486 66.3368 165.896 65.5053C166.306 64.6737 166.953 63.9824 167.756 63.5189C168.559 63.0553 169.481 62.8402 170.407 62.9008C171.332 62.9615 172.218 63.2951 172.954 63.8595C173.689 64.4239 174.241 65.1938 174.539 66.0718C174.837 66.9497 174.868 67.8963 174.628 68.7919C174.305 69.9921 173.519 71.0152 172.443 71.6366C171.367 72.2581 170.088 72.4271 168.887 72.1067ZM176.973 64.5672C176.75 64.5072 176.548 64.3821 176.396 64.2079C176.243 64.0336 176.145 63.8179 176.115 63.5881C176.085 63.3583 176.123 63.1247 176.226 62.9168C176.328 62.7089 176.49 62.5361 176.691 62.4202C176.892 62.3043 177.122 62.2505 177.353 62.2657C177.585 62.2809 177.806 62.3643 177.99 62.5054C178.174 62.6465 178.312 62.8389 178.387 63.0584C178.461 63.2779 178.469 63.5146 178.409 63.7385C178.328 64.0387 178.132 64.2947 177.863 64.4501C177.594 64.6055 177.274 64.6476 176.973 64.5672ZM173.119 68.3875C172.959 68.9845 172.625 69.5207 172.161 69.9283C171.696 70.3358 171.121 70.5964 170.508 70.6771C169.895 70.7578 169.272 70.6549 168.718 70.3815C168.163 70.1082 167.703 69.6765 167.394 69.1412C167.084 68.6059 166.941 67.991 166.982 67.3742C167.022 66.7574 167.244 66.1665 167.621 65.6761C167.997 65.1857 168.51 64.818 169.095 64.6193C169.681 64.4206 170.312 64.3999 170.909 64.5599C171.71 64.7744 172.392 65.2982 172.807 66.016C173.221 66.7338 173.333 67.5869 173.119 68.3875Z" fill="#BC53F0"/>
<rect x="14.3951" y="1.56235" width="203.102" height="49.9348" rx="24.9674" transform="rotate(15 14.3951 1.56235)" stroke="#333333"/>
</svg>
