<svg width="169" height="156" viewBox="0 0 169 156" fill="none" xmlns="http://www.w3.org/2000/svg">
<rect x="0.880005" y="10.93" width="158" height="145" rx="7" transform="rotate(-3.74964 0.880005 10.93)" fill="#161616"/>
<rect x="13.88" y="24.23" width="9.00069" height="9.00069" rx="4.50035" transform="rotate(-16.7496 13.88 24.23)" fill="#F7B05B"/>
<path d="M27.9258 30.1998L27.493 23.5958L28.6894 23.5174L29.0565 29.1186L31.9651 28.928L32.0308 29.9308L27.9258 30.1998ZM34.4493 29.8727C34.1355 29.8933 33.8491 29.8559 33.5903 29.7606C33.3334 29.663 33.1247 29.5083 32.964 29.2964C32.8054 29.0845 32.7155 28.8162 32.6943 28.4916C32.6759 28.2121 32.7124 27.9776 32.8036 27.7881C32.8948 27.5986 33.026 27.4432 33.1973 27.3219C33.3685 27.2006 33.5641 27.1046 33.784 27.0341C34.0059 26.9612 34.2364 26.904 34.4755 26.8625C34.7638 26.8133 34.9974 26.771 35.1764 26.7356C35.3553 26.6979 35.4839 26.6506 35.5622 26.5937C35.6425 26.5344 35.679 26.4489 35.6717 26.3371L35.6704 26.3178C35.6545 26.0749 35.5702 25.8915 35.4174 25.7677C35.2646 25.6438 35.0528 25.5908 34.782 25.6085C34.496 25.6272 34.2733 25.7045 34.1138 25.8401C33.9565 25.9757 33.8543 26.1302 33.8074 26.3039L32.7073 26.2205C32.7736 25.9139 32.899 25.6531 33.0835 25.4381C33.2679 25.2209 33.4998 25.0524 33.7791 24.9326C34.0582 24.8107 34.3709 24.7384 34.717 24.7157C34.9556 24.7001 35.195 24.7125 35.4351 24.7529C35.6752 24.7932 35.8973 24.8715 36.1014 24.9877C36.3054 25.1017 36.4736 25.2645 36.6062 25.476C36.741 25.6874 36.8192 25.9575 36.8407 26.2864L37.058 29.6014L35.9358 29.6749L35.8912 28.9945L35.8525 28.997C35.7906 29.1393 35.6991 29.2748 35.578 29.4036C35.4589 29.5302 35.305 29.6364 35.1163 29.7221C34.9296 29.8056 34.7073 29.8558 34.4493 29.8727ZM34.6962 28.9951C34.9306 28.9797 35.1307 28.9202 35.2966 28.8165C35.4624 28.7106 35.5864 28.5773 35.6687 28.4164C35.7532 28.2555 35.7894 28.0836 35.7774 27.9009L35.7392 27.3172C35.7046 27.3497 35.6441 27.3817 35.5576 27.4133C35.4733 27.4448 35.3781 27.4737 35.2719 27.5001C35.1656 27.5264 35.0604 27.5506 34.956 27.5726C34.8517 27.5945 34.7611 27.6134 34.6845 27.6292C34.5119 27.6643 34.3586 27.7132 34.2245 27.776C34.0904 27.8387 33.9868 27.9211 33.9136 28.023C33.8403 28.1228 33.8085 28.248 33.8184 28.3985C33.8325 28.6134 33.9216 28.7706 34.0857 28.8699C34.2498 28.9693 34.4533 29.011 34.6962 28.9951ZM41.9076 25.624L40.8511 25.8099C40.8139 25.7044 40.7547 25.6068 40.6732 25.5171C40.5939 25.4273 40.49 25.3575 40.3615 25.3076C40.2331 25.2577 40.0785 25.2387 39.8979 25.2506C39.655 25.2665 39.4543 25.3325 39.2956 25.4487C39.1391 25.5648 39.0675 25.7066 39.0806 25.8741C39.0879 26.0183 39.1483 26.132 39.2617 26.2152C39.3772 26.2983 39.5627 26.3607 39.818 26.4022L40.6747 26.5274C41.1499 26.5977 41.5087 26.7351 41.7509 26.9394C41.9953 27.1436 42.1302 27.423 42.1556 27.7776C42.1739 28.0894 42.1006 28.3706 41.9356 28.621C41.7727 28.8692 41.5365 29.0704 41.2271 29.2245C40.9177 29.3786 40.5566 29.4692 40.1438 29.4963C39.5376 29.536 39.0413 29.4411 38.6549 29.2117C38.2684 28.9801 38.0247 28.6388 37.9239 28.1877L39.055 28.0034C39.1213 28.2236 39.2419 28.3852 39.4171 28.4882C39.5922 28.5911 39.8142 28.6338 40.0829 28.6162C40.3602 28.598 40.579 28.5264 40.7392 28.4015C40.9016 28.2764 40.9772 28.1301 40.9663 27.9624C40.957 27.8205 40.8945 27.7069 40.7788 27.6217C40.6652 27.5363 40.4929 27.4763 40.2618 27.4418L39.4053 27.3198C38.9237 27.2521 38.5613 27.1085 38.3181 26.8891C38.0747 26.6676 37.9423 26.3762 37.9208 26.0149C37.8986 25.7098 37.964 25.4399 38.1171 25.2053C38.2721 24.9685 38.4961 24.7789 38.789 24.6367C39.084 24.4921 39.4292 24.4069 39.8248 24.381C40.4052 24.3429 40.8701 24.4366 41.2195 24.662C41.5711 24.8872 41.8005 25.2079 41.9076 25.624ZM45.364 24.0827L45.4232 24.9856L42.5759 25.1722L42.5167 24.2693L45.364 24.0827ZM43.1419 23.0366L44.3092 22.9601L44.614 27.61C44.6242 27.7669 44.6558 27.8857 44.7086 27.9665C44.7634 28.0449 44.8315 28.0966 44.913 28.1215C44.9945 28.1464 45.0837 28.1556 45.1804 28.1493C45.2535 28.1445 45.3198 28.1348 45.3793 28.1201C45.4409 28.1052 45.4876 28.0925 45.5193 28.0818L45.7758 28.9814C45.7148 29.007 45.6272 29.0365 45.5128 29.0699C45.4005 29.1032 45.2618 29.1274 45.0965 29.1425C44.8047 29.1703 44.5385 29.1435 44.2978 29.0621C44.057 28.9786 43.8611 28.8381 43.71 28.6408C43.561 28.4433 43.4775 28.1897 43.4593 27.88L43.1419 23.0366ZM51.3288 28.7568C51.0126 28.7753 50.7006 28.7407 50.3925 28.653C50.0844 28.563 49.8019 28.4034 49.5451 28.1741C49.2881 27.9427 49.0753 27.6274 48.9066 27.2283C48.7378 26.827 48.6346 26.3231 48.5971 25.7167C48.56 25.1514 48.5872 24.6433 48.6785 24.1926C48.7699 23.7418 48.9184 23.3564 49.1242 23.0364C49.3297 22.7142 49.5863 22.462 49.8939 22.2799C50.2037 22.0977 50.5563 21.9936 50.9519 21.9677C51.3668 21.9405 51.7397 21.9981 52.0707 22.1405C52.4039 22.2828 52.6787 22.4893 52.8951 22.7601C53.1113 23.0288 53.2547 23.3389 53.3252 23.6905L52.1482 23.7676C52.0714 23.5179 51.9346 23.3239 51.7377 23.1857C51.5428 23.0452 51.3035 22.9842 51.0197 23.0028C50.5618 23.0328 50.2223 23.2548 50.0011 23.6687C49.7821 24.0825 49.6943 24.6366 49.7376 25.3311L49.7828 25.3281C49.8757 25.1321 50.0016 24.9608 50.1604 24.8144C50.3192 24.668 50.5016 24.5513 50.7074 24.4644C50.9153 24.3752 51.1375 24.3229 51.374 24.3074C51.7609 24.282 52.1142 24.3517 52.4337 24.5164C52.7554 24.681 53.0172 24.9197 53.219 25.2325C53.4207 25.5431 53.5342 25.907 53.5594 26.3242C53.59 26.7583 53.5166 27.155 53.3394 27.5142C53.162 27.8713 52.9014 28.1604 52.5575 28.3815C52.2136 28.6027 51.804 28.7278 51.3288 28.7568ZM51.2589 27.7898C51.4933 27.7744 51.6991 27.7037 51.8765 27.5777C52.0539 27.4516 52.1901 27.2883 52.2849 27.0878C52.3797 26.8873 52.4181 26.6667 52.4002 26.4261C52.3868 26.1895 52.3212 25.979 52.2033 25.7945C52.0876 25.61 51.9347 25.4678 51.7447 25.368C51.5546 25.2682 51.3424 25.2259 51.1081 25.2413C50.934 25.2527 50.7739 25.2967 50.6277 25.3732C50.4816 25.4497 50.3565 25.5507 50.2525 25.6763C50.1483 25.7997 50.0691 25.9409 50.0147 26.0999C49.9624 26.2566 49.9408 26.4221 49.9501 26.5964C49.9673 26.8263 50.035 27.0345 50.153 27.2211C50.271 27.4076 50.4262 27.5529 50.6187 27.6569C50.8112 27.7608 51.0246 27.8052 51.2589 27.7898ZM56.6766 21.6832L58.1406 21.5873L60.4148 26.2441L60.4922 26.239L62.1391 21.3252L63.6031 21.2293L64.0359 27.8333L62.888 27.9085L62.5906 23.3715L62.5293 23.3755L61.0003 28.0128L60.1425 28.069L58.0207 23.6613L57.9594 23.6653L58.2574 28.212L57.1094 28.2872L56.6766 21.6832ZM67.4539 27.7064C66.9702 27.7381 66.544 27.6592 66.1754 27.4696C65.8067 27.28 65.5121 27.0003 65.2913 26.6305C65.0728 26.2605 64.9467 25.8197 64.9132 25.3081C64.8797 24.7964 64.947 24.3419 65.1153 23.9444C65.2857 23.5468 65.5413 23.2299 65.8821 22.9939C66.2228 22.7578 66.635 22.6239 67.1187 22.5922C67.6024 22.5605 68.0286 22.6394 68.3973 22.829C68.7659 23.0186 69.0596 23.2994 69.2783 23.6716C69.4991 24.0436 69.6263 24.4854 69.6599 24.997C69.6934 25.5086 69.6249 25.9622 69.4543 26.3577C69.2859 26.753 69.0314 27.0687 68.6906 27.3048C68.3498 27.5409 67.9376 27.6747 67.4539 27.7064ZM67.3991 26.7709C67.6613 26.7537 67.8759 26.6673 68.0427 26.5117C68.2094 26.354 68.3277 26.1498 68.3977 25.8991C68.4698 25.6482 68.4959 25.3723 68.4762 25.0713C68.4563 24.7682 68.3943 24.497 68.2901 24.2577C68.1879 24.0161 68.0439 23.828 67.858 23.6934C67.6722 23.5588 67.4481 23.5001 67.1858 23.5172C66.9171 23.5349 66.6983 23.6226 66.5295 23.7805C66.3628 23.9382 66.2435 24.1436 66.1715 24.3966C66.1016 24.6473 66.0766 24.9242 66.0964 25.2273C66.1162 25.5283 66.1771 25.7985 66.2791 26.0379C66.3833 26.2772 66.5283 26.4642 66.7142 26.5988C66.9021 26.7311 67.1304 26.7885 67.3991 26.7709ZM71.7888 24.4106L71.979 27.3127L70.8117 27.3892L70.4871 22.4362L71.6028 22.3631L71.6579 23.2047L71.716 23.2009C71.8117 22.9161 71.9789 22.6839 72.2176 22.5042C72.4584 22.3243 72.7637 22.2222 73.1335 22.198C73.4753 22.1756 73.7778 22.2292 74.041 22.3587C74.3064 22.4882 74.5181 22.687 74.676 22.9551C74.8361 23.2231 74.928 23.555 74.9518 23.9507L75.1584 27.1044L73.9911 27.1809L73.7963 24.2078C73.7746 23.8767 73.6716 23.6233 73.4874 23.4475C73.3053 23.2716 73.0638 23.1935 72.7628 23.2133C72.5586 23.2267 72.3799 23.2837 72.2267 23.3844C72.0756 23.4828 71.9603 23.6189 71.881 23.7925C71.8039 23.9659 71.7731 24.172 71.7888 24.4106ZM78.4938 21.9115L78.5529 22.8144L75.7056 23.001L75.6464 22.0981L78.4938 21.9115ZM76.2716 20.8654L77.4389 20.7889L77.7437 25.4388C77.754 25.5957 77.7855 25.7145 77.8383 25.7953C77.8931 25.8737 77.9613 25.9254 78.0428 25.9503C78.1243 25.9751 78.2134 25.9844 78.3101 25.9781C78.3832 25.9733 78.4495 25.9635 78.509 25.9489C78.5707 25.934 78.6173 25.9212 78.649 25.9105L78.9055 26.8102C78.8446 26.8358 78.7569 26.8653 78.6425 26.8987C78.5303 26.932 78.3915 26.9562 78.2263 26.9713C77.9345 26.9991 77.6682 26.9723 77.4276 26.8909C77.1868 26.8073 76.9908 26.6669 76.8397 26.4695C76.6907 26.272 76.6072 26.0184 76.5891 25.7087L76.2716 20.8654ZM80.8782 23.8149L81.0684 26.717L79.901 26.7935L79.4682 20.1895L80.6098 20.1147L80.7731 22.6073L80.8312 22.6035C80.9289 22.3165 81.094 22.0843 81.3263 21.9072C81.5607 21.7278 81.8671 21.6256 82.2454 21.6008C82.5894 21.5783 82.894 21.6307 83.1593 21.7579C83.4245 21.8852 83.6361 22.0829 83.794 22.3511C83.9541 22.6191 84.0472 22.953 84.0734 23.3529L84.2801 26.5065L83.1128 26.5831L82.9179 23.61C82.8961 23.2767 82.7931 23.0233 82.609 22.8497C82.4269 22.6738 82.1822 22.596 81.8748 22.6161C81.6684 22.6296 81.4865 22.6869 81.329 22.7879C81.1736 22.8866 81.0551 23.0228 80.9737 23.1966C80.8944 23.3701 80.8625 23.5763 80.8782 23.8149ZM89.1458 22.5282L88.0893 22.714C88.0522 22.6085 87.9929 22.5109 87.9115 22.4213C87.8322 22.3315 87.7283 22.2616 87.5998 22.2118C87.4713 22.1619 87.3168 22.1429 87.1362 22.1547C86.8933 22.1706 86.6925 22.2367 86.5339 22.3529C86.3774 22.4689 86.3057 22.6107 86.3189 22.7782C86.3261 22.9224 86.3865 23.0361 86.4999 23.1194C86.6155 23.2025 86.8009 23.2648 87.0562 23.3064L87.9129 23.4316C88.3882 23.5019 88.7469 23.6392 88.9892 23.8436C89.2336 24.0478 89.3685 24.3271 89.3939 24.6817C89.4121 24.9936 89.3388 25.2747 89.1739 25.5252C89.0109 25.7733 88.7747 25.9745 88.4653 26.1286C88.1559 26.2828 87.7948 26.3734 87.3821 26.4004C86.7758 26.4401 86.2795 26.3453 85.8931 26.1158C85.5066 25.8843 85.263 25.5429 85.1621 25.0918L86.2932 24.9076C86.3595 25.1278 86.4802 25.2893 86.6553 25.3923C86.8305 25.4952 87.0524 25.5379 87.3211 25.5203C87.5985 25.5021 87.8172 25.4306 87.9774 25.3056C88.1398 25.1806 88.2155 25.0342 88.2045 24.8665C88.1952 24.7246 88.1327 24.6111 88.017 24.5258C87.9035 24.4404 87.7311 24.3805 87.5 24.346L86.6435 24.224C86.162 24.1562 85.7996 24.0127 85.5563 23.7933C85.313 23.5717 85.1805 23.2803 85.159 22.919C85.1368 22.6139 85.2023 22.3441 85.3553 22.1095C85.5103 21.8726 85.7343 21.6831 86.0273 21.5408C86.3222 21.3963 86.6675 21.311 87.063 21.2851C87.6434 21.2471 88.1084 21.3407 88.4578 21.5661C88.8093 21.7914 89.0387 22.1121 89.1458 22.5282Z" fill="#D1D1D1"/>
<rect x="19.48" y="96.02" width="7.00512" height="29.0023" rx="3.50256" transform="rotate(-3.74964 19.48 96.02)" fill="#F7B05B"/>
<rect x="40.46" y="97.65" width="7.00512" height="25.9956" rx="3.50256" transform="rotate(-3.74964 40.46 97.65)" fill="#F7B05B"/>
<rect x="60.14" y="79.32" width="6.99449" height="43.0019" rx="3.49725" transform="rotate(-3.74964 60.14 79.32)" fill="#F7B05B"/>
<rect x="81.51" y="86.94" width="6.99514" height="34.0025" rx="3.49757" transform="rotate(-3.74964 81.51 86.94)" fill="#F7B05B"/>
<rect x="100.66" y="60.63" width="6.99449" height="59.0064" rx="3.49725" transform="rotate(-3.74964 100.66 60.63)" fill="#F7B05B"/>
<rect x="123.73" y="94.2" width="6.99514" height="24.0014" rx="3.49757" transform="rotate(-3.74964 123.73 94.2)" fill="#F7B05B"/>
<rect x="140.33" y="28.97" width="6.99514" height="87.9981" rx="3.49757" transform="rotate(-3.74964 140.33 28.97)" fill="#F7B05B"/>
<path d="M22.3941 132.577L22.3757 132.297L23.354 131.074C23.4689 130.931 23.563 130.807 23.6365 130.702C23.71 130.595 23.763 130.497 23.7957 130.406C23.8293 130.314 23.843 130.219 23.8365 130.122C23.8292 130.009 23.7958 129.914 23.7364 129.835C23.678 129.757 23.6011 129.698 23.5056 129.659C23.4102 129.621 23.3048 129.605 23.1894 129.613C23.0667 129.621 22.9613 129.653 22.8732 129.71C22.7861 129.766 22.7205 129.841 22.6765 129.935C22.6336 130.028 22.6161 130.136 22.6241 130.257L22.2561 130.282C22.2439 130.094 22.2762 129.927 22.3532 129.78C22.4303 129.633 22.5405 129.515 22.684 129.427C22.8285 129.338 22.9937 129.287 23.1798 129.275C23.3669 129.263 23.5353 129.292 23.6849 129.361C23.8346 129.431 23.9549 129.53 24.0458 129.658C24.1367 129.787 24.1875 129.934 24.1983 130.098C24.206 130.215 24.1922 130.332 24.1569 130.447C24.1226 130.561 24.058 130.69 23.9631 130.834C23.8691 130.976 23.7371 131.152 23.567 131.361L22.9001 132.175L22.9017 132.2L24.386 132.102L24.4085 132.445L22.3941 132.577ZM25.9657 129.136L26.175 132.33L25.7883 132.355L25.6056 129.567L25.5869 129.568L24.8413 130.137L24.8155 129.744L25.5791 129.162L25.9657 129.136ZM27.4312 131.809L27.4172 131.979C27.4073 132.099 27.3886 132.227 27.3611 132.365C27.3346 132.502 27.3061 132.632 27.2754 132.754C27.2448 132.876 27.2193 132.973 27.199 133.045L26.9184 133.064C26.9275 132.996 26.9394 132.907 26.9541 132.797C26.9688 132.686 26.9826 132.563 26.9956 132.426C27.0097 132.291 27.0194 132.152 27.0247 132.011L27.032 131.835L27.4312 131.809ZM29.0682 132.184C28.8333 132.199 28.629 132.148 28.4553 132.031C28.2816 131.913 28.1431 131.735 28.0398 131.497C27.9364 131.257 27.8733 130.964 27.8505 130.616C27.8279 130.271 27.8523 129.974 27.9236 129.724C27.9959 129.473 28.1104 129.277 28.2672 129.138C28.425 128.997 28.6203 128.919 28.8532 128.903C29.086 128.888 29.2893 128.94 29.4631 129.059C29.6379 129.177 29.7769 129.356 29.8803 129.596C29.9847 129.834 30.0482 130.126 30.0708 130.471C30.0935 130.818 30.0693 131.117 29.9981 131.368C29.9268 131.618 29.8127 131.813 29.6559 131.953C29.499 132.091 29.3031 132.168 29.0682 132.184ZM29.0457 131.841C29.2785 131.826 29.452 131.701 29.5662 131.469C29.6804 131.236 29.7238 130.911 29.6966 130.495C29.6785 130.219 29.6334 129.985 29.5614 129.795C29.4905 129.604 29.3966 129.462 29.2797 129.367C29.1639 129.272 29.0291 129.23 28.8752 129.24C28.6445 129.255 28.4716 129.381 28.3566 129.617C28.2415 129.852 28.1976 130.177 28.2247 130.592C28.2429 130.868 28.2874 131.101 28.3582 131.291C28.4291 131.48 28.5224 131.622 28.6382 131.716C28.755 131.809 28.8908 131.851 29.0457 131.841ZM31.8123 132.004C31.5774 132.019 31.3731 131.969 31.1994 131.852C31.0257 131.734 30.8872 131.555 30.7839 131.317C30.6805 131.077 30.6174 130.784 30.5947 130.437C30.572 130.091 30.5964 129.794 30.6677 129.544C30.74 129.293 30.8545 129.097 31.0113 128.958C31.1691 128.817 31.3645 128.739 31.5973 128.724C31.8301 128.708 32.0334 128.76 32.2072 128.879C32.382 128.997 32.521 129.176 32.6244 129.416C32.7288 129.654 32.7923 129.946 32.8149 130.291C32.8377 130.638 32.8134 130.937 32.7422 131.188C32.6709 131.438 32.5568 131.633 32.4 131.773C32.2431 131.912 32.0472 131.989 31.8123 132.004ZM31.7898 131.661C32.0226 131.646 32.1961 131.522 32.3103 131.289C32.4245 131.056 32.468 130.731 32.4407 130.316C32.4226 130.039 32.3775 129.806 32.3055 129.615C32.2346 129.425 32.1407 129.282 32.0238 129.187C31.908 129.093 31.7732 129.05 31.6194 129.06C31.3886 129.075 31.2157 129.201 31.1007 129.437C30.9856 129.672 30.9417 129.997 30.9689 130.412C30.987 130.689 31.0315 130.922 31.1024 131.111C31.1732 131.301 31.2666 131.442 31.3823 131.536C31.4991 131.629 31.6349 131.671 31.7898 131.661ZM34.5564 131.824C34.3215 131.84 34.1172 131.789 33.9435 131.672C33.7698 131.554 33.6313 131.375 33.528 131.137C33.4246 130.897 33.3615 130.604 33.3388 130.257C33.3162 129.912 33.3405 129.614 33.4118 129.364C33.4841 129.113 33.5986 128.918 33.7555 128.778C33.9133 128.637 34.1086 128.559 34.3414 128.544C34.5742 128.528 34.7775 128.58 34.9513 128.699C35.1261 128.817 35.2652 128.996 35.3686 129.236C35.4729 129.474 35.5364 129.766 35.559 130.111C35.5818 130.458 35.5575 130.757 35.4863 131.008C35.415 131.258 35.3009 131.453 35.1441 131.593C34.9872 131.732 34.7913 131.809 34.5564 131.824ZM34.5339 131.481C34.7667 131.466 34.9403 131.342 35.0544 131.109C35.1686 130.876 35.2121 130.551 35.1848 130.136C35.1667 129.859 35.1216 129.626 35.0497 129.435C34.9787 129.245 34.8848 129.102 34.768 129.007C34.6521 128.913 34.5173 128.87 34.3635 128.88C34.1327 128.896 33.9598 129.021 33.8448 129.257C33.7297 129.493 33.6858 129.817 33.713 130.232C33.7311 130.509 33.7756 130.742 33.8465 130.931C33.9174 131.121 34.0107 131.262 34.1264 131.356C34.2432 131.45 34.379 131.491 34.5339 131.481Z" fill="#595959"/>
<path d="M23.9352 140.932L22.9498 140.997L22.7405 137.804L23.7696 137.736C24.0793 137.716 24.3486 137.763 24.5773 137.876C24.806 137.988 24.9868 138.16 25.1199 138.39C25.2529 138.619 25.3302 138.899 25.3519 139.23C25.3737 139.563 25.3332 139.853 25.2304 140.101C25.1276 140.347 24.9671 140.543 24.749 140.687C24.5307 140.829 24.2595 140.911 23.9352 140.932ZM23.314 140.629L23.8877 140.591C24.1518 140.574 24.3672 140.508 24.5341 140.395C24.701 140.282 24.821 140.129 24.8939 139.935C24.9668 139.741 24.9947 139.514 24.9777 139.254C24.9608 138.997 24.9041 138.777 24.8077 138.597C24.7113 138.415 24.5761 138.28 24.4022 138.191C24.2283 138.101 24.0166 138.065 23.7671 138.081L23.1497 138.122L23.314 140.629ZM26.764 140.803C26.6123 140.813 26.4727 140.794 26.3452 140.745C26.2177 140.695 26.114 140.617 26.0341 140.513C25.9541 140.408 25.909 140.277 25.8988 140.121C25.8898 139.984 25.9096 139.871 25.958 139.782C26.0064 139.692 26.0742 139.62 26.1615 139.565C26.2487 139.51 26.3461 139.467 26.4537 139.436C26.5622 139.404 26.6716 139.377 26.7819 139.355C26.9262 139.327 27.0432 139.305 27.1331 139.29C27.2238 139.274 27.2892 139.252 27.3293 139.226C27.3703 139.199 27.3889 139.156 27.385 139.097L27.3842 139.084C27.3741 138.93 27.3242 138.814 27.2344 138.734C27.1457 138.654 27.0166 138.62 26.8471 138.631C26.6715 138.642 26.5363 138.69 26.4415 138.773C26.3468 138.857 26.282 138.943 26.2472 139.033L25.8898 138.932C25.9426 138.782 26.0183 138.663 26.117 138.575C26.2166 138.486 26.3271 138.422 26.4487 138.381C26.5713 138.34 26.6928 138.315 26.8134 138.307C26.8903 138.302 26.9793 138.306 27.0803 138.318C27.1823 138.329 27.2819 138.36 27.3791 138.41C27.4774 138.46 27.5614 138.539 27.6312 138.648C27.701 138.758 27.7421 138.907 27.7546 139.097L27.858 140.675L27.4901 140.699L27.4688 140.375L27.4501 140.376C27.4285 140.43 27.3906 140.488 27.3363 140.551C27.282 140.614 27.2078 140.67 27.1139 140.718C27.0199 140.766 26.9033 140.794 26.764 140.803ZM26.7985 140.469C26.944 140.46 27.0648 140.423 27.1609 140.359C27.2579 140.296 27.329 140.217 27.374 140.123C27.42 140.029 27.4398 139.932 27.4332 139.833L27.4112 139.496C27.3968 139.516 27.3636 139.535 27.3116 139.554C27.2606 139.572 27.2012 139.589 27.1333 139.605C27.0664 139.62 27.0011 139.633 26.9372 139.646C26.8742 139.657 26.8232 139.667 26.784 139.675C26.6892 139.693 26.6011 139.72 26.5198 139.753C26.4395 139.785 26.3757 139.831 26.3283 139.889C26.282 139.947 26.2619 140.022 26.268 140.116C26.2764 140.243 26.33 140.337 26.4289 140.396C26.5287 140.455 26.652 140.479 26.7985 140.469ZM28.7397 141.519C28.6773 141.524 28.6214 141.522 28.5719 141.515C28.5224 141.509 28.488 141.502 28.4687 141.493L28.541 141.163C28.6319 141.18 28.7114 141.183 28.7796 141.172C28.8478 141.162 28.9066 141.127 28.956 141.068C29.0065 141.011 29.0501 140.92 29.0868 140.795L29.1432 140.604L28.0998 138.254L28.499 138.228L29.2851 140.093L29.3101 140.092L29.8461 138.14L30.2452 138.114L29.4085 140.924C29.3709 141.051 29.3209 141.157 29.2587 141.243C29.1965 141.329 29.122 141.395 29.0352 141.441C28.9494 141.486 28.8509 141.512 28.7397 141.519ZM33.0989 140.382C32.8744 140.397 32.6775 140.356 32.5084 140.261C32.3393 140.166 32.205 140.028 32.1055 139.847C32.006 139.667 31.9484 139.457 31.9328 139.218C31.9168 138.975 31.9475 138.757 32.0247 138.566C32.1028 138.373 32.219 138.218 32.3733 138.103C32.5285 137.986 32.7142 137.921 32.9304 137.906C33.0988 137.895 33.2526 137.917 33.3918 137.97C33.531 138.024 33.6474 138.104 33.741 138.21C33.8347 138.317 33.8968 138.444 33.9274 138.593L33.5594 138.617C33.5242 138.51 33.4555 138.417 33.3533 138.339C33.2521 138.26 33.1204 138.226 32.9583 138.237C32.8148 138.246 32.6915 138.292 32.5883 138.374C32.4861 138.454 32.4093 138.564 32.3578 138.703C32.3074 138.841 32.2881 139.001 32.2999 139.182C32.312 139.367 32.3517 139.526 32.4189 139.659C32.4871 139.793 32.5773 139.894 32.6893 139.963C32.8024 140.031 32.9317 140.061 33.0772 140.051C33.1728 140.045 33.2585 140.023 33.3343 139.984C33.4101 139.946 33.473 139.894 33.5229 139.828C33.5729 139.762 33.6065 139.685 33.6236 139.596L33.9916 139.572C33.98 139.715 33.9369 139.845 33.8622 139.964C33.7885 140.082 33.6868 140.178 33.5571 140.253C33.4283 140.328 33.2756 140.37 33.0989 140.382ZM35.5514 140.221C35.3352 140.235 35.1422 140.196 34.9722 140.104C34.8033 140.012 34.6671 139.876 34.5635 139.697C34.4609 139.518 34.4015 139.305 34.3853 139.058C34.369 138.808 34.3999 138.587 34.4782 138.395C34.5574 138.203 34.6748 138.05 34.8302 137.937C34.9866 137.823 35.173 137.759 35.3892 137.745C35.6054 137.731 35.7979 137.77 35.9668 137.862C36.1367 137.955 36.273 138.091 36.3757 138.271C36.4793 138.451 36.5393 138.666 36.5557 138.915C36.5719 139.163 36.5403 139.382 36.461 139.573C36.3827 139.764 36.2653 139.916 36.1088 140.03C35.9534 140.143 35.7676 140.207 35.5514 140.221ZM35.5298 139.891C35.694 139.88 35.8264 139.829 35.9269 139.738C36.0274 139.647 36.0986 139.531 36.1405 139.39C36.1825 139.25 36.1982 139.099 36.1877 138.939C36.1772 138.779 36.142 138.632 36.082 138.497C36.022 138.362 35.9362 138.255 35.8246 138.177C35.713 138.099 35.5751 138.065 35.4108 138.076C35.2466 138.087 35.1143 138.138 35.0138 138.23C34.9134 138.322 34.8422 138.439 34.8004 138.581C34.7585 138.723 34.7428 138.873 34.7533 139.033C34.7638 139.193 34.799 139.34 34.8589 139.474C34.9188 139.608 35.0046 139.714 35.1161 139.791C35.2277 139.868 35.3655 139.901 35.5298 139.891ZM38.6401 138.985L38.5473 137.57L38.9153 137.546L39.0722 139.94L38.7043 139.965L38.6777 139.559L38.6528 139.561C38.6046 139.686 38.5241 139.795 38.4112 139.888C38.2982 139.98 38.1513 140.032 37.9704 140.044C37.8207 140.054 37.6855 140.03 37.5648 139.972C37.444 139.913 37.346 139.819 37.2708 139.69C37.1955 139.561 37.1511 139.394 37.1378 139.19L37.0381 137.669L37.406 137.644L37.5041 139.141C37.5156 139.316 37.5735 139.452 37.6781 139.549C37.7836 139.647 37.9128 139.691 38.0656 139.681C38.1571 139.675 38.2486 139.645 38.3401 139.592C38.4327 139.539 38.508 139.462 38.5661 139.361C38.6253 139.26 38.6499 139.135 38.6401 138.985ZM40.0197 138.431L40.1141 139.872L39.7462 139.896L39.5892 137.501L39.9447 137.478L39.9692 137.852L40.0004 137.85C40.0486 137.725 40.1274 137.622 40.2369 137.54C40.3464 137.458 40.4915 137.411 40.6724 137.399C40.8345 137.388 40.9786 137.412 41.1046 137.471C41.2305 137.528 41.3316 137.622 41.4079 137.752C41.4842 137.88 41.529 138.047 41.5424 138.25L41.6421 139.772L41.2742 139.796L41.1761 138.299C41.1637 138.111 41.1053 137.968 41.0007 137.869C40.896 137.77 40.7585 137.725 40.588 137.737C40.4705 137.744 40.3672 137.777 40.2781 137.834C40.1899 137.891 40.1226 137.97 40.076 138.071C40.0293 138.172 40.0106 138.292 40.0197 138.431ZM43.1991 137.265L43.2195 137.577L41.9784 137.658L41.958 137.346L43.1991 137.265ZM42.2821 136.749L42.6501 136.725L42.7997 139.007C42.8065 139.111 42.8267 139.188 42.8602 139.238C42.8947 139.287 42.9365 139.319 42.9854 139.333C43.0354 139.347 43.0874 139.352 43.1414 139.348C43.182 139.345 43.2151 139.341 43.2408 139.335C43.2665 139.328 43.287 139.323 43.3024 139.319L43.3989 139.644C43.3745 139.655 43.3403 139.667 43.2962 139.679C43.2522 139.693 43.1959 139.701 43.1273 139.706C43.0234 139.713 42.92 139.697 42.8173 139.659C42.7156 139.621 42.6291 139.558 42.5576 139.471C42.4872 139.384 42.4474 139.27 42.4382 139.131L42.2821 136.749ZM45.4412 137.656L45.1168 137.772C45.0924 137.718 45.0582 137.666 45.0143 137.617C44.9713 137.567 44.9144 137.527 44.8435 137.497C44.7727 137.467 44.6837 137.456 44.5767 137.463C44.4301 137.472 44.3102 137.514 44.2169 137.588C44.1246 137.661 44.0818 137.749 44.0886 137.852C44.0946 137.943 44.1326 138.013 44.2026 138.062C44.2726 138.11 44.3794 138.148 44.5231 138.174L44.8843 138.238C45.1018 138.276 45.2666 138.345 45.3786 138.445C45.4905 138.544 45.552 138.677 45.5629 138.845C45.5719 138.982 45.5405 139.107 45.4686 139.221C45.3977 139.334 45.2941 139.426 45.1579 139.498C45.0216 139.569 44.8605 139.611 44.6744 139.623C44.4302 139.639 44.2245 139.6 44.0575 139.504C43.8905 139.409 43.779 139.26 43.723 139.059L44.0666 138.949C44.1083 139.076 44.1775 139.168 44.2742 139.227C44.372 139.285 44.4962 139.309 44.647 139.299C44.8185 139.288 44.9522 139.243 45.0483 139.164C45.1453 139.083 45.1905 138.991 45.1837 138.888C45.1783 138.805 45.1446 138.738 45.0827 138.685C45.0208 138.632 44.9286 138.595 44.8062 138.575L44.4009 138.508C44.1782 138.47 44.0118 138.4 43.9017 138.298C43.7926 138.194 43.7327 138.06 43.7218 137.894C43.713 137.759 43.7431 137.637 43.8122 137.528C43.8823 137.419 43.9814 137.331 44.1095 137.263C44.2387 137.195 44.3874 137.156 44.5558 137.145C44.7928 137.129 44.9823 137.169 45.1242 137.264C45.2672 137.359 45.3729 137.49 45.4412 137.656Z" fill="white"/>
<path d="M138.674 130.164C138.805 130.156 138.938 130.173 139.072 130.213C139.206 130.253 139.331 130.327 139.446 130.433C139.562 130.538 139.659 130.686 139.737 130.876C139.815 131.066 139.864 131.307 139.883 131.6C139.902 131.884 139.891 132.138 139.851 132.362C139.813 132.585 139.748 132.775 139.657 132.932C139.567 133.089 139.453 133.212 139.315 133.299C139.177 133.386 139.019 133.436 138.839 133.448C138.66 133.459 138.498 133.434 138.353 133.373C138.209 133.31 138.089 133.219 137.991 133.098C137.894 132.976 137.828 132.831 137.792 132.664L138.172 132.64C138.216 132.784 138.292 132.9 138.4 132.989C138.509 133.077 138.648 133.116 138.817 133.105C139.063 133.089 139.25 132.968 139.378 132.744C139.508 132.519 139.56 132.21 139.534 131.817L139.509 131.819C139.456 131.91 139.392 131.99 139.316 132.059C139.241 132.127 139.155 132.182 139.059 132.223C138.964 132.264 138.861 132.287 138.751 132.295C138.568 132.307 138.397 132.272 138.238 132.192C138.081 132.111 137.951 131.993 137.849 131.84C137.748 131.686 137.691 131.506 137.677 131.3C137.665 131.105 137.696 130.923 137.773 130.755C137.851 130.586 137.966 130.448 138.119 130.341C138.272 130.234 138.457 130.175 138.674 130.164ZM138.696 130.507C138.565 130.516 138.45 130.556 138.349 130.628C138.249 130.7 138.172 130.792 138.118 130.907C138.065 131.02 138.043 131.143 138.052 131.276C138.06 131.409 138.097 131.528 138.163 131.633C138.229 131.738 138.315 131.819 138.421 131.876C138.528 131.933 138.647 131.957 138.778 131.948C138.877 131.942 138.968 131.917 139.051 131.873C139.133 131.828 139.204 131.769 139.263 131.697C139.323 131.625 139.368 131.544 139.399 131.455C139.43 131.366 139.442 131.273 139.436 131.179C139.427 131.054 139.39 130.939 139.322 130.834C139.256 130.729 139.168 130.646 139.059 130.585C138.95 130.524 138.829 130.498 138.696 130.507ZM141.523 130.021L141.732 133.214L141.345 133.24L141.163 130.452L141.144 130.453L140.398 131.022L140.372 130.629L141.136 130.046L141.523 130.021ZM142.988 132.693L142.974 132.863C142.964 132.983 142.945 133.112 142.918 133.249C142.891 133.387 142.863 133.516 142.832 133.638C142.802 133.761 142.776 133.858 142.756 133.93L142.475 133.948C142.484 133.881 142.496 133.792 142.511 133.681C142.526 133.571 142.539 133.447 142.552 133.311C142.567 133.175 142.576 133.037 142.582 132.895L142.589 132.72L142.988 132.693ZM144.625 133.068C144.39 133.084 144.186 133.033 144.012 132.916C143.838 132.798 143.7 132.62 143.597 132.381C143.493 132.142 143.43 131.848 143.407 131.501C143.385 131.156 143.409 130.858 143.48 130.608C143.553 130.357 143.667 130.162 143.824 130.022C143.982 129.881 144.177 129.803 144.41 129.788C144.643 129.773 144.846 129.825 145.02 129.944C145.195 130.062 145.334 130.241 145.437 130.48C145.542 130.719 145.605 131.01 145.628 131.355C145.65 131.703 145.626 132.002 145.555 132.253C145.484 132.503 145.37 132.698 145.213 132.837C145.056 132.976 144.86 133.053 144.625 133.068ZM144.603 132.725C144.835 132.71 145.009 132.586 145.123 132.353C145.237 132.12 145.281 131.796 145.253 131.38C145.235 131.104 145.19 130.87 145.118 130.68C145.047 130.489 144.953 130.346 144.837 130.252C144.721 130.157 144.586 130.115 144.432 130.125C144.201 130.14 144.028 130.266 143.913 130.502C143.798 130.737 143.754 131.062 143.782 131.476C143.8 131.753 143.844 131.986 143.915 132.175C143.986 132.365 144.079 132.507 144.195 132.6C144.312 132.694 144.448 132.736 144.603 132.725ZM147.369 132.889C147.134 132.904 146.93 132.853 146.756 132.736C146.583 132.618 146.444 132.44 146.341 132.201C146.237 131.962 146.174 131.668 146.152 131.321C146.129 130.976 146.153 130.679 146.225 130.429C146.297 130.177 146.411 129.982 146.568 129.842C146.726 129.701 146.921 129.623 147.154 129.608C147.387 129.593 147.59 129.645 147.764 129.764C147.939 129.882 148.078 130.061 148.181 130.3C148.286 130.539 148.349 130.831 148.372 131.176C148.395 131.523 148.37 131.822 148.299 132.073C148.228 132.323 148.114 132.518 147.957 132.658C147.8 132.796 147.604 132.873 147.369 132.889ZM147.347 132.546C147.579 132.53 147.753 132.406 147.867 132.173C147.981 131.94 148.025 131.616 147.998 131.2C147.979 130.924 147.934 130.69 147.862 130.5C147.791 130.309 147.698 130.167 147.581 130.072C147.465 129.977 147.33 129.935 147.176 129.945C146.945 129.96 146.773 130.086 146.658 130.322C146.542 130.557 146.499 130.882 146.526 131.297C146.544 131.573 146.588 131.806 146.659 131.996C146.73 132.185 146.823 132.327 146.939 132.42C147.056 132.514 147.192 132.556 147.347 132.546ZM150.113 132.709C149.878 132.724 149.674 132.673 149.5 132.556C149.327 132.438 149.188 132.26 149.085 132.021C148.981 131.782 148.918 131.488 148.896 131.141C148.873 130.796 148.897 130.499 148.969 130.249C149.041 129.998 149.156 129.802 149.312 129.662C149.47 129.522 149.665 129.444 149.898 129.428C150.131 129.413 150.334 129.465 150.508 129.584C150.683 129.702 150.822 129.881 150.925 130.12C151.03 130.359 151.093 130.651 151.116 130.996C151.139 131.343 151.114 131.642 151.043 131.893C150.972 132.143 150.858 132.338 150.701 132.478C150.544 132.616 150.348 132.693 150.113 132.709ZM150.091 132.366C150.324 132.351 150.497 132.226 150.611 131.993C150.725 131.76 150.769 131.436 150.742 131.02C150.724 130.744 150.679 130.51 150.607 130.32C150.536 130.129 150.442 129.987 150.325 129.892C150.209 129.797 150.074 129.755 149.92 129.765C149.69 129.78 149.517 129.906 149.402 130.142C149.287 130.377 149.243 130.702 149.27 131.117C149.288 131.393 149.332 131.626 149.403 131.816C149.474 132.005 149.568 132.147 149.683 132.241C149.8 132.334 149.936 132.376 150.091 132.366ZM152.718 131.931L152.583 129.872L152.932 129.85L153.067 131.908L152.718 131.931ZM151.808 131.132L151.785 130.783L153.843 130.648L153.866 130.997L151.808 131.132Z" fill="white"/>
<rect x="1.41163" y="11.3962" width="156.999" height="144" rx="6.5" transform="rotate(-3.74964 1.41163 11.3962)" stroke="#333333"/>
</svg>
