<svg width="137" height="142" viewBox="0 0 137 142" fill="none" xmlns="http://www.w3.org/2000/svg">
<rect x="3.13" y="0.47998" width="133" height="138.98" rx="7" transform="rotate(1.0143 3.13 0.47998)" fill="#161616"/>
<path d="M18.5734 17.1502L18.592 16.1012L24.1036 16.1988L24.085 17.2478L21.9499 17.21L21.8461 23.069L20.6048 23.047L20.7086 17.188L18.5734 17.1502ZM26.4966 23.2525C25.9907 23.2436 25.5541 23.1245 25.187 22.8953C24.8199 22.6661 24.5376 22.3496 24.3401 21.9457C24.1448 21.5418 24.0519 21.0723 24.0613 20.5371C24.0708 20.0019 24.1803 19.5349 24.3898 19.1359C24.6016 18.737 24.895 18.4296 25.2699 18.2135C25.6449 17.9975 26.0854 17.8939 26.5913 17.9029C27.0973 17.9118 27.5338 18.0309 27.9009 18.2601C28.268 18.4893 28.5492 18.8069 28.7444 19.213C28.9419 19.6192 29.036 20.0898 29.0265 20.625C29.017 21.1602 28.9064 21.6261 28.6947 22.0228C28.4852 22.4195 28.193 22.7258 27.818 22.9419C27.443 23.1579 27.0026 23.2615 26.4966 23.2525ZM26.5207 22.2745C26.795 22.2793 27.0257 22.208 27.2128 22.0606C27.3999 21.911 27.5407 21.7088 27.6352 21.454C27.7319 21.1993 27.7831 20.9145 27.7886 20.5997C27.7942 20.2827 27.7532 19.9951 27.6656 19.7372C27.5802 19.477 27.4467 19.2688 27.265 19.1126C27.0833 18.9564 26.8553 18.8759 26.5809 18.871C26.2999 18.8661 26.0646 18.9384 25.8753 19.088C25.6882 19.2376 25.5462 19.4409 25.4495 19.6979C25.355 19.9527 25.3049 20.2386 25.2993 20.5557C25.2937 20.8705 25.3337 21.1569 25.4191 21.4148C25.5067 21.6728 25.6414 21.8799 25.8231 22.036C26.0071 22.19 26.2396 22.2695 26.5207 22.2745ZM32.6962 18.0784L32.6795 19.0229L29.7011 18.9702L29.7178 18.0257L32.6962 18.0784ZM30.4751 16.7974L31.6961 16.8191L31.61 21.683C31.6071 21.8471 31.6296 21.9735 31.6776 22.0621C31.7278 22.1485 31.7942 22.2081 31.8768 22.2411C31.9595 22.274 32.0514 22.2914 32.1526 22.2932C32.229 22.2945 32.2988 22.2902 32.362 22.28C32.4274 22.2699 32.4771 22.2607 32.511 22.2523L32.6998 23.2105C32.6342 23.2318 32.5404 23.2549 32.4185 23.2798C32.2989 23.3046 32.1524 23.3178 31.9792 23.3192C31.6732 23.3228 31.3986 23.2718 31.1553 23.1663C30.912 23.0585 30.7203 22.8954 30.5802 22.677C30.4424 22.4586 30.3774 22.1875 30.3854 21.8638L30.4751 16.7974ZM35.1147 23.4085C34.7864 23.4027 34.4917 23.339 34.2307 23.2174C33.972 23.0936 33.7682 22.9145 33.6194 22.6802C33.4728 22.4459 33.4025 22.159 33.4085 21.8194C33.4137 21.5271 33.472 21.2863 33.5833 21.0971C33.6946 20.9079 33.8446 20.7576 34.0333 20.6462C34.222 20.5348 34.4337 20.452 34.6686 20.3976C34.9058 20.3411 35.1506 20.3016 35.4029 20.279C35.7071 20.2529 35.9538 20.2292 36.1431 20.2078C36.3325 20.1841 36.4704 20.1461 36.5568 20.0936C36.6455 20.039 36.6909 19.9532 36.6929 19.8362L36.6933 19.816C36.6978 19.5619 36.6259 19.3638 36.4777 19.2217C36.3295 19.0796 36.1138 19.0061 35.8304 19.0011C35.5314 18.9958 35.293 19.0568 35.1153 19.1841C34.9398 19.3115 34.8201 19.4634 34.7563 19.64L33.6191 19.4579C33.7146 19.1447 33.8677 18.8842 34.0783 18.6765C34.2889 18.4665 34.5447 18.3114 34.8457 18.211C35.1467 18.1083 35.4782 18.0602 35.8402 18.0666C36.0898 18.071 36.3378 18.1047 36.5841 18.1675C36.8305 18.2304 37.0547 18.3311 37.257 18.4696C37.4593 18.6059 37.6202 18.7898 37.7398 19.0214C37.8617 19.253 37.9196 19.5408 37.9135 19.8848L37.8521 23.3523L36.6783 23.3316L36.6909 22.6199L36.6504 22.6191C36.5736 22.7617 36.4667 22.8948 36.3295 23.0183C36.1947 23.1397 36.0254 23.2368 35.8216 23.3096C35.6202 23.3803 35.3845 23.4133 35.1147 23.4085ZM35.4477 22.5169C35.6928 22.5212 35.9061 22.4766 36.0877 22.3831C36.2694 22.2873 36.41 22.1594 36.5095 21.9992C36.6114 21.839 36.664 21.6634 36.6673 21.4722L36.6781 20.8617C36.6394 20.8925 36.5736 20.9206 36.481 20.9459C36.3905 20.9713 36.2889 20.9932 36.1761 21.0114C36.0633 21.0297 35.9517 21.0457 35.8412 21.0595C35.7308 21.0733 35.635 21.0851 35.5538 21.0949C35.3712 21.1164 35.2075 21.154 35.0626 21.2076C34.9177 21.2613 34.8027 21.338 34.7177 21.4377C34.6328 21.5352 34.5889 21.6626 34.5861 21.82C34.5821 22.0449 34.6612 22.2161 34.8233 22.3337C34.9854 22.4513 35.1936 22.5124 35.4477 22.5169ZM40.4232 16.4877L40.3009 23.3957L39.0799 23.3741L39.2022 16.4661L40.4232 16.4877ZM45.0131 16.569L46.7147 22.0381L46.7855 22.0394L48.6763 16.6338L50.0525 16.6582L47.4948 23.5231L45.95 23.4957L43.6403 16.5446L45.0131 16.569ZM50.7861 23.5813L50.8778 18.4003L52.0988 18.422L52.0071 23.603L50.7861 23.5813ZM51.5047 17.6759C51.3113 17.6725 51.1461 17.6054 51.0089 17.4748C50.8718 17.3419 50.8049 17.1844 50.8081 17.0022C50.8113 16.8178 50.8838 16.6628 51.0255 16.5371C51.1672 16.4091 51.3348 16.3468 51.5282 16.3503C51.7238 16.3537 51.8891 16.4219 52.0239 16.5547C52.1611 16.6854 52.228 16.8429 52.2248 17.0273C52.2215 17.2094 52.1491 17.3645 52.0073 17.4925C51.8679 17.6182 51.7004 17.6793 51.5047 17.6759ZM55.5546 23.767C55.0352 23.7578 54.5885 23.6419 54.2145 23.4193C53.8428 23.1946 53.5593 22.8814 53.364 22.4798C53.1687 22.0759 53.0758 21.603 53.0854 21.0611C53.0949 20.5282 53.2043 20.0622 53.4139 19.6633C53.6257 19.2621 53.9168 18.9524 54.2873 18.734C54.6579 18.5134 55.0905 18.4074 55.5852 18.4162C55.9046 18.4218 56.205 18.4789 56.4865 18.5874C56.7703 18.6936 57.0193 18.8555 57.2337 19.073C57.4503 19.2905 57.6186 19.5657 57.7387 19.8984C57.8588 20.229 57.9148 20.6214 57.9068 21.0756L57.9002 21.45L53.6535 21.3748L53.6681 20.5518L56.7443 20.6063C56.7462 20.3724 56.6993 20.1635 56.6035 19.9796C56.5079 19.7934 56.3721 19.6459 56.1964 19.5371C56.0228 19.4283 55.8191 19.3718 55.5853 19.3677C55.3357 19.3633 55.1153 19.4201 54.9243 19.5382C54.7333 19.654 54.5832 19.8088 54.4741 20.0026C54.3672 20.1942 54.3106 20.4057 54.3042 20.6373L54.2915 21.3558C54.2862 21.6571 54.3367 21.9167 54.4431 22.1345C54.5495 22.3501 54.7006 22.5169 54.8965 22.6351C55.0924 22.7511 55.323 22.8114 55.5883 22.8161C55.766 22.8192 55.9272 22.7973 56.072 22.7504C56.2168 22.7012 56.343 22.6281 56.4504 22.5311C56.5578 22.434 56.6398 22.3128 56.6964 22.1676L57.8342 22.316C57.7569 22.616 57.6151 22.8767 57.4087 23.098C57.2046 23.3171 56.9452 23.4857 56.6305 23.6038C56.3158 23.7197 55.9571 23.7741 55.5546 23.767ZM59.9346 23.7433L58.5625 18.5364L59.8071 18.5584L60.6533 22.2174L60.7006 22.2183L61.696 18.5919L62.9272 18.6137L63.794 22.2528L63.8446 22.2537L64.806 18.6469L66.054 18.669L64.495 23.8241L63.2234 23.8015L62.3139 20.2831L62.2431 20.2819L61.2096 23.7659L59.9346 23.7433ZM70.9772 20.1261L69.8619 20.2278C69.8324 20.1148 69.7792 20.0081 69.7023 19.9078C69.6275 19.8075 69.5255 19.7258 69.3962 19.6628C69.2668 19.5998 69.1077 19.5666 68.9188 19.5633C68.6647 19.5588 68.4501 19.6101 68.275 19.7172C68.1022 19.8244 68.0153 19.9657 68.0144 20.1411C68.0095 20.2917 68.0624 20.4153 68.1732 20.5117C68.2862 20.6082 68.4737 20.6891 68.7358 20.7545L69.6162 20.959C70.1045 21.0734 70.4658 21.2473 70.7001 21.4809C70.9367 21.7146 71.0528 22.0169 71.0485 22.388C71.0405 22.714 70.9398 23.0002 70.7465 23.2464C70.5555 23.4905 70.2923 23.6793 69.957 23.8128C69.6218 23.9463 69.2382 24.0093 68.8065 24.0016C68.1724 23.9904 67.6643 23.8487 67.2822 23.5765C66.9001 23.302 66.6762 22.9258 66.6105 22.4478L67.8032 22.3542C67.853 22.589 67.9646 22.7675 68.1379 22.8898C68.3111 23.0121 68.5383 23.0757 68.8194 23.0807C69.1095 23.0858 69.3433 23.0304 69.5208 22.9143C69.7006 22.7983 69.792 22.6525 69.7951 22.4771C69.7977 22.3287 69.7426 22.2052 69.6296 22.1064C69.5189 22.0078 69.3448 21.9304 69.1073 21.8745L68.2269 21.6733C67.7317 21.5611 67.3672 21.3803 67.1331 21.131C66.8992 20.8794 66.7866 20.5647 66.7956 20.187C66.799 19.8677 66.8905 19.5926 67.07 19.3618C67.2518 19.1289 67.5013 18.9511 67.8184 18.8285C68.1377 18.7037 68.5043 18.6449 68.9181 18.6522C69.5252 18.663 70.0008 18.8008 70.3448 19.0655C70.691 19.3303 70.9018 19.6839 70.9772 20.1261Z" fill="#8E8E8E"/>
<path d="M90.8496 21.29L90.923 17.1452L91.4249 17.1541L91.3594 20.8537L93.2861 20.8878L93.2782 21.333L90.8496 21.29ZM94.9041 21.4347C94.7071 21.4312 94.529 21.3909 94.3697 21.3139C94.2105 21.2355 94.0849 21.1246 93.993 20.9813C93.9011 20.8366 93.8569 20.6631 93.8605 20.4607C93.8637 20.2826 93.9013 20.1388 93.9734 20.0294C94.0456 19.9187 94.1409 19.8327 94.2594 19.7713C94.3779 19.71 94.5083 19.6651 94.6505 19.6365C94.7941 19.6067 94.9382 19.5836 95.0829 19.5673C95.2722 19.5463 95.4257 19.5308 95.5433 19.5207C95.6623 19.5094 95.749 19.4886 95.8035 19.4585C95.8594 19.4285 95.888 19.375 95.8894 19.2981L95.8896 19.2819C95.8932 19.0822 95.8413 18.9261 95.734 18.8135C95.628 18.701 95.465 18.6428 95.2451 18.6389C95.0171 18.6348 94.8374 18.6816 94.7061 18.7791C94.5748 18.8767 94.4819 18.9817 94.4273 19.0941L93.9768 18.9241C94.0611 18.7367 94.1716 18.5915 94.3084 18.4887C94.4466 18.3845 94.5963 18.3129 94.7576 18.2739C94.9203 18.2336 95.0799 18.2149 95.2364 18.2176C95.3362 18.2194 95.4507 18.2336 95.5798 18.2601C95.7102 18.2854 95.8355 18.3355 95.9557 18.4105C96.0772 18.4856 96.1771 18.5973 96.2554 18.7458C96.3338 18.8943 96.3708 19.092 96.3664 19.3389L96.3301 21.3871L95.8525 21.3786L95.86 20.9577L95.8357 20.9572C95.8021 21.0241 95.7469 21.0953 95.67 21.1709C95.593 21.2465 95.4914 21.3101 95.3649 21.3619C95.2385 21.4136 95.0849 21.4379 94.9041 21.4347ZM94.9845 21.0069C95.1734 21.0103 95.3333 20.976 95.4641 20.9041C95.5963 20.8322 95.6965 20.7381 95.7647 20.6219C95.8342 20.5057 95.8702 20.3829 95.8724 20.2534L95.8802 19.8162C95.8595 19.8401 95.8146 19.8616 95.7454 19.8806C95.6776 19.8983 95.5991 19.9138 95.5098 19.9271C95.4218 19.939 95.3359 19.9496 95.2521 19.9589C95.1696 19.9669 95.1027 19.9738 95.0513 19.9797C94.9269 19.9937 94.8104 20.0179 94.7018 20.0525C94.5946 20.0856 94.5073 20.1374 94.4399 20.2077C94.3739 20.2768 94.3399 20.372 94.3377 20.4934C94.3348 20.6594 94.3939 20.7859 94.5152 20.8731C94.6379 20.959 94.7943 21.0036 94.9845 21.0069ZM99.4466 19.0291L99.0154 19.1429C98.9896 19.0709 98.9511 19.0007 98.8996 18.9323C98.8496 18.8626 98.7804 18.8047 98.6922 18.7586C98.6039 18.7125 98.4903 18.6882 98.3513 18.6858C98.1611 18.6824 98.0018 18.7234 97.8734 18.8089C97.7464 18.893 97.6817 19.0019 97.6793 19.1355C97.6772 19.2542 97.7187 19.3487 97.8039 19.4191C97.889 19.4894 98.0229 19.5491 98.2056 19.5982L98.665 19.7198C98.9418 19.7921 99.1471 19.899 99.2809 20.0404C99.4147 20.1804 99.4797 20.3591 99.4758 20.5763C99.4727 20.7544 99.4186 20.9127 99.3136 21.0512C99.2099 21.1897 99.0663 21.2978 98.8827 21.3756C98.6991 21.4533 98.4866 21.49 98.2451 21.4857C97.928 21.4801 97.6668 21.4067 97.4614 21.2654C97.2561 21.1241 97.1281 20.9207 97.0775 20.6553L97.5328 20.55C97.573 20.7181 97.6524 20.845 97.771 20.9308C97.891 21.0166 98.0488 21.0612 98.2444 21.0646C98.467 21.0686 98.6446 21.0245 98.7772 20.9324C98.9111 20.8389 98.9792 20.7254 98.9816 20.5918C98.9835 20.4839 98.9473 20.3928 98.8731 20.3186C98.7988 20.2431 98.6838 20.1857 98.5279 20.1465L98.012 20.0159C97.7285 19.9434 97.5212 19.8351 97.3901 19.6911C97.2604 19.5457 97.1975 19.3658 97.2013 19.1513C97.2044 18.9759 97.2564 18.8216 97.3573 18.6884C97.4595 18.5553 97.597 18.4517 97.7697 18.3779C97.9437 18.304 98.1401 18.269 98.3586 18.2729C98.6663 18.2784 98.9066 18.3501 99.0796 18.4881C99.2539 18.6262 99.3763 18.8065 99.4466 19.0291ZM101.586 18.3705L101.579 18.7753L99.9683 18.7468L99.9755 18.342L101.586 18.3705ZM100.458 17.6056L100.936 17.614L100.883 20.5769C100.881 20.7118 100.899 20.8134 100.937 20.8815C100.976 20.9484 101.026 20.9938 101.088 21.0178C101.151 21.0405 101.218 21.0525 101.288 21.0538C101.341 21.0547 101.384 21.0527 101.418 21.0479C101.451 21.0418 101.478 21.0369 101.499 21.0332L101.588 21.464C101.556 21.4755 101.51 21.4869 101.452 21.498C101.394 21.5105 101.32 21.5159 101.231 21.5143C101.096 21.5119 100.965 21.4806 100.836 21.4203C100.709 21.36 100.604 21.2697 100.521 21.1495C100.439 21.0293 100.4 20.8788 100.403 20.698L100.458 17.6056ZM103.974 21.5224L105.893 17.888L105.893 17.8557L103.756 17.8178L103.764 17.3726L106.419 17.4196L106.411 17.8891L104.5 21.5317L103.974 21.5224ZM109.884 21.6918C109.625 21.6872 109.398 21.6177 109.202 21.4834C109.006 21.3476 108.854 21.1587 108.746 20.9165C108.638 20.673 108.587 20.3867 108.593 20.0575C108.599 19.731 108.66 19.4486 108.776 19.2104C108.892 18.9723 109.051 18.7895 109.253 18.6622C109.455 18.5348 109.687 18.4735 109.949 18.4781C110.151 18.4817 110.311 18.5183 110.427 18.5878C110.545 18.656 110.634 18.7332 110.694 18.8193C110.756 18.904 110.804 18.9737 110.838 19.0283L110.879 19.029L110.906 17.499L111.383 17.5075L111.31 21.6523L110.849 21.6441L110.857 21.1665L110.8 21.1655C110.764 21.2215 110.713 21.2922 110.647 21.3774C110.581 21.4612 110.487 21.5358 110.366 21.6011C110.244 21.6651 110.084 21.6954 109.884 21.6918ZM109.956 21.2639C110.148 21.2673 110.311 21.2202 110.445 21.1227C110.579 21.0239 110.682 20.886 110.754 20.7092C110.826 20.5309 110.864 20.3244 110.868 20.0897C110.872 19.8576 110.842 19.6539 110.778 19.4787C110.713 19.3021 110.616 19.1641 110.485 19.0646C110.355 18.9637 110.192 18.9116 109.998 18.9082C109.796 18.9046 109.626 18.9535 109.489 19.055C109.354 19.1552 109.251 19.2931 109.18 19.4686C109.111 19.6429 109.075 19.8393 109.071 20.0578C109.067 20.2791 109.097 20.4807 109.161 20.6627C109.227 20.8434 109.326 20.9882 109.457 21.0972C109.59 21.2048 109.757 21.2604 109.956 21.2639ZM113.165 21.758C112.968 21.7545 112.79 21.7142 112.63 21.6372C112.471 21.5588 112.345 21.4479 112.254 21.3046C112.162 21.1599 112.117 20.9864 112.121 20.784C112.124 20.6059 112.162 20.4621 112.234 20.3527C112.306 20.242 112.401 20.156 112.52 20.0946C112.638 20.0333 112.769 19.9884 112.911 19.9598C113.055 19.93 113.199 19.9069 113.343 19.8906C113.533 19.8696 113.686 19.8541 113.804 19.844C113.923 19.8327 114.01 19.8119 114.064 19.7818C114.12 19.7518 114.149 19.6983 114.15 19.6214L114.15 19.6052C114.154 19.4055 114.102 19.2494 113.994 19.1368C113.888 19.0243 113.726 18.9661 113.506 18.9622C113.278 18.9581 113.098 19.0049 112.967 19.1024C112.835 19.2 112.742 19.305 112.688 19.4174L112.237 19.2474C112.322 19.06 112.432 18.9148 112.569 18.812C112.707 18.7078 112.857 18.6362 113.018 18.5972C113.181 18.5569 113.34 18.5382 113.497 18.5409C113.597 18.5427 113.711 18.5569 113.84 18.5834C113.971 18.6087 114.096 18.6588 114.216 18.7338C114.338 18.8089 114.438 18.9206 114.516 19.0691C114.594 19.2176 114.631 19.4153 114.627 19.6622L114.591 21.7104L114.113 21.7019L114.12 21.2809L114.096 21.2805C114.063 21.3474 114.007 21.4186 113.93 21.4942C113.854 21.5698 113.752 21.6334 113.625 21.6852C113.499 21.7369 113.345 21.7612 113.165 21.758ZM113.245 21.3302C113.434 21.3336 113.594 21.2993 113.725 21.2274C113.857 21.1555 113.957 21.0614 114.025 20.9452C114.095 20.829 114.131 20.7062 114.133 20.5767L114.141 20.1395C114.12 20.1634 114.075 20.1849 114.006 20.2039C113.938 20.2216 113.86 20.2371 113.77 20.2504C113.682 20.2623 113.596 20.2729 113.513 20.2822C113.43 20.2902 113.363 20.2971 113.312 20.303C113.187 20.317 113.071 20.3412 112.962 20.3758C112.855 20.4089 112.768 20.4607 112.7 20.531C112.634 20.6001 112.6 20.6953 112.598 20.8167C112.595 20.9827 112.654 21.1092 112.776 21.1964C112.898 21.2823 113.055 21.3269 113.245 21.3302ZM115.638 22.895C115.557 22.8936 115.485 22.8855 115.422 22.8709C115.359 22.8577 115.315 22.8447 115.291 22.8322L115.42 22.4134C115.535 22.4451 115.638 22.4577 115.727 22.4512C115.816 22.4447 115.896 22.4063 115.966 22.336C116.037 22.2671 116.103 22.1542 116.164 21.9974L116.258 21.7561L115.163 18.6109L115.681 18.6201L116.496 21.1125L116.528 21.113L117.43 18.6511L117.948 18.6602L116.565 22.1988C116.503 22.3583 116.427 22.4899 116.338 22.5936C116.248 22.6986 116.145 22.7758 116.028 22.825C115.912 22.8742 115.782 22.8976 115.638 22.895ZM120.768 19.4066L120.337 19.5204C120.311 19.4484 120.273 19.3782 120.221 19.3098C120.171 19.2401 120.102 19.1822 120.014 19.1361C119.925 19.09 119.812 19.0657 119.673 19.0633C119.483 19.0599 119.323 19.1009 119.195 19.1864C119.068 19.2705 119.003 19.3794 119.001 19.5129C118.999 19.6317 119.04 19.7262 119.125 19.7966C119.211 19.8669 119.344 19.9266 119.527 19.9757L119.987 20.0972C120.263 20.1696 120.469 20.2765 120.602 20.4179C120.736 20.5579 120.801 20.7366 120.797 20.9538C120.794 21.1319 120.74 21.2902 120.635 21.4287C120.531 21.5672 120.388 21.6753 120.204 21.7531C120.021 21.8308 119.808 21.8675 119.567 21.8632C119.25 21.8576 118.988 21.7842 118.783 21.6429C118.578 21.5016 118.45 21.2982 118.399 21.0328L118.854 20.9275C118.895 21.0955 118.974 21.2225 119.093 21.3082C119.213 21.394 119.37 21.4387 119.566 21.4421C119.789 21.4461 119.966 21.402 120.099 21.3099C120.233 21.2164 120.301 21.1029 120.303 20.9693C120.305 20.8614 120.269 20.7703 120.195 20.6961C120.12 20.6206 120.005 20.5632 119.849 20.524L119.334 20.3934C119.05 20.3209 118.843 20.2126 118.712 20.0686C118.582 19.9232 118.519 19.7433 118.523 19.5288C118.526 19.3534 118.578 19.1991 118.679 19.0659C118.781 18.9328 118.919 18.8292 119.091 18.7554C119.265 18.6815 119.462 18.6465 119.68 18.6504C119.988 18.6558 120.228 18.7276 120.401 18.8656C120.576 19.0037 120.698 19.184 120.768 19.4066Z" fill="white"/>
<path d="M18.1665 46.3667L16.5649 46.3383L16.6486 41.6118L18.2825 41.6407C18.7518 41.649 19.1532 41.7508 19.4868 41.946C19.822 42.1397 20.0772 42.4143 20.2526 42.7699C20.4279 43.1254 20.5112 43.5486 20.5025 44.0394C20.4938 44.5318 20.3947 44.9532 20.2054 45.3039C20.0176 45.6545 19.7504 45.9215 19.404 46.1046C19.0591 46.2878 18.6466 46.3752 18.1665 46.3667ZM17.4342 45.6127L18.1381 45.6251C18.4674 45.6309 18.7431 45.5758 18.9652 45.4597C19.1874 45.342 19.356 45.1642 19.471 44.9261C19.5861 44.6865 19.6468 44.3859 19.6532 44.0244C19.6596 43.6628 19.6095 43.3618 19.503 43.1214C19.3964 42.8794 19.2357 42.6972 19.0209 42.5749C18.8076 42.4511 18.541 42.3864 18.221 42.3807L17.4917 42.3678L17.4342 45.6127ZM22.256 46.5106C22.0314 46.5067 21.8297 46.4631 21.6511 46.3799C21.4741 46.2952 21.3347 46.1727 21.2329 46.0123C21.1326 45.852 21.0845 45.6557 21.0886 45.4234C21.0922 45.2234 21.132 45.0586 21.2082 44.9292C21.2843 44.7997 21.387 44.6969 21.5161 44.6207C21.6452 44.5444 21.7901 44.4878 21.9508 44.4506C22.1131 44.4119 22.2805 44.3849 22.4532 44.3694C22.6613 44.3516 22.8301 44.3353 22.9596 44.3207C23.0892 44.3045 23.1835 44.2785 23.2427 44.2426C23.3034 44.2052 23.3344 44.1465 23.3358 44.0665L23.3361 44.0526C23.3391 43.8788 23.29 43.7432 23.1886 43.646C23.0872 43.5488 22.9396 43.4985 22.7457 43.4951C22.5411 43.4914 22.378 43.5332 22.2564 43.6203C22.1363 43.7074 22.0544 43.8114 22.0108 43.9322L21.2327 43.8076C21.298 43.5933 21.4027 43.4151 21.5469 43.273C21.691 43.1293 21.866 43.0231 22.0719 42.9545C22.2779 42.8842 22.5047 42.8513 22.7524 42.8557C22.9232 42.8587 23.0928 42.8817 23.2614 42.9247C23.4299 42.9677 23.5834 43.0366 23.7218 43.1314C23.8602 43.2247 23.9703 43.3505 24.0521 43.5089C24.1355 43.6674 24.1751 43.8643 24.1709 44.0997L24.1289 46.4722L23.3258 46.458L23.3344 45.9711L23.3067 45.9706C23.2542 46.0681 23.181 46.1592 23.0872 46.2437C22.9949 46.3267 22.8791 46.3932 22.7397 46.443C22.6018 46.4914 22.4406 46.5139 22.256 46.5106ZM22.4838 45.9006C22.6515 45.9036 22.7975 45.8731 22.9217 45.8091C23.046 45.7436 23.1422 45.656 23.2104 45.5464C23.28 45.4368 23.316 45.3166 23.3183 45.1859L23.3257 44.7681C23.2992 44.7892 23.2542 44.8084 23.1908 44.8258C23.1289 44.8431 23.0594 44.8581 22.9822 44.8705C22.905 44.883 22.8287 44.894 22.7531 44.9034C22.6775 44.9129 22.612 44.9209 22.5564 44.9276C22.4315 44.9424 22.3195 44.9681 22.2203 45.0048C22.1212 45.0415 22.0425 45.094 21.9844 45.1622C21.9262 45.2289 21.8962 45.3161 21.8943 45.4238C21.8916 45.5777 21.9457 45.6948 22.0566 45.7753C22.1675 45.8557 22.3099 45.8975 22.4838 45.9006ZM25.3378 47.8234C25.224 47.8214 25.1187 47.8103 25.0221 47.7901C24.927 47.7715 24.8512 47.7501 24.7947 47.7261L25.0001 47.0787C25.121 47.1162 25.2292 47.1351 25.3246 47.1352C25.42 47.1354 25.5044 47.1068 25.5778 47.0496C25.6526 46.994 25.7166 46.8997 25.7698 46.7668L25.8447 46.5765L24.6233 42.935L25.5095 42.9507L26.2791 45.6423L26.316 45.6429L27.1827 42.9803L28.0712 42.996L26.5815 46.9451C26.5121 47.1316 26.4215 47.2908 26.3099 47.4228C26.1983 47.5562 26.0626 47.6569 25.9029 47.7249C25.7446 47.7944 25.5563 47.8273 25.3378 47.8234ZM32.1956 41.887L32.1119 46.6136L31.2557 46.5984L31.3246 42.705L31.2969 42.7045L30.1789 43.3912L30.1928 42.6065L31.3809 41.8726L32.1956 41.887Z" fill="#696969"/>
<path d="M106.339 46.8021L104.906 46.7768L104.881 48.2295L104.309 48.2194L104.335 46.7666L102.909 46.7414L102.918 46.2235L104.344 46.2488L104.37 44.7893L104.941 44.7995L104.916 46.2589L106.348 46.2843L106.339 46.8021ZM107.208 44.7118L107.217 44.1535L108.482 44.1759L108.396 49.0385L107.777 49.0275L107.853 44.7232L107.208 44.7118ZM109.491 46.5754C109.505 45.8042 109.641 45.2056 109.9 44.7796C110.158 44.3491 110.602 44.1395 111.229 44.1506C111.853 44.1616 112.286 44.3868 112.529 44.8262C112.773 45.261 112.888 45.8641 112.874 46.6353C112.86 47.4199 112.724 48.0275 112.465 48.4579C112.206 48.8884 111.765 49.0981 111.142 49.0871C110.514 49.076 110.079 48.8507 109.835 48.4114C109.592 47.972 109.477 47.36 109.491 46.5754ZM112.269 46.6246C112.276 46.2345 112.254 45.9045 112.205 45.6345C112.161 45.3601 112.059 45.1385 111.901 44.9698C111.747 44.8011 111.52 44.7141 111.219 44.7088C110.915 44.7034 110.68 44.7822 110.516 44.9453C110.356 45.1084 110.246 45.3262 110.188 45.5988C110.134 45.8669 110.103 46.196 110.096 46.5861C110.089 46.9896 110.108 47.3286 110.152 47.603C110.201 47.8774 110.303 48.099 110.457 48.2677C110.615 48.4364 110.847 48.5235 111.152 48.5289C111.452 48.5342 111.682 48.4553 111.842 48.2922C112.007 48.1291 112.116 47.9113 112.17 47.6387C112.229 47.3661 112.262 47.0281 112.269 46.6246ZM113.714 46.6501C113.728 45.879 113.864 45.2804 114.123 44.8544C114.381 44.4239 114.825 44.2142 115.452 44.2253C116.076 44.2364 116.509 44.4616 116.752 44.9009C116.996 45.3358 117.111 45.9389 117.097 46.71C117.083 47.4947 116.947 48.1022 116.688 48.5327C116.429 48.9632 115.988 49.1729 115.365 49.1619C114.737 49.1508 114.302 48.9255 114.058 48.4862C113.815 48.0468 113.7 47.4348 113.714 46.6501ZM116.492 46.6993C116.499 46.3092 116.478 45.9792 116.429 45.7092C116.384 45.4349 116.283 45.2133 116.124 45.0446C115.97 44.8759 115.743 44.7889 115.443 44.7836C115.138 44.7782 114.903 44.857 114.739 45.02C114.579 45.1831 114.47 45.401 114.411 45.6735C114.357 45.9417 114.326 46.2708 114.319 46.6609C114.312 47.0644 114.331 47.4034 114.375 47.6777C114.424 47.9522 114.526 48.1737 114.68 48.3424C114.838 48.5112 115.07 48.5983 115.375 48.6037C115.675 48.609 115.905 48.5301 116.065 48.367C116.23 48.2039 116.339 47.9861 116.393 47.7134C116.452 47.4409 116.485 47.1029 116.492 46.6993ZM117.937 46.7249C117.951 45.9537 118.087 45.3551 118.346 44.9292C118.605 44.4987 119.048 44.289 119.676 44.3001C120.299 44.3111 120.732 44.5363 120.976 44.9757C121.219 45.4106 121.334 46.0136 121.32 46.7848C121.306 47.5695 121.17 48.177 120.911 48.6075C120.652 49.038 120.211 49.2477 119.588 49.2366C118.96 49.2255 118.525 49.0003 118.282 48.5609C118.038 48.1216 117.923 47.5096 117.937 46.7249ZM120.715 46.7741C120.722 46.384 120.701 46.054 120.652 45.784C120.607 45.5096 120.506 45.2881 120.347 45.1193C120.193 44.9506 119.966 44.8637 119.666 44.8583C119.361 44.8529 119.126 44.9318 118.962 45.0948C118.802 45.2579 118.693 45.4757 118.634 45.7483C118.58 46.0164 118.55 46.3456 118.543 46.7356C118.535 47.1392 118.554 47.4781 118.599 47.7525C118.648 48.027 118.749 48.2485 118.903 48.4172C119.062 48.5859 119.293 48.673 119.598 48.6784C119.898 48.6837 120.129 48.6048 120.288 48.4417C120.453 48.2787 120.562 48.0609 120.616 47.7882C120.675 47.5157 120.708 47.1776 120.715 46.7741Z" fill="#F7B05B"/>
<path d="M17.9854 64.9694L16.3837 64.941L16.4674 60.2145L18.1014 60.2434C18.5707 60.2517 18.9721 60.3535 19.3057 60.5487C19.6409 60.7424 19.8961 61.017 20.0714 61.3725C20.2467 61.7281 20.3301 62.1513 20.3214 62.6421C20.3126 63.1344 20.2136 63.5559 20.0243 63.9066C19.8364 64.2572 19.5693 64.5241 19.2228 64.7073C18.8779 64.8905 18.4654 64.9779 17.9854 64.9694ZM17.2531 64.2153L17.957 64.2278C18.2862 64.2336 18.5619 64.1785 18.7841 64.0624C19.0063 63.9447 19.1749 63.7669 19.2899 63.5288C19.4049 63.2892 19.4657 62.9886 19.4721 62.627C19.4785 62.2655 19.4284 61.9645 19.3218 61.724C19.2153 61.4821 19.0546 61.2999 18.8398 61.1776C18.6265 61.0538 18.3598 60.989 18.0398 60.9834L17.3105 60.9704L17.2531 64.2153ZM22.0749 65.1133C21.8502 65.1093 21.6486 65.0658 21.47 64.9826C21.293 64.8979 21.1535 64.7753 21.0517 64.615C20.9515 64.4547 20.9034 64.2584 20.9075 64.0261C20.911 63.8261 20.9509 63.6613 21.027 63.5318C21.1032 63.4024 21.2058 63.2995 21.3349 63.2233C21.464 63.1471 21.6089 63.0904 21.7697 63.0533C21.9319 63.0146 22.0994 62.9875 22.2721 62.9721C22.4801 62.9543 22.649 62.938 22.7785 62.9234C22.9081 62.9072 23.0024 62.8812 23.0615 62.8453C23.1222 62.8079 23.1533 62.7492 23.1547 62.6692L23.1549 62.6553C23.158 62.4815 23.1089 62.3459 23.0075 62.2487C22.9061 62.1515 22.7584 62.1012 22.5646 62.0977C22.3599 62.0941 22.1968 62.1358 22.0752 62.223C21.9552 62.3101 21.8733 62.4141 21.8296 62.5349L21.0515 62.4103C21.1169 62.196 21.2216 62.0178 21.3657 61.8756C21.5099 61.732 21.6849 61.6258 21.8908 61.5571C22.0967 61.4869 22.3236 61.454 22.5713 61.4584C22.7421 61.4614 22.9117 61.4844 23.0803 61.5274C23.2488 61.5704 23.4022 61.6393 23.5406 61.7341C23.679 61.8273 23.7891 61.9532 23.871 62.1116C23.9544 62.2701 23.994 62.467 23.9898 62.7024L23.9478 65.0749L23.1447 65.0607L23.1533 64.5737L23.1256 64.5732C23.0731 64.6708 22.9999 64.7619 22.9061 64.8464C22.8138 64.9294 22.6979 64.9958 22.5585 65.0457C22.4207 65.094 22.2595 65.1166 22.0749 65.1133ZM22.3027 64.5033C22.4704 64.5062 22.6164 64.4757 22.7406 64.4117C22.8649 64.3462 22.9611 64.2587 23.0292 64.1491C23.0989 64.0395 23.1349 63.9193 23.1372 63.7885L23.1446 63.3708C23.118 63.3919 23.0731 63.4111 23.0097 63.4284C22.9478 63.4458 22.8783 63.4607 22.8011 63.4732C22.7239 63.4857 22.6475 63.4967 22.572 63.5061C22.4964 63.5155 22.4308 63.5236 22.3753 63.5303C22.2504 63.545 22.1383 63.5708 22.0392 63.6075C21.94 63.6442 21.8614 63.6967 21.8032 63.7649C21.7451 63.8316 21.7151 63.9188 21.7132 64.0265C21.7105 64.1804 21.7646 64.2975 21.8755 64.378C21.9864 64.4584 22.1288 64.5002 22.3027 64.5033ZM25.1567 66.4261C25.0428 66.4241 24.9376 66.413 24.841 66.3928C24.7459 66.3742 24.6701 66.3528 24.6136 66.3287L24.819 65.6813C24.9399 65.7189 25.0481 65.7377 25.1435 65.7379C25.2389 65.738 25.3233 65.7095 25.3966 65.6523C25.4715 65.5967 25.5355 65.5024 25.5886 65.3695L25.6636 65.1792L24.4421 61.5377L25.3284 61.5533L26.098 64.2449L26.1349 64.2456L27.0016 61.583L27.8901 61.5987L26.4004 65.5477C26.3309 65.7343 26.2404 65.8935 26.1288 66.0254C26.0171 66.1589 25.8815 66.2596 25.7217 66.3276C25.5635 66.3971 25.3752 66.4299 25.1567 66.4261ZM30.0083 65.1822L30.0192 64.5637L31.6886 62.9842C31.8484 62.8285 31.9816 62.69 32.0884 62.5688C32.1952 62.4475 32.2758 62.3297 32.3302 62.2152C32.3845 62.1007 32.4129 61.9781 32.4152 61.8473C32.4178 61.6981 32.3862 61.5698 32.3204 61.4624C32.2546 61.3535 32.163 61.2688 32.0456 61.2082C31.9281 61.1477 31.794 61.1161 31.6433 61.1134C31.4879 61.1106 31.3511 61.1405 31.233 61.2031C31.115 61.2641 31.0226 61.3525 30.9559 61.4683C30.8908 61.5841 30.8568 61.7228 30.8539 61.8843L30.0392 61.8699C30.0445 61.5699 30.1176 61.3103 30.2585 61.0912C30.3993 60.8721 30.5909 60.7038 30.833 60.5865C31.0767 60.4693 31.3548 60.4134 31.6671 60.4189C31.984 60.4245 32.2615 60.4887 32.4994 60.6114C32.7373 60.7341 32.9206 60.8998 33.0493 61.1083C33.1795 61.3168 33.2423 61.5534 33.2376 61.818C33.2344 61.995 33.1975 62.1682 33.1268 62.3378C33.0561 62.5074 32.9335 62.6945 32.759 62.8992C32.5861 63.1039 32.3439 63.3513 32.0325 63.6413L31.2032 64.4554L31.2026 64.4877L33.2612 64.5241L33.2486 65.2396L30.0083 65.1822Z" fill="#696969"/>
<path d="M102.619 65.2952L101.152 65.2692L101.125 66.7573L100.54 66.747L100.566 65.2588L99.1053 65.233L99.1147 64.7025L100.575 64.7283L100.602 63.2333L101.187 63.2437L101.161 64.7387L102.628 64.7647L102.619 65.2952ZM103.529 67.0618C104.121 66.6036 104.585 66.2282 104.921 65.9355C105.257 65.6382 105.54 65.3285 105.771 65.0064C106.007 64.6798 106.127 64.358 106.133 64.0411C106.138 63.7425 106.069 63.507 105.925 63.3344C105.785 63.1574 105.555 63.066 105.233 63.0603C104.921 63.0548 104.676 63.1492 104.498 63.3436C104.325 63.5335 104.228 63.7914 104.209 64.1173L103.602 64.1065C103.63 63.5924 103.793 63.1979 104.092 62.9229C104.391 62.648 104.772 62.5146 105.236 62.5228C105.709 62.5312 106.081 62.6687 106.352 62.9354C106.628 63.2021 106.761 63.5652 106.753 64.0245C106.746 64.4057 106.625 64.7757 106.389 65.1345C106.158 65.4888 105.895 65.8011 105.601 66.0716C105.306 66.3374 104.931 66.6478 104.474 67.0027L106.844 67.0447L106.835 67.5683L103.521 67.5096L103.529 67.0618ZM107.861 67.6829C107.742 67.6808 107.642 67.6377 107.56 67.5535C107.479 67.4694 107.44 67.3676 107.442 67.2482C107.444 67.1288 107.487 67.0285 107.571 66.9473C107.655 66.8661 107.757 66.8265 107.877 66.8286C107.991 66.8307 108.087 66.8737 108.164 66.9578C108.245 67.0419 108.284 67.1437 108.282 67.2631C108.28 67.3825 108.237 67.4828 108.153 67.564C108.073 67.6453 107.976 67.685 107.861 67.6829ZM108.874 66.5499L108.882 66.0745L111.36 62.769L112.11 62.7823L112.052 66.0618L112.741 66.074L112.732 66.6182L112.043 66.606L112.023 67.7153L111.403 67.7043L111.423 66.5951L108.874 66.5499ZM111.506 63.4264L109.607 66.0185L111.46 66.0513L111.506 63.4264ZM113.206 66.6266L113.215 66.1513L115.692 62.8458L116.443 62.8591L116.385 66.1385L117.074 66.1507L117.065 66.6949L116.376 66.6827L116.356 67.792L115.736 67.781L115.756 66.6718L113.206 66.6266ZM115.839 63.5031L113.939 66.0952L115.793 66.128L115.839 63.5031ZM120.379 67.8632L118.44 65.6373L118.402 67.8282L117.775 67.8171L117.86 63.0151L118.487 63.0262L118.447 65.2515L120.471 63.0613L121.263 63.0753L119.043 65.4412L121.199 67.8777L120.379 67.8632Z" fill="#F7B05B"/>
<path d="M17.6023 83.5784L16.0007 83.55L16.0844 78.8235L17.7183 78.8524C18.1876 78.8607 18.589 78.9625 18.9226 79.1577C19.2578 79.3514 19.513 79.626 19.6884 79.9816C19.8637 80.3371 19.947 80.7603 19.9383 81.2511C19.9296 81.7435 19.8305 82.165 19.6412 82.5156C19.4534 82.8663 19.1862 83.1332 18.8398 83.3163C18.4949 83.4995 18.0824 83.5869 17.6023 83.5784ZM16.87 82.8244L17.5739 82.8368C17.9032 82.8427 18.1789 82.7875 18.401 82.6714C18.6232 82.5538 18.7918 82.3759 18.9068 82.1378C19.0219 81.8982 19.0826 81.5977 19.089 81.2361C19.0954 80.8745 19.0453 80.5735 18.9388 80.3331C18.8322 80.0911 18.6716 79.909 18.4567 79.7866C18.2434 79.6628 17.9768 79.5981 17.6568 79.5924L16.9275 79.5795L16.87 82.8244ZM21.6918 83.7224C21.4672 83.7184 21.2655 83.6748 21.0869 83.5916C20.9099 83.5069 20.7705 83.3844 20.6687 83.2241C20.5684 83.0638 20.5203 82.8675 20.5244 82.6351C20.528 82.4351 20.5678 82.2704 20.644 82.1409C20.7202 82.0114 20.8228 81.9086 20.9519 81.8324C21.081 81.7562 21.2259 81.6995 21.3866 81.6623C21.5489 81.6236 21.7163 81.5966 21.889 81.5812C22.0971 81.5633 22.2659 81.5471 22.3954 81.5324C22.525 81.5162 22.6194 81.4902 22.6785 81.4543C22.7392 81.4169 22.7702 81.3582 22.7716 81.2782L22.7719 81.2644C22.7749 81.0905 22.7258 80.955 22.6244 80.8577C22.523 80.7605 22.3754 80.7102 22.1815 80.7068C21.9769 80.7031 21.8138 80.7449 21.6922 80.832C21.5721 80.9191 21.4903 81.0231 21.4466 81.1439L20.6685 81.0193C20.7338 80.805 20.8385 80.6268 20.9827 80.4847C21.1268 80.341 21.3018 80.2349 21.5077 80.1662C21.7137 80.0959 21.9405 80.063 22.1882 80.0674C22.359 80.0704 22.5287 80.0934 22.6972 80.1364C22.8657 80.1794 23.0192 80.2483 23.1576 80.3431C23.296 80.4364 23.4061 80.5622 23.4879 80.7207C23.5713 80.8791 23.6109 81.0761 23.6068 81.3115L23.5647 83.684L22.7616 83.6697L22.7702 83.1828L22.7425 83.1823C22.69 83.2799 22.6168 83.3709 22.523 83.4554C22.4307 83.5384 22.3149 83.6049 22.1755 83.6547C22.0377 83.7031 21.8764 83.7256 21.6918 83.7224ZM21.9196 83.1123C22.0873 83.1153 22.2333 83.0848 22.3575 83.0208C22.4818 82.9553 22.578 82.8677 22.6462 82.7581C22.7158 82.6485 22.7518 82.5283 22.7541 82.3976L22.7615 81.9798C22.735 82.0009 22.69 82.0201 22.6266 82.0375C22.5647 82.0549 22.4952 82.0698 22.418 82.0823C22.3409 82.0948 22.2645 82.1057 22.1889 82.1151C22.1133 82.1246 22.0478 82.1327 21.9922 82.1394C21.8673 82.1541 21.7553 82.1798 21.6561 82.2165C21.557 82.2532 21.4783 82.3057 21.4202 82.374C21.362 82.4406 21.332 82.5278 21.3301 82.6355C21.3274 82.7894 21.3815 82.9066 21.4924 82.987C21.6033 83.0675 21.7457 83.1092 21.9196 83.1123ZM24.7736 85.0351C24.6598 85.0331 24.5545 85.022 24.4579 85.0018C24.3628 84.9832 24.287 84.9619 24.2305 84.9378L24.4359 84.2904C24.5568 84.3279 24.665 84.3468 24.7604 84.3469C24.8558 84.3471 24.9402 84.3186 25.0136 84.2614C25.0884 84.2057 25.1524 84.1115 25.2056 83.9785L25.2805 83.7882L24.0591 80.1467L24.9453 80.1624L25.7149 82.854L25.7518 82.8546L26.6185 80.192L27.5071 80.2077L26.0173 84.1568C25.9479 84.3433 25.8573 84.5025 25.7457 84.6345C25.6341 84.7679 25.4984 84.8686 25.3387 84.9366C25.1804 85.0062 24.9921 85.039 24.7736 85.0351ZM31.3204 83.8859C30.988 83.88 30.6936 83.8179 30.4372 83.6994C30.1822 83.581 29.982 83.419 29.8363 83.2132C29.6907 83.0075 29.6156 82.7715 29.6111 82.5051L30.4788 82.5205C30.4843 82.6483 30.5246 82.7606 30.5998 82.8574C30.6751 82.9526 30.7761 83.0275 30.9029 83.0821C31.0297 83.1366 31.1723 83.1653 31.3308 83.1681C31.5 83.1711 31.6506 83.1445 31.7824 83.0884C31.9142 83.0307 32.018 82.9494 32.0937 82.8446C32.1695 82.7397 32.2078 82.618 32.2087 82.4795C32.2128 82.3365 32.1781 82.2097 32.1046 82.0991C32.0312 81.9885 31.9234 81.9012 31.7814 81.8371C31.641 81.7731 31.4707 81.7393 31.2707 81.7357L30.853 81.7283L30.8647 81.0683L31.2824 81.0757C31.447 81.0786 31.5914 81.0527 31.7155 80.9979C31.8411 80.9432 31.9402 80.8649 32.0128 80.7631C32.0855 80.6597 32.1222 80.5396 32.1231 80.4026C32.127 80.2688 32.0991 80.1521 32.0393 80.0525C31.981 79.9514 31.897 79.8722 31.7872 79.8149C31.679 79.7576 31.551 79.7276 31.4033 79.725C31.2587 79.7224 31.1243 79.7462 31.0003 79.7963C30.8763 79.8465 30.7757 79.9193 30.6986 80.0149C30.6216 80.109 30.5795 80.2221 30.5726 80.3544L29.7487 80.3398C29.7595 80.0752 29.8398 79.8443 29.9895 79.6468C30.1408 79.4479 30.3405 79.2945 30.5886 79.1865C30.8368 79.077 31.114 79.025 31.4202 79.0304C31.7356 79.036 32.0084 79.1001 32.2387 79.2226C32.4704 79.3437 32.6484 79.5046 32.7726 79.7054C32.8968 79.9061 32.9568 80.1265 32.9525 80.3665C32.9494 80.6327 32.8669 80.8544 32.7053 81.0316C32.5452 81.2088 32.3369 81.3229 32.0805 81.3738L32.0799 81.4107C32.4114 81.4627 32.6638 81.5903 32.8372 81.7935C33.0122 81.9951 33.0963 82.2436 33.0895 82.539C33.0848 82.8036 33.0053 83.0392 32.8508 83.2458C32.6979 83.4509 32.4888 83.6103 32.2236 83.7241C31.9599 83.838 31.6589 83.8919 31.3204 83.8859Z" fill="#696969"/>
<path d="M107.785 84.0527L106.352 84.0273L106.326 85.48L105.755 85.4699L105.78 84.0172L104.355 83.992L104.364 83.4741L105.79 83.4994L105.815 82.0399L106.387 82.05L106.361 83.5095L107.794 83.5348L107.785 84.0527ZM109.548 84.9787C109.589 85.2351 109.688 85.4342 109.847 85.576C110.011 85.718 110.231 85.7914 110.509 85.7963C110.882 85.8029 111.158 85.662 111.338 85.3737C111.522 85.0854 111.616 84.596 111.619 83.9053C111.522 84.1054 111.362 84.2618 111.14 84.3745C110.918 84.4827 110.673 84.5344 110.404 84.5296C110.104 84.5243 109.836 84.459 109.6 84.3338C109.369 84.2041 109.189 84.0193 109.058 83.7792C108.928 83.5392 108.866 83.2511 108.872 82.9148C108.88 82.435 109.026 82.0519 109.309 81.7654C109.592 81.4744 109.99 81.3334 110.501 81.3425C111.129 81.3536 111.564 81.5654 111.808 81.9778C112.057 82.3904 112.174 83.0002 112.159 83.8072C112.149 84.3722 112.089 84.8376 111.98 85.2034C111.875 85.5693 111.699 85.8465 111.454 86.035C111.213 86.2236 110.884 86.3142 110.467 86.3068C110.009 86.2988 109.655 86.1691 109.404 85.918C109.153 85.6669 109.013 85.3504 108.983 84.9687L109.548 84.9787ZM110.514 84.0136C110.814 84.0189 111.063 83.9313 111.259 83.7509C111.455 83.566 111.556 83.3144 111.561 82.9961C111.567 82.6598 111.478 82.3869 111.293 82.1773C111.109 81.9677 110.846 81.8599 110.505 81.8538C110.191 81.8483 109.939 81.9425 109.747 82.1364C109.559 82.3305 109.463 82.5889 109.457 82.9117C109.451 83.239 109.539 83.5029 109.719 83.7035C109.899 83.904 110.164 84.0074 110.514 84.0136ZM113.019 83.8628C113.032 83.0916 113.168 82.493 113.427 82.067C113.686 81.6366 114.129 81.4269 114.757 81.438C115.38 81.449 115.813 81.6742 116.057 82.1136C116.3 82.5485 116.415 83.1515 116.402 83.9227C116.388 84.7073 116.251 85.3149 115.993 85.7454C115.734 86.1758 115.293 86.3856 114.67 86.3745C114.042 86.3634 113.606 86.1382 113.363 85.6988C113.119 85.2595 113.005 84.6475 113.019 83.8628ZM115.796 83.912C115.803 83.5219 115.782 83.1919 115.733 82.9219C115.689 82.6475 115.587 82.426 115.429 82.2572C115.275 82.0885 115.047 82.0015 114.747 81.9962C114.442 81.9908 114.208 82.0696 114.043 82.2327C113.883 82.3958 113.774 82.6136 113.715 82.8862C113.661 83.1543 113.631 83.4834 113.624 83.8735C113.617 84.2771 113.635 84.616 113.68 84.8904C113.729 85.1648 113.83 85.3864 113.984 85.5551C114.143 85.7238 114.375 85.8109 114.679 85.8163C114.98 85.8216 115.21 85.7427 115.37 85.5796C115.534 85.4166 115.643 85.1987 115.698 84.9261C115.756 84.6536 115.789 84.3155 115.796 83.912ZM117.242 83.9376C117.255 83.1664 117.392 82.5678 117.65 82.1418C117.909 81.7113 118.352 81.5017 118.98 81.5128C119.603 81.5238 120.037 81.749 120.28 82.1884C120.523 82.6232 120.638 83.2263 120.625 83.9975C120.611 84.7821 120.474 85.3897 120.216 85.8201C119.957 86.2506 119.516 86.4603 118.893 86.4493C118.265 86.4382 117.829 86.2129 117.586 85.7736C117.343 85.3342 117.228 84.7222 117.242 83.9376ZM120.019 83.9868C120.026 83.5967 120.005 83.2667 119.956 82.9967C119.912 82.7223 119.81 82.5007 119.652 82.332C119.498 82.1633 119.271 82.0763 118.97 82.071C118.665 82.0656 118.431 82.1444 118.266 82.3075C118.106 82.4706 117.997 82.6884 117.939 82.961C117.884 83.2291 117.854 83.5582 117.847 83.9483C117.84 84.3518 117.859 84.6908 117.903 84.9652C117.952 85.2396 118.054 85.4612 118.208 85.6299C118.366 85.7986 118.598 85.8857 118.903 85.8911C119.203 85.8964 119.433 85.8175 119.593 85.6544C119.757 85.4913 119.867 85.2735 119.921 85.0009C119.979 84.7283 120.012 84.3903 120.019 83.9868Z" fill="#F7B05B"/>
<path d="M17.3203 102.189L15.7186 102.161L15.8023 97.4343L17.4363 97.4633C17.9056 97.4716 18.307 97.5733 18.6406 97.7685C18.9758 97.9622 19.231 98.2369 19.4063 98.5924C19.5816 98.948 19.6649 99.3712 19.6562 99.862C19.6475 100.354 19.5485 100.776 19.3591 101.126C19.1713 101.477 18.9042 101.744 18.5577 101.927C18.2128 102.11 17.8003 102.198 17.3203 102.189ZM16.588 101.435L17.2919 101.448C17.6211 101.453 17.8968 101.398 18.119 101.282C18.3411 101.165 18.5097 100.987 18.6248 100.749C18.7398 100.509 18.8005 100.208 18.8069 99.8469C18.8133 99.4854 18.7633 99.1844 18.6567 98.9439C18.5502 98.7019 18.3895 98.5198 18.1747 98.3975C17.9614 98.2737 17.6947 98.2089 17.3747 98.2032L16.6454 98.1903L16.588 101.435ZM21.4097 102.333C21.1851 102.329 20.9835 102.286 20.8049 102.202C20.6279 102.118 20.4884 101.995 20.3866 101.835C20.2863 101.675 20.2383 101.478 20.2424 101.246C20.2459 101.046 20.2858 100.881 20.3619 100.752C20.4381 100.622 20.5407 100.519 20.6698 100.443C20.7989 100.367 20.9438 100.31 21.1045 100.273C21.2668 100.234 21.4343 100.207 21.6069 100.192C21.815 100.174 21.9838 100.158 22.1134 100.143C22.243 100.127 22.3373 100.101 22.3964 100.065C22.4571 100.028 22.4882 99.969 22.4896 99.889L22.4898 99.8752C22.4929 99.7013 22.4437 99.5658 22.3423 99.4686C22.2409 99.3714 22.0933 99.321 21.8995 99.3176C21.6948 99.314 21.5317 99.3557 21.4101 99.4428C21.2901 99.53 21.2082 99.634 21.1645 99.7548L20.3864 99.6302C20.4518 99.4159 20.5565 99.2377 20.7006 99.0955C20.8447 98.9519 21.0198 98.8457 21.2257 98.777C21.4316 98.7068 21.6584 98.6739 21.9062 98.6782C22.0769 98.6813 22.2466 98.7043 22.4151 98.7473C22.5837 98.7903 22.7371 98.8592 22.8755 98.954C23.0139 99.0472 23.124 99.1731 23.2059 99.3315C23.2893 99.49 23.3289 99.6869 23.3247 99.9223L23.2827 102.295L22.4796 102.281L22.4882 101.794L22.4605 101.793C22.408 101.891 22.3348 101.982 22.2409 102.066C22.1487 102.149 22.0328 102.216 21.8934 102.266C21.7556 102.314 21.5944 102.336 21.4097 102.333ZM21.6375 101.723C21.8053 101.726 21.9512 101.696 22.0755 101.632C22.1998 101.566 22.296 101.479 22.3641 101.369C22.4338 101.259 22.4697 101.139 22.4721 101.008L22.4795 100.591C22.4529 100.612 22.4079 100.631 22.3445 100.648C22.2827 100.666 22.2131 100.681 22.136 100.693C22.0588 100.706 21.9824 100.717 21.9068 100.726C21.8313 100.735 21.7657 100.743 21.7102 100.75C21.5853 100.765 21.4732 100.791 21.3741 100.827C21.2749 100.864 21.1963 100.917 21.1381 100.985C21.08 101.051 21.05 101.139 21.0481 101.246C21.0453 101.4 21.0994 101.517 21.2104 101.598C21.3213 101.678 21.4637 101.72 21.6375 101.723ZM24.4916 103.646C24.3777 103.644 24.2725 103.633 24.1759 103.613C24.0808 103.594 24.005 103.573 23.9485 103.549L24.1538 102.901C24.2748 102.939 24.3829 102.958 24.4784 102.958C24.5738 102.958 24.6582 102.929 24.7315 102.872C24.8064 102.817 24.8704 102.722 24.9235 102.589L24.9984 102.399L23.777 98.7575L24.6633 98.7732L25.4328 101.465L25.4698 101.465L26.3365 98.8028L27.225 98.8186L25.7353 102.768C25.6658 102.954 25.5753 103.113 25.4637 103.245C25.352 103.379 25.2163 103.479 25.0566 103.547C24.8984 103.617 24.71 103.65 24.4916 103.646ZM29.2733 101.524L29.2854 100.843L31.347 97.7096L31.9148 97.7196L31.8976 98.6889L31.5514 98.6828L30.1634 100.798L30.1628 100.835L32.9622 100.885L32.9498 101.589L29.2733 101.524ZM31.5126 102.441L31.5318 101.356L31.5464 101.051L31.6055 97.7141L32.4133 97.7284L32.3296 102.455L31.5126 102.441Z" fill="#696969"/>
<path d="M107.472 102.66L106.039 102.634L106.014 104.087L105.442 104.077L105.468 102.624L104.042 102.599L104.051 102.081L105.477 102.106L105.503 100.647L106.074 100.657L106.049 102.116L107.481 102.142L107.472 102.66ZM108.341 100.569L108.351 100.011L109.615 100.033L109.529 104.896L108.91 104.885L108.986 100.581L108.341 100.569ZM110.624 102.433C110.638 101.662 110.774 101.063 111.033 100.637C111.291 100.207 111.735 99.997 112.362 100.008C112.986 100.019 113.419 100.244 113.662 100.684C113.906 101.119 114.021 101.722 114.007 102.493C113.993 103.277 113.857 103.885 113.598 104.315C113.339 104.746 112.898 104.956 112.275 104.945C111.647 104.933 111.212 104.708 110.968 104.269C110.725 103.83 110.61 103.218 110.624 102.433ZM113.402 102.482C113.409 102.092 113.388 101.762 113.338 101.492C113.294 101.218 113.193 100.996 113.034 100.827C112.88 100.659 112.653 100.572 112.352 100.566C112.048 100.561 111.813 100.64 111.649 100.803C111.489 100.966 111.379 101.184 111.321 101.456C111.267 101.724 111.236 102.054 111.229 102.444C111.222 102.847 111.241 103.186 111.285 103.46C111.334 103.735 111.436 103.956 111.59 104.125C111.748 104.294 111.98 104.381 112.285 104.386C112.585 104.392 112.815 104.313 112.975 104.15C113.14 103.987 113.249 103.769 113.303 103.496C113.362 103.224 113.395 102.886 113.402 102.482ZM114.718 100.682L114.728 100.124L115.992 100.146L115.906 105.009L115.287 104.998L115.364 100.694L114.718 100.682ZM119.601 105.074L117.708 102.901L117.67 105.04L117.058 105.029L117.141 100.342L117.753 100.352L117.715 102.525L119.69 100.387L120.464 100.4L118.297 102.71L120.401 105.088L119.601 105.074Z" fill="#F7B05B"/>
<path d="M16.9775 120.789L15.3758 120.761L15.4595 116.034L17.0934 116.063C17.5627 116.071 17.9642 116.173 18.2978 116.368C18.6329 116.562 18.8882 116.837 19.0635 117.192C19.2388 117.548 19.3221 117.971 19.3134 118.462C19.3047 118.954 19.2057 119.376 19.0163 119.726C18.8285 120.077 18.5613 120.344 18.2149 120.527C17.87 120.71 17.4575 120.798 16.9775 120.789ZM16.2451 120.035L16.949 120.047C17.2783 120.053 17.554 119.998 17.7761 119.882C17.9983 119.764 18.1669 119.587 18.2819 119.348C18.397 119.109 18.4577 118.808 18.4641 118.447C18.4705 118.085 18.4204 117.784 18.3139 117.544C18.2074 117.302 18.0467 117.12 17.8318 116.997C17.6185 116.873 17.3519 116.809 17.0319 116.803L16.3026 116.79L16.2451 120.035ZM21.0669 120.933C20.8423 120.929 20.6407 120.885 20.4621 120.802C20.285 120.718 20.1456 120.595 20.0438 120.435C19.9435 120.274 19.8954 120.078 19.8995 119.846C19.9031 119.646 19.9429 119.481 20.0191 119.352C20.0953 119.222 20.1979 119.119 20.327 119.043C20.4561 118.967 20.601 118.91 20.7617 118.873C20.924 118.834 21.0915 118.807 21.2641 118.792C21.4722 118.774 21.641 118.758 21.7706 118.743C21.9001 118.727 21.9945 118.701 22.0536 118.665C22.1143 118.628 22.1453 118.569 22.1467 118.489L22.147 118.475C22.1501 118.301 22.1009 118.166 21.9995 118.068C21.8981 117.971 21.7505 117.921 21.5566 117.917C21.352 117.914 21.1889 117.956 21.0673 118.043C20.9472 118.13 20.8654 118.234 20.8217 118.355L20.0436 118.23C20.1089 118.016 20.2137 117.837 20.3578 117.695C20.5019 117.552 20.6769 117.446 20.8828 117.377C21.0888 117.307 21.3156 117.274 21.5633 117.278C21.7341 117.281 21.9038 117.304 22.0723 117.347C22.2408 117.39 22.3943 117.459 22.5327 117.554C22.6711 117.647 22.7812 117.773 22.863 117.931C22.9464 118.09 22.986 118.287 22.9819 118.522L22.9399 120.895L22.1367 120.88L22.1453 120.393L22.1176 120.393C22.0651 120.491 21.9919 120.582 21.8981 120.666C21.8058 120.749 21.69 120.816 21.5506 120.865C21.4128 120.914 21.2515 120.936 21.0669 120.933ZM21.2947 120.323C21.4624 120.326 21.6084 120.295 21.7327 120.231C21.8569 120.166 21.9531 120.078 22.0213 119.969C22.0909 119.859 22.1269 119.739 22.1292 119.608L22.1366 119.19C22.1101 119.212 22.0651 119.231 22.0017 119.248C21.9398 119.265 21.8703 119.28 21.7931 119.293C21.716 119.305 21.6396 119.316 21.564 119.326C21.4884 119.335 21.4229 119.343 21.3673 119.35C21.2424 119.365 21.1304 119.39 21.0312 119.427C20.9321 119.464 20.8534 119.516 20.7953 119.585C20.7371 119.651 20.7071 119.738 20.7052 119.846C20.7025 120 20.7566 120.117 20.8675 120.198C20.9785 120.278 21.1209 120.32 21.2947 120.323ZM24.1487 122.246C24.0349 122.244 23.9296 122.233 23.833 122.212C23.7379 122.194 23.6621 122.173 23.6056 122.148L23.811 121.501C23.9319 121.539 24.0401 121.557 24.1355 121.558C24.2309 121.558 24.3153 121.529 24.3887 121.472C24.4635 121.416 24.5275 121.322 24.5807 121.189L24.6556 120.999L23.4342 117.357L24.3204 117.373L25.09 120.065L25.1269 120.065L25.9936 117.403L26.8822 117.418L25.3925 121.367C25.323 121.554 25.2324 121.713 25.1208 121.845C25.0092 121.979 24.8735 122.079 24.7138 122.147C24.5556 122.217 24.3672 122.25 24.1487 122.246ZM30.6424 121.096C30.3347 121.09 30.0603 121.028 29.8193 120.908C29.5782 120.787 29.388 120.623 29.2485 120.418C29.1105 120.212 29.0392 119.978 29.0346 119.717L29.8655 119.731C29.8774 119.925 29.9585 120.085 30.1086 120.211C30.2588 120.335 30.4408 120.399 30.6547 120.403C30.8224 120.406 30.9723 120.37 31.1044 120.296C31.2366 120.221 31.3416 120.116 31.4194 119.98C31.4972 119.845 31.5369 119.689 31.5384 119.514C31.5431 119.335 31.5083 119.176 31.4338 119.037C31.3593 118.897 31.2558 118.786 31.1234 118.705C30.9909 118.623 30.8378 118.58 30.6639 118.577C30.5224 118.573 30.3827 118.597 30.2448 118.648C30.1069 118.7 29.9972 118.769 29.9156 118.855L29.1447 118.714L29.4348 116.282L32.1766 116.33L32.1639 117.046L30.1307 117.01L29.9723 118.26L30 118.261C30.0895 118.159 30.2149 118.076 30.3761 118.011C30.5374 117.945 30.7134 117.913 30.9042 117.917C31.1903 117.922 31.4445 117.994 31.6668 118.133C31.889 118.271 32.0627 118.459 32.1878 118.697C32.3129 118.934 32.3727 119.205 32.3673 119.508C32.3618 119.82 32.2846 120.097 32.1356 120.339C31.9882 120.58 31.7856 120.768 31.5277 120.904C31.2714 121.037 30.9763 121.102 30.6424 121.096Z" fill="#696969"/>
<path d="M103.128 121.192L101.696 121.167L101.67 122.62L101.098 122.61L101.124 121.157L99.6981 121.132L99.7073 120.614L101.133 120.639L101.159 119.18L101.731 119.19L101.705 120.649L103.137 120.675L103.128 121.192ZM107.259 119.133L104.898 119.091L104.871 120.625C104.977 120.483 105.131 120.369 105.335 120.283C105.538 120.192 105.757 120.149 105.99 120.153C106.362 120.16 106.663 120.244 106.893 120.405C107.124 120.561 107.286 120.764 107.381 121.012C107.479 121.256 107.526 121.515 107.522 121.788C107.516 122.111 107.45 122.399 107.325 122.653C107.199 122.906 107.009 123.105 106.756 123.248C106.506 123.392 106.198 123.46 105.83 123.454C105.36 123.445 104.981 123.318 104.693 123.07C104.406 122.823 104.235 122.497 104.179 122.092L104.778 122.103C104.832 122.36 104.951 122.561 105.137 122.708C105.323 122.855 105.559 122.931 105.846 122.936C106.2 122.942 106.469 122.842 106.652 122.634C106.835 122.422 106.93 122.141 106.936 121.791C106.942 121.442 106.857 121.171 106.681 120.98C106.506 120.784 106.243 120.683 105.893 120.676C105.655 120.672 105.446 120.727 105.264 120.84C105.088 120.949 104.957 121.102 104.873 121.297L104.294 121.287L104.343 118.543L107.269 118.595L107.259 119.133ZM108.349 121.002C108.363 120.231 108.499 119.633 108.758 119.207C109.016 118.776 109.46 118.566 110.087 118.578C110.711 118.589 111.144 118.814 111.387 119.253C111.631 119.688 111.746 120.291 111.732 121.062C111.718 121.847 111.582 122.454 111.323 122.885C111.064 123.315 110.623 123.525 110 123.514C109.372 123.503 108.937 123.278 108.693 122.838C108.45 122.399 108.335 121.787 108.349 121.002ZM111.127 121.052C111.134 120.661 111.113 120.331 111.063 120.061C111.019 119.787 110.918 119.566 110.759 119.397C110.605 119.228 110.378 119.141 110.077 119.136C109.773 119.13 109.538 119.209 109.374 119.372C109.214 119.535 109.104 119.753 109.046 120.026C108.992 120.294 108.961 120.623 108.954 121.013C108.947 121.417 108.966 121.756 109.01 122.03C109.059 122.304 109.161 122.526 109.315 122.695C109.473 122.863 109.705 122.95 110.01 122.956C110.31 122.961 110.54 122.882 110.7 122.719C110.865 122.556 110.974 122.338 111.028 122.066C111.087 121.793 111.12 121.455 111.127 121.052ZM112.572 121.077C112.586 120.306 112.722 119.707 112.981 119.281C113.24 118.851 113.683 118.641 114.31 118.652C114.934 118.663 115.367 118.889 115.61 119.328C115.854 119.763 115.969 120.366 115.955 121.137C115.941 121.922 115.805 122.529 115.546 122.96C115.287 123.39 114.846 123.6 114.223 123.589C113.595 123.578 113.16 123.353 112.916 122.913C112.673 122.474 112.558 121.862 112.572 121.077ZM115.35 121.126C115.357 120.736 115.336 120.406 115.287 120.136C115.242 119.862 115.141 119.64 114.982 119.472C114.828 119.303 114.601 119.216 114.301 119.211C113.996 119.205 113.761 119.284 113.597 119.447C113.437 119.61 113.328 119.828 113.269 120.101C113.215 120.369 113.184 120.698 113.177 121.088C113.17 121.491 113.189 121.83 113.233 122.105C113.282 122.379 113.384 122.601 113.538 122.769C113.696 122.938 113.928 123.025 114.233 123.031C114.533 123.036 114.764 122.957 114.923 122.794C115.088 122.631 115.197 122.413 115.251 122.14C115.31 121.868 115.343 121.53 115.35 121.126ZM119.395 123.68L117.502 121.508L117.464 123.646L116.852 123.635L116.935 118.948L117.547 118.959L117.509 121.131L119.484 118.993L120.258 119.007L118.091 121.316L120.195 123.695L119.395 123.68Z" fill="#F7B05B"/>
<rect x="3.62108" y="0.988753" width="132.001" height="137.982" rx="6.5" transform="rotate(1.0143 3.62108 0.988753)" stroke="#333333"/>
</svg>
